<svg width="18" height="14" viewBox="0 0 18 14" fill="none" xmlns="http://www.w3.org/2000/svg">
<path fill-rule="evenodd" clip-rule="evenodd" d="M3.1661 2.00016C2.70587 2.00016 2.33277 2.37326 2.33277 2.8335V11.1668C2.33277 11.6271 2.70587 12.0002 3.1661 12.0002H14.8328C15.293 12.0002 15.6661 11.6271 15.6661 11.1668V2.8335C15.6661 2.37326 15.293 2.00016 14.8328 2.00016H3.1661ZM0.666104 2.8335C0.666104 1.45278 1.78539 0.333496 3.1661 0.333496H14.8328C16.2135 0.333496 17.3328 1.45278 17.3328 2.8335V11.1668C17.3328 12.5475 16.2135 13.6668 14.8328 13.6668H3.1661C1.78539 13.6668 0.666104 12.5475 0.666104 11.1668V2.8335Z" fill="#F9D72A"/>
<path fill-rule="evenodd" clip-rule="evenodd" d="M0.806062 2.37122C1.06136 1.98827 1.57875 1.8848 1.96169 2.14009L8.99944 6.83192L16.0372 2.14009C16.4201 1.8848 16.9375 1.98827 17.1928 2.37122C17.4481 2.75416 17.3446 3.27155 16.9617 3.52684L9.46169 8.52684C9.18177 8.71345 8.8171 8.71345 8.53719 8.52684L1.03719 3.52684C0.654247 3.27155 0.550769 2.75416 0.806062 2.37122Z" fill="#F9D72A"/>
</svg>
