<svg width="14" height="14" viewBox="0 0 14 14" fill="none" xmlns="http://www.w3.org/2000/svg">
<path d="M7.00249 3.40572C5.01741 3.40572 3.41032 5.01455 3.41032 6.99788C3.41032 8.98297 5.01916 10.59 7.00249 10.59C8.98757 10.59 10.5947 8.98122 10.5947 6.99788C10.5947 5.0128 8.98582 3.40572 7.00249 3.40572ZM7.00249 9.32947C5.71391 9.32947 4.67091 8.28588 4.67091 6.99788C4.67091 5.70988 5.71449 4.6663 7.00249 4.6663C8.29049 4.6663 9.33407 5.70988 9.33407 6.99788C9.33465 8.28588 8.29107 9.32947 7.00249 9.32947Z" fill="#666276"/>
<path d="M9.88647 0.0444638C8.59847 -0.0156195 5.40822 -0.0127028 4.11905 0.0444638C2.98622 0.0975472 1.98697 0.37113 1.18138 1.17671C-0.164951 2.52305 0.00713257 4.33721 0.00713257 6.9978C0.00713257 9.7208 -0.144534 11.493 1.18138 12.8189C2.53297 14.1699 4.37338 13.9931 7.00247 13.9931C9.6998 13.9931 10.6308 13.9949 11.5845 13.6256C12.8813 13.1222 13.8601 11.9631 13.9558 9.88121C14.0165 8.59263 14.013 5.40296 13.9558 4.1138C13.8403 1.65621 12.5214 0.165797 9.88647 0.0444638ZM11.9252 11.9281C11.0426 12.8107 9.81822 12.732 6.98555 12.732C4.06888 12.732 2.8993 12.7751 2.04588 11.9194C1.06297 10.9411 1.24088 9.37021 1.24088 6.98846C1.24088 3.76555 0.910133 1.44446 4.14472 1.2788C4.88788 1.25255 5.10663 1.2438 6.97738 1.2438L7.00363 1.2613C10.1122 1.2613 12.5511 0.935797 12.6975 4.1698C12.7308 4.90771 12.7384 5.12938 12.7384 6.99721C12.7378 9.88005 12.7926 11.0566 11.9252 11.9281Z" fill="#666276"/>
<path d="M10.737 4.10333C11.2005 4.10333 11.5764 3.72751 11.5764 3.26391C11.5764 2.80032 11.2005 2.4245 10.737 2.4245C10.2734 2.4245 9.89753 2.80032 9.89753 3.26391C9.89753 3.72751 10.2734 4.10333 10.737 4.10333Z" fill="#666276"/>
</svg>
