<svg width="12" height="18" viewBox="0 0 12 18" fill="none" xmlns="http://www.w3.org/2000/svg">
<path fill-rule="evenodd" clip-rule="evenodd" d="M1.86219 2.38237C1.83579 2.40712 1.83268 2.42664 1.83268 2.43734V15.5623C1.83268 15.573 1.83579 15.5926 1.86219 15.6173C1.88952 15.6429 1.93604 15.6665 1.99935 15.6665H9.99935C10.0627 15.6665 10.1092 15.6429 10.1365 15.6173C10.1629 15.5926 10.166 15.573 10.166 15.5623V2.43734C10.166 2.42664 10.1629 2.40712 10.1365 2.38237C10.1092 2.35676 10.0627 2.33317 9.99935 2.33317H7.82642C7.83065 2.36721 7.83283 2.40188 7.83283 2.43706C7.83283 2.8973 7.45973 3.27039 6.9995 3.27039H4.9995C4.53926 3.27039 4.16616 2.8973 4.16616 2.43706C4.16616 2.40188 4.16834 2.36721 4.17258 2.33317H1.99935C1.93604 2.33317 1.88952 2.35675 1.86219 2.38237ZM0.166016 2.43734C0.166016 1.40949 1.03831 0.666504 1.99935 0.666504H9.99935C10.9604 0.666504 11.8327 1.40949 11.8327 2.43734V15.5623C11.8327 16.5902 10.9604 17.3332 9.99935 17.3332H1.99935C1.03831 17.3332 0.166016 16.5902 0.166016 15.5623V2.43734ZM5.99942 12.8537C6.45966 12.8537 6.83276 13.2268 6.83276 13.6871V13.6964C6.83276 14.1567 6.45966 14.5298 5.99942 14.5298C5.53919 14.5298 5.16609 14.1567 5.16609 13.6964V13.6871C5.16609 13.2268 5.53919 12.8537 5.99942 12.8537Z" fill="#F9D72A"/>
</svg>
