<svg width="18" height="18" viewBox="0 0 18 18" fill="none" xmlns="http://www.w3.org/2000/svg">
<path fill-rule="evenodd" clip-rule="evenodd" d="M8.99935 2.33317C5.31745 2.33317 2.33268 5.31794 2.33268 8.99984C2.33268 12.6817 5.31745 15.6665 8.99935 15.6665C12.6812 15.6665 15.666 12.6817 15.666 8.99984C15.666 5.31794 12.6812 2.33317 8.99935 2.33317ZM0.666016 8.99984C0.666016 4.39746 4.39698 0.666504 8.99935 0.666504C13.6017 0.666504 17.3327 4.39746 17.3327 8.99984C17.3327 13.6022 13.6017 17.3332 8.99935 17.3332C4.39698 17.3332 0.666016 13.6022 0.666016 8.99984Z" fill="#F9D72A"/>
<path fill-rule="evenodd" clip-rule="evenodd" d="M8.99935 3.99996C9.45959 3.99996 9.83268 4.37306 9.83268 4.83329V8.65478L12.0886 10.9107C12.414 11.2361 12.414 11.7638 12.0886 12.0892C11.7632 12.4147 11.2355 12.4147 10.9101 12.0892L8.41009 9.58922C8.25381 9.43294 8.16602 9.22097 8.16602 8.99996V4.83329C8.16602 4.37306 8.53911 3.99996 8.99935 3.99996Z" fill="#F9D72A"/>
</svg>
