<svg width="14" height="10" viewBox="0 0 14 10" fill="none" xmlns="http://www.w3.org/2000/svg">
<path d="M13.6904 1.45843L13.7079 1.57276C13.5388 0.972512 13.082 0.509345 12.5016 0.340762L12.4893 0.337845C11.3979 0.0415119 7.00601 0.041512 7.00601 0.041512C7.00601 0.041512 2.62517 0.0356786 1.52267 0.337845C0.931172 0.509345 0.473838 0.972512 0.307588 1.56051L0.304672 1.57276C-0.103078 3.70251 -0.105995 6.2616 0.322755 8.54185L0.304672 8.42634C0.473838 9.0266 0.930588 9.48976 1.51101 9.65834L1.52326 9.66126C2.61351 9.95818 7.00659 9.95818 7.00659 9.95818C7.00659 9.95818 11.3868 9.95818 12.4899 9.66126C13.082 9.48976 13.5393 9.0266 13.7056 8.43859L13.7085 8.42634C13.894 7.43584 14.0002 6.29601 14.0002 5.13168C14.0002 5.08909 14.0002 5.04593 13.9996 5.00276C14.0002 4.96309 14.0002 4.91584 14.0002 4.86859C14.0002 3.70368 13.894 2.56385 13.6904 1.45843ZM5.60484 7.12959V2.87534L9.26001 5.00568L5.60484 7.12959Z" fill="#000"/>
</svg>
