<svg width="132" height="34" viewBox="0 0 132 34" fill="none" xmlns="http://www.w3.org/2000/svg">
<path d="M20.0465 15.8144C20.0152 12.0589 23.1005 10.2336 23.236 10.1497C21.4849 7.59007 18.7748 7.2334 17.8263 7.20193C15.554 6.96066 13.3443 8.57615 12.1873 8.57615C11.0094 8.57615 9.21662 7.2334 7.29873 7.26487C4.82839 7.30684 2.50399 8.74399 1.24276 10.9889C-1.37349 15.5521 0.57567 22.2658 3.0877 25.9584C4.34892 27.7627 5.80819 29.7873 7.73651 29.7138C9.61271 29.6404 10.3215 28.5075 12.5834 28.5075C14.8348 28.5075 15.4915 29.7138 17.4511 29.6719C19.4732 29.6404 20.7344 27.8571 21.9539 26.0318C23.4028 23.9652 23.9865 21.9196 24.0073 21.8147C23.9552 21.7938 20.0882 20.3042 20.0465 15.8144Z" fill="white"/>
<path d="M16.3463 4.77889C17.3574 3.50958 18.0453 1.7787 17.8577 0.0163574C16.3984 0.0792984 14.5639 1.0339 13.5111 2.28223C12.5835 3.3837 11.7496 5.17752 11.9581 6.86643C13.605 6.99231 15.2935 6.02722 16.3463 4.77889Z" fill="white"/>
<path d="M51.8553 29.4517H49.2286L47.7902 24.899H42.787L41.4215 29.4517H38.8678L43.8189 13.9578H46.8833L51.8553 29.4517ZM47.3628 22.9898L46.0599 18.9511C45.9244 18.5315 45.6638 17.5664 45.2886 16.0348H45.2365C45.0801 16.6957 44.8404 17.6713 44.5068 18.9511L43.2248 22.9898H47.3628Z" fill="white"/>
<path d="M64.5823 23.7346C64.5823 25.6333 64.0715 27.1334 63.0396 28.2349C62.1224 29.221 60.9758 29.7035 59.6208 29.7035C58.1511 29.7035 57.0983 29.179 56.4521 28.1195V33.9835H53.9817V21.9513C53.9817 20.7554 53.9505 19.5386 53.8879 18.2797H56.056L56.1915 20.0526H56.2332C57.0566 18.7203 58.3074 18.049 59.9752 18.049C61.2885 18.049 62.3725 18.5735 63.2481 19.612C64.1445 20.661 64.5823 22.0247 64.5823 23.7346ZM62.0703 23.8185C62.0703 22.7276 61.8305 21.8359 61.3406 21.1331C60.809 20.3987 60.0898 20.0316 59.1934 20.0316C58.5889 20.0316 58.0364 20.2414 57.5361 20.64C57.0462 21.0491 56.7127 21.5736 56.5667 22.2345C56.4938 22.5387 56.4521 22.7905 56.4521 22.9898V24.8571C56.4521 25.6648 56.7022 26.3572 57.1921 26.9131C57.682 27.4691 58.3283 27.7524 59.1205 27.7524C60.0481 27.7524 60.7673 27.3852 61.2885 26.6719C61.8097 25.948 62.0703 25.0039 62.0703 23.8185Z" fill="white"/>
<path d="M77.3404 23.7346C77.3404 25.6333 76.8296 27.1334 75.7977 28.2349C74.8804 29.221 73.7339 29.7035 72.3788 29.7035C70.9091 29.7035 69.8564 29.179 69.2101 28.1195V33.9835H66.7398V21.9513C66.7398 20.7554 66.7085 19.5386 66.646 18.2797H68.8141L68.9496 20.0526H68.9913C69.8147 18.7203 71.0655 18.049 72.7332 18.049C74.0466 18.049 75.1306 18.5735 76.0062 19.612C76.9026 20.661 77.3404 22.0247 77.3404 23.7346ZM74.8283 23.8185C74.8283 22.7276 74.5886 21.8359 74.0987 21.1331C73.5671 20.3987 72.8479 20.0316 71.9515 20.0316C71.3469 20.0316 70.7945 20.2414 70.2942 20.64C69.8043 21.0491 69.4811 21.5736 69.3248 22.2345C69.2518 22.5387 69.2101 22.7905 69.2101 22.9898V24.8571C69.2101 25.6648 69.4603 26.3572 69.9502 26.9131C70.4401 27.4691 71.0863 27.7524 71.8785 27.7524C72.8062 27.7524 73.5358 27.3852 74.0466 26.6719C74.5782 25.948 74.8283 25.0039 74.8283 23.8185Z" fill="white"/>
<path d="M91.6202 25.109C91.6202 26.4308 91.1616 27.5008 90.2548 28.3295C89.2541 29.2316 87.8574 29.6827 86.0646 29.6827C84.4073 29.6827 83.0835 29.3575 82.0829 28.7176L82.6562 26.6511C83.7402 27.291 84.9285 27.6162 86.2209 27.6162C87.1486 27.6162 87.8783 27.4063 88.389 26.9867C88.9102 26.5671 89.1707 26.0007 89.1707 25.2978C89.1707 24.6684 88.9519 24.1439 88.5349 23.7138C88.1076 23.2837 87.3988 22.8851 86.4086 22.5179C83.6881 21.5004 82.3435 20.0213 82.3435 18.0806C82.3435 16.8113 82.8229 15.7728 83.7715 14.9545C84.72 14.1468 85.9812 13.7377 87.5551 13.7377C88.9519 13.7377 90.1193 13.9789 91.0469 14.472L90.4215 16.4861C89.546 16.014 88.5662 15.7728 87.4613 15.7728C86.5962 15.7728 85.9082 15.9931 85.4183 16.4127C85.0118 16.8008 84.8034 17.2624 84.8034 17.8183C84.8034 18.4268 85.0431 18.9408 85.5122 19.3289C85.9187 19.6961 86.6691 20.0947 87.7532 20.5248C89.0769 21.0598 90.0463 21.6892 90.6717 22.413C91.3075 23.1369 91.6202 24.039 91.6202 25.109Z" fill="white"/>
<path d="M99.7922 20.1473H97.0717V25.5707C97.0717 26.9449 97.5512 27.6372 98.5101 27.6372C98.9479 27.6372 99.3127 27.5953 99.6046 27.5219L99.6775 29.4101C99.1876 29.5884 98.5518 29.6828 97.7596 29.6828C96.7798 29.6828 96.0293 29.3786 95.4769 28.7807C94.9245 28.1827 94.6535 27.1757 94.6535 25.77V20.1368H93.0378V18.28H94.6535V16.2344L97.0717 15.5001V18.28H99.7922V20.1473Z" fill="white"/>
<path d="M112.029 23.777C112.029 25.4973 111.539 26.903 110.57 28.0045C109.549 29.1374 108.193 29.7039 106.505 29.7039C104.879 29.7039 103.576 29.1584 102.607 28.0779C101.637 26.9974 101.158 25.6232 101.158 23.9658C101.158 22.2349 101.658 20.8187 102.648 19.7173C103.649 18.6158 104.994 18.0598 106.682 18.0598C108.308 18.0598 109.621 18.6053 110.612 19.6963C111.56 20.7453 112.029 22.109 112.029 23.777ZM109.476 23.8294C109.476 22.8014 109.257 21.9307 108.819 21.1964C108.298 20.3047 107.558 19.8641 106.599 19.8641C105.608 19.8641 104.848 20.3047 104.337 21.1964C103.889 21.9307 103.68 22.8224 103.68 23.8819C103.68 24.9099 103.899 25.7911 104.337 26.5149C104.868 27.4066 105.619 27.8471 106.578 27.8471C107.516 27.8471 108.256 27.3961 108.798 26.4939C109.246 25.7386 109.476 24.8574 109.476 23.8294Z" fill="white"/>
<path d="M120.055 20.4617C119.815 20.4197 119.555 20.3987 119.273 20.3987C118.408 20.3987 117.731 20.7239 117.262 21.3848C116.855 21.9618 116.647 22.7066 116.647 23.5878V29.4518H114.176V21.7939C114.176 20.5036 114.156 19.3287 114.103 18.2797H116.251L116.344 20.4197H116.417C116.678 19.6854 117.084 19.0875 117.647 18.6469C118.2 18.2483 118.794 18.049 119.43 18.049C119.659 18.049 119.867 18.0699 120.045 18.0909L120.055 20.4617Z" fill="white"/>
<path d="M131.083 23.3362C131.083 23.7768 131.052 24.1544 130.989 24.4587H123.589C123.62 25.5601 123.974 26.4098 124.662 26.9868C125.288 27.5008 126.09 27.7631 127.08 27.7631C128.175 27.7631 129.175 27.5847 130.072 27.2386L130.458 28.9589C129.405 29.4205 128.164 29.6513 126.736 29.6513C125.017 29.6513 123.662 29.1373 122.682 28.1197C121.702 27.1022 121.212 25.728 121.212 24.0181C121.212 22.3396 121.671 20.934 122.588 19.8115C123.547 18.6156 124.839 18.0177 126.465 18.0177C128.06 18.0177 129.28 18.6156 130.093 19.8115C130.749 20.7766 131.083 21.941 131.083 23.3362ZM128.727 22.6963C128.748 21.962 128.581 21.3221 128.248 20.7871C127.82 20.0948 127.164 19.7486 126.288 19.7486C125.486 19.7486 124.829 20.0843 124.329 20.7556C123.922 21.2906 123.672 21.941 123.599 22.6858L128.727 22.6963Z" fill="white"/>
<path d="M46.175 8.41933H44.8825L44.1737 6.18492H41.7138L41.0363 8.41933H39.7855L42.2142 0.803467H43.7151L46.175 8.41933ZM43.9549 5.24081L43.319 3.24768C43.2565 3.04836 43.1314 2.56582 42.9334 1.81052H42.9125C42.8291 2.13572 42.7249 2.60778 42.5477 3.24768L41.9223 5.24081H43.9549Z" fill="white"/>
<path d="M52.2622 2.92236L50.1984 8.41921H49.0206L47.0193 2.92236H48.3222L49.2499 5.82814C49.4062 6.31069 49.5417 6.77226 49.646 7.21284H49.6772C49.771 6.81422 49.9065 6.35265 50.0733 5.82814L50.9906 2.92236H52.2622Z" fill="white"/>
<path d="M56.6609 8.41926L56.5671 7.78985H56.5358C56.1606 8.29338 55.629 8.54514 54.9411 8.54514C53.9613 8.54514 53.2733 7.85279 53.2733 6.92966C53.2733 5.57643 54.4407 4.87358 56.4629 4.87358V4.76868C56.4629 4.04486 56.0772 3.6882 55.3267 3.6882C54.7847 3.6882 54.3157 3.82457 53.8987 4.09731L53.6486 3.30006C54.1489 2.98536 54.7847 2.828 55.5248 2.828C56.9528 2.828 57.672 3.58329 57.672 5.10437V7.12897C57.672 7.68495 57.6928 8.11504 57.7554 8.44024L56.6609 8.41926ZM56.4941 5.68133C55.1495 5.68133 54.472 6.00652 54.472 6.79328C54.472 7.37024 54.816 7.65348 55.3059 7.65348C55.9209 7.65348 56.4941 7.18142 56.4941 6.53103V5.68133Z" fill="white"/>
<path d="M60.3721 2.0199C59.9653 2.0199 59.6525 1.7052 59.6525 1.28559C59.6525 0.865983 59.9758 0.561768 60.3929 0.561768C60.8101 0.561768 61.1438 0.865983 61.1334 1.28559C61.1334 1.72618 60.8205 2.0199 60.3721 2.0199ZM59.788 2.92206H60.9978V8.40841H59.788V2.92206Z" fill="white"/>
<path d="M63.1547 0.404663H64.3636V8.40866H63.1547V0.404663Z" fill="white"/>
<path d="M69.5128 8.41889L69.419 7.78948H69.3877C69.0125 8.293 68.4809 8.54477 67.793 8.54477C66.8132 8.54477 66.1252 7.85242 66.1252 6.92928C66.1252 5.57605 67.2927 4.87321 69.3148 4.87321V4.76831C69.3148 4.04449 68.9291 3.68782 68.1786 3.68782C67.6366 3.68782 67.1676 3.82419 66.7506 4.09694L66.5005 3.2892C67.0008 2.97449 67.6366 2.81714 68.3767 2.81714C69.8047 2.81714 70.5239 3.57243 70.5239 5.0935V7.11811C70.5239 7.67409 70.5447 8.10418 70.5968 8.42938H69.5128V8.41889ZM69.346 5.68095C68.0014 5.68095 67.3239 6.00615 67.3239 6.79291C67.3239 7.36987 67.6679 7.65311 68.1578 7.65311C68.7728 7.65311 69.346 7.18105 69.346 6.53066V5.68095Z" fill="white"/>
<path d="M75.4438 8.54503C74.6725 8.54503 74.0992 8.21984 73.724 7.56945H73.7031L73.6302 8.41915H72.5983C72.6295 7.97857 72.64 7.48553 72.64 6.94004V0.404663H73.8595V3.73005H73.8803C74.2451 3.12162 74.8184 2.8174 75.621 2.8174C76.9343 2.8174 77.8516 3.95034 77.8516 5.5973C77.8516 7.2967 76.8301 8.54503 75.4438 8.54503ZM75.1937 3.77201C74.4953 3.77201 73.8595 4.38044 73.8595 5.23014V6.19524C73.8595 6.95053 74.4328 7.56945 75.1728 7.56945C76.0796 7.56945 76.6216 6.82465 76.6216 5.63926C76.6216 4.5273 76.0588 3.77201 75.1937 3.77201Z" fill="white"/>
<path d="M79.6443 0.404663H80.8532V8.40866H79.6443V0.404663Z" fill="white"/>
<path d="M87.4514 5.96429H83.8137C83.8345 7.00282 84.5224 7.59027 85.5335 7.59027C86.0755 7.59027 86.5654 7.49586 87.0032 7.32801L87.1908 8.17772C86.6801 8.4085 86.0755 8.5134 85.3667 8.5134C83.6573 8.5134 82.6462 7.43292 82.6462 5.744C82.6462 4.06557 83.6781 2.79626 85.2312 2.79626C86.6175 2.79626 87.5035 3.83479 87.5035 5.40831C87.5035 5.62861 87.4931 5.81743 87.4514 5.96429ZM86.3465 5.09361C86.3465 4.24391 85.9192 3.64597 85.1478 3.64597C84.4495 3.64597 83.9075 4.2544 83.8241 5.09361H86.3465Z" fill="white"/>
<path d="M94.7999 8.54477C93.2051 8.54477 92.1732 7.34889 92.1732 5.72291C92.1732 4.02351 93.226 2.81714 94.8937 2.81714C96.4677 2.81714 97.5204 3.96057 97.5204 5.6285C97.5204 7.3384 96.4364 8.54477 94.7999 8.54477ZM94.852 3.7088C93.9765 3.7088 93.4136 4.53753 93.4136 5.68095C93.4136 6.81389 93.9869 7.63212 94.8416 7.63212C95.6963 7.63212 96.2696 6.75095 96.2696 5.64948C96.2592 4.53753 95.7068 3.7088 94.852 3.7088Z" fill="white"/>
<path d="M104.035 8.419H102.826V5.26146C102.826 4.28588 102.451 3.80333 101.721 3.80333C101.002 3.80333 100.512 4.42225 100.512 5.14607V8.40851H99.3028V4.49568C99.3028 4.01313 99.2924 3.48862 99.2611 2.92215H100.324L100.376 3.77186H100.408C100.731 3.18441 101.398 2.80676 102.138 2.80676C103.285 2.80676 104.035 3.68794 104.035 5.12509V8.419Z" fill="white"/>
<path d="M111.967 3.84533H110.633V6.50983C110.633 7.19169 110.873 7.52738 111.342 7.52738C111.55 7.52738 111.738 7.5064 111.884 7.47493L111.915 8.39806C111.675 8.49247 111.363 8.53443 110.977 8.53443C110.018 8.53443 109.455 7.99943 109.455 6.61473V3.84533H108.663V2.93268H109.455V1.92563L110.643 1.55847V2.92219H111.977V3.84533" fill="white"/>
<path d="M118.388 8.41915H117.179V5.28259C117.179 4.29652 116.804 3.80348 116.074 3.80348C115.449 3.80348 114.865 4.23357 114.865 5.10426V8.40866H113.656V0.404663H114.865V3.69858H114.886C115.271 3.10064 115.813 2.80691 116.522 2.80691C117.679 2.80691 118.388 3.70907 118.388 5.14622V8.41915Z" fill="white"/>
<path d="M124.579 5.96429H120.942C120.962 7.00282 121.65 7.59027 122.661 7.59027C123.203 7.59027 123.693 7.49586 124.131 7.32801L124.319 8.17772C123.808 8.4085 123.203 8.5134 122.495 8.5134C120.785 8.5134 119.774 7.43292 119.774 5.744C119.774 4.06557 120.806 2.79626 122.359 2.79626C123.745 2.79626 124.631 3.83479 124.631 5.40831C124.631 5.62861 124.621 5.81743 124.579 5.96429ZM123.474 5.09361C123.474 4.24391 123.047 3.64597 122.276 3.64597C121.577 3.64597 121.025 4.2544 120.952 5.09361H123.474Z" fill="white"/>
</svg>
