<svg width="241" height="238" viewBox="0 0 241 238" fill="none" xmlns="http://www.w3.org/2000/svg">
<g clip-path="url(#clip0_1_1365)">
<g filter="url(#filter0_dd_1_1365)">
<path d="M218.397 241.032L217.479 237.356C217.479 237.302 217.425 237.194 217.479 237.14C217.479 237.085 217.532 236.977 217.532 236.923C217.586 236.869 217.641 236.815 217.695 236.761C217.749 236.707 217.803 236.707 217.857 236.653C217.911 236.653 218.019 236.653 218.073 236.653C218.127 236.653 218.235 236.707 218.289 236.707C218.343 236.761 218.397 236.815 218.451 236.869C218.505 236.923 218.505 236.977 218.559 237.085L219.208 239.681L221.801 239.032C221.963 238.978 222.071 239.032 222.233 239.086C222.342 239.14 222.45 239.302 222.45 239.41C222.504 239.573 222.45 239.681 222.395 239.843C222.341 239.951 222.234 240.059 222.071 240.113L218.397 241.032Z" fill="#5D3CF2"/>
<path d="M216.399 231.572C216.291 231.572 216.183 231.518 216.129 231.41C216.021 231.356 215.967 231.248 215.967 231.14L214.454 224.976C214.454 224.922 214.4 224.813 214.454 224.759C214.454 224.705 214.508 224.597 214.508 224.543C214.562 224.489 214.616 224.435 214.67 224.381C214.724 224.327 214.778 224.327 214.832 224.273C214.886 224.273 214.994 224.273 215.048 224.273C215.102 224.273 215.21 224.327 215.264 224.327C215.318 224.381 215.372 224.435 215.426 224.489C215.48 224.543 215.48 224.597 215.534 224.705L217.047 230.923C217.047 230.977 217.101 231.085 217.047 231.14C217.047 231.194 216.993 231.302 216.993 231.356C216.939 231.41 216.885 231.464 216.831 231.518C216.777 231.572 216.723 231.572 216.669 231.626C216.507 231.572 216.453 231.572 216.399 231.572ZM213.319 219.19C213.211 219.19 213.103 219.136 213.049 219.082C212.941 219.028 212.887 218.92 212.887 218.812L211.374 212.594C211.374 212.54 211.32 212.432 211.374 212.378C211.374 212.324 211.374 212.216 211.428 212.161C211.482 212.107 211.536 212.053 211.59 211.999C211.644 211.945 211.752 211.891 211.806 211.891C211.914 211.891 211.968 211.891 212.022 211.891C212.076 211.891 212.184 211.945 212.238 211.999C212.292 212.053 212.346 212.107 212.4 212.161C212.454 212.216 212.454 212.324 212.454 212.378L213.968 218.541C214.022 218.704 213.967 218.812 213.913 218.974C213.859 219.082 213.751 219.19 213.589 219.244C213.481 219.19 213.427 219.19 213.319 219.19ZM210.239 206.809C210.131 206.809 210.023 206.754 209.969 206.646C209.861 206.592 209.807 206.484 209.807 206.376L208.294 200.212C208.294 200.158 208.294 200.05 208.294 199.996C208.294 199.942 208.348 199.834 208.348 199.78C208.402 199.726 208.456 199.671 208.51 199.617C208.564 199.563 208.618 199.563 208.672 199.509C208.726 199.509 208.834 199.509 208.888 199.509C208.942 199.509 209.05 199.563 209.104 199.563C209.158 199.617 209.212 199.672 209.266 199.726C209.32 199.78 209.321 199.834 209.375 199.942L210.887 206.16C210.942 206.322 210.887 206.43 210.833 206.592C210.779 206.7 210.671 206.809 210.509 206.863C210.401 206.809 210.347 206.809 210.239 206.809Z" fill="#5D3CF2"/>
<path d="M207.212 194.426C207.104 194.426 206.996 194.372 206.942 194.264C206.834 194.21 206.78 194.102 206.78 193.994L205.861 190.317L209.536 189.398C209.698 189.398 209.806 189.398 209.914 189.506C210.022 189.56 210.076 189.722 210.13 189.831C210.184 189.939 210.13 190.101 210.076 190.209C210.022 190.317 209.914 190.425 209.752 190.479L207.158 191.128L207.806 193.723C207.806 193.778 207.806 193.886 207.806 193.94C207.806 193.994 207.752 194.102 207.698 194.156C207.644 194.21 207.59 194.264 207.536 194.318C207.482 194.372 207.374 194.372 207.32 194.426C207.374 194.426 207.32 194.426 207.212 194.426Z" fill="#5D3CF2"/>
<path d="M138.859 167.986C138.751 167.932 138.697 167.824 138.643 167.716C138.589 167.608 138.589 167.446 138.643 167.338C138.697 167.229 138.805 167.121 138.913 167.067C139.021 167.013 139.129 167.013 139.291 167.013L141.939 167.5L142.425 164.85C142.425 164.688 142.534 164.58 142.642 164.472C142.75 164.364 142.912 164.364 143.074 164.364C143.236 164.418 143.344 164.472 143.452 164.58C143.56 164.688 143.56 164.85 143.56 165.013L142.912 168.689L139.183 168.04C138.967 168.04 138.913 167.986 138.859 167.986Z" fill="#5D3CF2"/>
<path d="M150.422 121.38C150.314 121.326 150.26 121.218 150.206 121.164C150.152 121.056 150.152 120.947 150.152 120.839L150.639 118.19L147.991 117.703C147.883 117.703 147.829 117.649 147.775 117.649C147.721 117.595 147.667 117.541 147.613 117.487C147.559 117.433 147.505 117.379 147.505 117.271C147.505 117.217 147.505 117.109 147.505 117.054C147.505 117 147.559 116.892 147.613 116.838C147.667 116.784 147.721 116.73 147.775 116.676C147.829 116.622 147.883 116.622 147.937 116.568C147.991 116.568 148.099 116.568 148.153 116.568L151.827 117.217L151.179 120.893C151.179 121.056 151.071 121.164 150.963 121.272C150.855 121.38 150.692 121.38 150.53 121.38C150.53 121.434 150.476 121.434 150.422 121.38Z" fill="#5D3CF2"/>
<path d="M143.722 159.065C143.614 159.011 143.56 158.903 143.506 158.849C143.452 158.741 143.452 158.633 143.452 158.525L144.586 152.253C144.586 152.199 144.641 152.091 144.695 152.037C144.749 151.982 144.803 151.929 144.857 151.874C144.911 151.82 145.019 151.82 145.073 151.766C145.127 151.766 145.235 151.766 145.289 151.766C145.451 151.82 145.559 151.874 145.613 151.983C145.721 152.091 145.721 152.253 145.721 152.415L144.586 158.687C144.586 158.741 144.533 158.849 144.533 158.903C144.479 158.957 144.424 159.011 144.37 159.065C144.316 159.12 144.208 159.12 144.154 159.174C144.1 159.174 143.992 159.174 143.938 159.174C143.83 159.174 143.776 159.12 143.722 159.065ZM145.937 146.522C145.829 146.467 145.775 146.359 145.721 146.305C145.667 146.197 145.667 146.089 145.667 145.981L146.802 139.709C146.802 139.655 146.856 139.547 146.856 139.493C146.91 139.439 146.964 139.384 147.018 139.33C147.072 139.276 147.126 139.276 147.18 139.222C147.288 139.222 147.342 139.222 147.396 139.222C147.45 139.222 147.558 139.276 147.612 139.276C147.666 139.33 147.721 139.385 147.775 139.439C147.829 139.493 147.829 139.547 147.883 139.655C147.937 139.763 147.883 139.817 147.883 139.871L146.802 146.143C146.748 146.305 146.694 146.413 146.586 146.522C146.478 146.63 146.316 146.63 146.154 146.63C146.046 146.576 145.991 146.576 145.937 146.522ZM148.153 133.978C148.045 133.924 147.991 133.815 147.937 133.761C147.883 133.653 147.883 133.545 147.883 133.437L149.017 127.165C149.017 127.111 149.071 127.003 149.125 126.949C149.18 126.895 149.233 126.841 149.287 126.786C149.342 126.732 149.45 126.732 149.504 126.678C149.558 126.624 149.666 126.678 149.72 126.678C149.828 126.678 149.882 126.732 149.936 126.732C149.99 126.787 150.044 126.84 150.098 126.895C150.152 126.949 150.152 127.003 150.206 127.111C150.206 127.165 150.206 127.273 150.206 127.327L149.071 133.599C149.017 133.761 148.963 133.869 148.855 133.978C148.747 134.086 148.585 134.086 148.423 134.086C148.261 134.032 148.207 133.978 148.153 133.978Z" fill="#5D3CF2"/>
<path d="M221.64 34.9243H124.432C117.516 34.9243 111.896 40.5474 111.896 47.4682V287.263C111.896 294.184 117.516 299.807 124.432 299.807H221.64C228.61 299.807 234.176 294.184 234.176 287.263V47.4682C234.176 40.5474 228.556 34.9243 221.64 34.9243Z" fill="white"/>
<path d="M222.774 30.3276H123.243C118.813 30.3276 114.544 32.1119 111.464 35.1938C108.33 38.3298 106.547 42.5472 106.547 46.9809V288.29C106.547 292.723 108.33 296.941 111.464 300.077C114.598 303.213 118.813 304.943 123.243 304.943H222.774C227.205 304.943 231.474 303.213 234.608 300.077C237.742 296.941 239.525 292.723 239.525 288.29V46.9809C239.525 42.5472 237.742 38.3298 234.608 35.1938C231.474 32.0578 227.205 30.3276 222.774 30.3276ZM234.176 287.533C234.176 290.831 232.879 294.021 230.501 296.4C228.124 298.725 224.936 300.077 221.64 300.077H124.432C121.082 300.077 117.894 298.779 115.571 296.4C113.193 294.075 111.896 290.885 111.896 287.533V47.7378C111.896 44.4396 113.247 41.2496 115.571 38.8705C117.894 36.5456 121.082 35.1938 124.432 35.1938H136.698C137.347 35.1938 137.995 35.4642 138.427 35.8967C138.859 36.3293 139.13 36.9781 139.13 37.6269V38.7083C139.13 40.4385 139.832 42.0605 141.021 43.25C142.21 44.4395 143.885 45.1424 145.614 45.1424H200.404C201.269 45.1424 202.079 44.9803 202.89 44.6559C203.646 44.3315 204.403 43.8448 204.997 43.25C205.592 42.6553 206.078 41.9524 206.402 41.1414C206.726 40.3844 206.888 39.5193 206.888 38.6542V37.6269C206.888 36.9781 207.158 36.3834 207.591 35.8967C208.023 35.4642 208.672 35.1938 209.32 35.1938H221.586C224.936 35.1938 228.124 36.4915 230.447 38.8705C232.825 41.1955 234.122 44.3855 234.122 47.7378V287.533H234.176Z" fill="url(#paint0_linear_1_1365)"/>
<path d="M111.896 47.7383V78.233H234.176V47.7383C234.176 44.4401 232.879 41.2501 230.501 38.871C228.124 36.5461 224.936 35.1943 221.64 35.1943H209.374C208.726 35.1943 208.131 35.4647 207.645 35.8973C207.213 36.3298 206.943 36.9786 206.943 37.6274V38.7088C206.943 39.5739 206.78 40.3849 206.456 41.1959C206.132 41.9529 205.646 42.7099 205.051 43.3047C204.457 43.8994 203.754 44.386 202.944 44.7104C202.187 45.0348 201.323 45.1971 200.458 45.1971H145.668C143.938 45.1971 142.317 44.4942 141.075 43.3047C139.832 42.1151 139.183 40.4389 139.183 38.7628V37.7355C139.183 37.0867 138.913 36.492 138.481 36.0054C138.049 35.5728 137.4 35.3024 136.752 35.3024H124.432C121.082 35.3024 117.948 36.6001 115.571 38.9792C113.247 41.25 111.896 44.4401 111.896 47.7383Z" fill="#EFECF3"/>
<path d="M191.11 58.876H152.098C150.314 58.876 148.855 60.3358 148.855 62.1201C148.855 63.9044 150.314 65.3642 152.098 65.3642H191.11C192.893 65.3642 194.352 63.9044 194.352 62.1201C194.352 60.3358 192.893 58.876 191.11 58.876Z" fill="#D5D2DC"/>
<path d="M215.804 68.4461C219.317 68.4461 222.18 65.5805 222.18 62.1201C222.18 58.6056 219.371 55.7939 215.804 55.7939C212.292 55.7939 209.428 58.6597 209.428 62.1201C209.482 65.6346 212.292 68.4461 215.804 68.4461Z" fill="white"/>
<path d="M215.046 59.9575L217.208 62.1203L215.046 64.283" stroke="#FD5631" stroke-width="0.917" stroke-linecap="round" stroke-linejoin="round"/>
<path d="M126.702 68.4461C130.214 68.4461 133.078 65.5805 133.078 62.1201C133.078 58.6056 130.214 55.7939 126.702 55.7939C123.19 55.7939 120.326 58.6597 120.326 62.1201C120.326 65.6346 123.19 68.4461 126.702 68.4461Z" fill="white"/>
<path d="M127.458 59.9575L125.297 62.1203L127.458 64.283" stroke="#5D3CF2" stroke-width="0.917" stroke-linecap="round" stroke-linejoin="round"/>
<path d="M220.614 144.305H139.508C138.266 144.305 137.293 145.278 137.293 146.521V160.633C137.293 161.877 138.32 162.85 139.508 162.85H220.614C221.857 162.85 222.829 161.877 222.829 160.633V146.521C222.829 145.332 221.857 144.305 220.614 144.305Z" fill="#FFF2D6"/>
<path d="M132.97 138.789H122.379C121.244 138.789 120.326 139.708 120.326 140.844C120.326 141.979 121.244 142.898 122.379 142.898H132.97C134.104 142.898 135.023 141.979 135.023 140.844C135.023 139.708 134.104 138.789 132.97 138.789Z" fill="#EFECF3"/>
<path d="M139.508 162.905H142.21V144.36H139.508C138.914 144.36 138.374 144.576 137.941 145.009C137.509 145.441 137.293 145.982 137.293 146.577V160.635C137.293 160.905 137.347 161.229 137.455 161.5C137.563 161.77 137.725 162.04 137.941 162.257C138.158 162.473 138.374 162.635 138.698 162.743C138.914 162.797 139.238 162.905 139.508 162.905Z" fill="#F23C49"/>
<path opacity="0.2" d="M220.614 220.433H139.508C138.266 220.433 137.293 221.406 137.293 222.649V236.761C137.293 238.005 138.32 238.978 139.508 238.978H220.614C221.857 238.978 222.829 238.005 222.829 236.761V222.649C222.829 221.46 221.857 220.433 220.614 220.433Z" fill="#3C76F2"/>
<path d="M132.97 214.918H122.379C121.244 214.918 120.326 215.838 120.326 216.973C120.326 218.109 121.244 219.028 122.379 219.028H132.97C134.104 219.028 135.023 218.109 135.023 216.973C135.023 215.838 134.104 214.918 132.97 214.918Z" fill="#EFECF3"/>
<path d="M139.508 238.979H142.21V220.379H139.508C138.914 220.379 138.374 220.595 137.941 221.028C137.509 221.46 137.293 222.001 137.293 222.596V236.708C137.293 237.032 137.347 237.302 137.455 237.573C137.563 237.843 137.725 238.113 137.941 238.33C138.158 238.546 138.374 238.708 138.698 238.816C138.914 238.924 139.184 238.979 139.508 238.979Z" fill="#FDBC31"/>
<path d="M220.614 98.5078H139.508C138.266 98.5078 137.293 99.4811 137.293 100.725V130.354C137.293 131.598 138.32 132.571 139.508 132.571H220.614C221.857 132.571 222.829 131.598 222.829 130.354V100.725C222.829 99.4811 221.857 98.5078 220.614 98.5078Z" fill="#F5F4F8"/>
<path d="M132.97 92.9927H122.379C121.244 92.9927 120.326 93.9119 120.326 95.0473C120.326 96.1828 121.244 97.102 122.379 97.102H132.97C134.104 97.102 135.023 96.1828 135.023 95.0473C135.023 93.9119 134.104 92.9927 132.97 92.9927Z" fill="#EFECF3"/>
<path d="M139.508 132.571H142.21V98.5078H139.508C138.914 98.5078 138.374 98.7242 137.941 99.1567C137.509 99.5893 137.293 100.13 137.293 100.725V130.354C137.293 130.625 137.347 130.949 137.455 131.219C137.563 131.49 137.725 131.76 137.941 131.976C138.158 132.193 138.374 132.355 138.644 132.463C138.914 132.517 139.238 132.571 139.508 132.571Z" fill="#FD5631"/>
<path d="M132.97 171.23H122.379C121.244 171.23 120.326 172.149 120.326 173.285C120.326 174.42 121.244 175.339 122.379 175.339H132.97C134.104 175.339 135.023 174.42 135.023 173.285C135.023 172.203 134.104 171.23 132.97 171.23Z" fill="#EFECF3"/>
<path d="M220.614 176.801H139.508C138.266 176.801 137.293 177.774 137.293 179.018V204.322C137.293 205.565 138.32 206.539 139.508 206.539H220.614C221.857 206.539 222.829 205.565 222.829 204.322V179.018C222.829 177.774 221.857 176.801 220.614 176.801Z" fill="#F5F4F8"/>
<path d="M139.508 206.538H142.21V176.747H139.508C138.914 176.747 138.374 176.963 137.941 177.395C137.509 177.828 137.293 178.369 137.293 178.963V204.268C137.293 204.538 137.347 204.862 137.455 205.133C137.563 205.403 137.725 205.673 137.941 205.89C138.158 206.106 138.374 206.268 138.698 206.376C138.914 206.484 139.238 206.538 139.508 206.538Z" fill="#FD5631"/>
<path d="M145.235 109.159C145.181 109.159 145.126 109.159 145.126 109.159C145.072 109.159 145.019 109.105 145.019 109.105C144.965 109.051 144.964 109.051 144.964 108.997C144.964 108.943 144.91 108.889 144.91 108.889C144.91 108.835 144.91 108.781 144.964 108.781C145.181 108.186 145.505 107.591 145.883 106.997C145.937 106.943 145.991 106.889 146.099 106.834C146.207 106.834 146.261 106.834 146.369 106.888C146.423 106.943 146.477 106.997 146.531 107.105C146.531 107.213 146.531 107.267 146.477 107.375C146.153 107.862 145.829 108.457 145.613 108.997C145.613 109.051 145.559 109.105 145.505 109.105C145.397 109.159 145.343 109.159 145.235 109.159Z" fill="#5D3CF2"/>
<path d="M208.433 228.734L195.735 225.165C195.681 225.219 195.681 225.273 195.681 225.273C195.573 225.543 195.573 225.868 195.681 226.138L201.409 240.088C201.517 240.358 201.733 240.629 202.003 240.737L208.433 228.734Z" fill="#3C76F2"/>
<path d="M216.722 126.409C216.669 126.463 216.615 126.516 216.561 126.57C216.669 126.57 216.722 126.463 216.722 126.409Z" fill="#EFECF3"/>
<path d="M210.347 215.162L203.809 226.624L216.831 230.679C216.831 230.733 216.777 230.841 216.723 230.896C216.831 230.733 216.885 230.517 216.885 230.355C216.885 230.139 216.885 229.976 216.777 229.814L211.05 215.919C210.996 215.756 210.887 215.594 210.779 215.486C210.725 215.324 210.509 215.216 210.347 215.162Z" fill="#3C76F2"/>
<path d="M210.454 110.674L210.345 110.62L210.454 110.674Z" fill="#EFECF3"/>
<path d="M191.597 185.45H152.53C151.396 185.45 150.423 186.369 150.423 187.505C150.423 188.64 151.342 189.559 152.53 189.559H191.597C192.732 189.559 193.704 188.64 193.704 187.505C193.65 186.369 192.732 185.45 191.597 185.45Z" fill="#A998F5"/>
<path d="M175.171 193.778H152.53C151.396 193.778 150.423 194.697 150.423 195.832C150.423 196.968 151.342 197.887 152.53 197.887H175.171C176.305 197.887 177.278 196.968 177.278 195.832C177.224 194.697 176.305 193.778 175.171 193.778Z" fill="#A998F5"/>
<ellipse cx="194.798" cy="115.404" rx="6.4574" ry="6.46154" fill="#FD5631"/>
<ellipse cx="175.426" cy="115.404" rx="6.4574" ry="6.46154" fill="#FD5631"/>
<ellipse cx="154.977" cy="115.404" rx="6.4574" ry="6.46154" fill="#FD5631"/>
</g>
<g filter="url(#filter1_dd_1_1365)">
<path d="M124.335 241.436L123.314 237.349C123.314 237.289 123.254 237.169 123.314 237.109C123.314 237.049 123.374 236.928 123.374 236.868C123.434 236.808 123.494 236.748 123.554 236.688C123.615 236.628 123.675 236.628 123.735 236.568C123.795 236.568 123.915 236.568 123.975 236.568C124.035 236.568 124.155 236.628 124.215 236.628C124.275 236.688 124.335 236.748 124.395 236.808C124.455 236.868 124.456 236.929 124.516 237.049L125.236 239.934L128.12 239.213C128.3 239.152 128.42 239.212 128.6 239.273C128.72 239.333 128.84 239.513 128.84 239.633C128.9 239.814 128.84 239.934 128.78 240.114C128.72 240.234 128.6 240.355 128.42 240.415L124.335 241.436Z" fill="#5D3CF2"/>
<path d="M122.114 230.919C121.993 230.919 121.873 230.858 121.813 230.738C121.693 230.678 121.633 230.558 121.633 230.438L119.951 223.586C119.951 223.526 119.891 223.405 119.951 223.345C119.951 223.285 120.011 223.165 120.011 223.105C120.071 223.045 120.131 222.985 120.191 222.925C120.251 222.865 120.311 222.865 120.371 222.805C120.432 222.805 120.552 222.805 120.612 222.805C120.672 222.805 120.792 222.865 120.852 222.865C120.912 222.925 120.972 222.985 121.032 223.045C121.092 223.105 121.092 223.165 121.152 223.285L122.834 230.197C122.834 230.257 122.894 230.378 122.834 230.438C122.834 230.498 122.774 230.618 122.774 230.678C122.714 230.738 122.654 230.798 122.594 230.858C122.534 230.918 122.474 230.919 122.414 230.979C122.234 230.919 122.174 230.919 122.114 230.919ZM118.69 217.155C118.57 217.155 118.449 217.095 118.389 217.034C118.269 216.974 118.209 216.854 118.209 216.734L116.527 209.822C116.527 209.762 116.467 209.642 116.527 209.582C116.527 209.522 116.527 209.401 116.587 209.341C116.648 209.281 116.707 209.221 116.768 209.161C116.828 209.101 116.948 209.041 117.008 209.041C117.128 209.041 117.188 209.041 117.248 209.041C117.308 209.041 117.428 209.101 117.488 209.161C117.548 209.221 117.608 209.281 117.668 209.341C117.729 209.401 117.729 209.522 117.729 209.582L119.411 216.433C119.471 216.614 119.411 216.734 119.351 216.914C119.29 217.035 119.17 217.155 118.99 217.215C118.87 217.155 118.81 217.155 118.69 217.155ZM115.266 203.391C115.146 203.391 115.026 203.331 114.966 203.211C114.845 203.15 114.785 203.03 114.785 202.91L113.104 196.058C113.104 195.998 113.104 195.878 113.104 195.818C113.104 195.758 113.164 195.637 113.164 195.577C113.224 195.517 113.284 195.457 113.344 195.397C113.404 195.337 113.464 195.337 113.524 195.277C113.584 195.277 113.704 195.277 113.764 195.277C113.824 195.277 113.945 195.337 114.005 195.337C114.065 195.397 114.125 195.457 114.185 195.517C114.245 195.577 114.245 195.638 114.305 195.758L115.987 202.67C116.047 202.85 115.987 202.97 115.927 203.151C115.867 203.271 115.746 203.391 115.566 203.451C115.446 203.391 115.386 203.391 115.266 203.391Z" fill="#5D3CF2"/>
<path d="M111.902 189.627C111.782 189.627 111.662 189.567 111.602 189.447C111.482 189.387 111.421 189.267 111.421 189.146L110.4 185.059L114.485 184.038C114.665 184.038 114.785 184.038 114.905 184.158C115.025 184.218 115.085 184.398 115.145 184.518C115.206 184.639 115.145 184.819 115.085 184.939C115.025 185.059 114.905 185.18 114.725 185.24L111.842 185.961L112.563 188.846C112.563 188.906 112.563 189.026 112.563 189.086C112.563 189.146 112.503 189.267 112.443 189.327C112.382 189.387 112.322 189.447 112.262 189.507C112.202 189.567 112.082 189.567 112.022 189.627C112.082 189.627 112.022 189.627 111.902 189.627Z" fill="#5D3CF2"/>
<path d="M35.9191 160.236C35.799 160.176 35.7387 160.056 35.6786 159.936C35.6185 159.816 35.6185 159.635 35.6786 159.515C35.7387 159.395 35.8588 159.275 35.9789 159.215C36.0991 159.155 36.2193 159.155 36.3995 159.155L39.3426 159.696L39.8832 156.75C39.8832 156.57 40.0035 156.45 40.1237 156.33C40.2438 156.209 40.4239 156.209 40.6041 156.209C40.7843 156.27 40.9045 156.33 41.0247 156.45C41.1448 156.57 41.1446 156.75 41.1446 156.931L40.424 161.018L36.2792 160.297C36.039 160.297 35.9792 160.236 35.9191 160.236Z" fill="#5D3CF2"/>
<path d="M48.773 108.427C48.6529 108.367 48.5929 108.247 48.5328 108.187C48.4728 108.067 48.4727 107.946 48.4727 107.826L49.0132 104.881L46.0701 104.34C45.9499 104.34 45.8899 104.28 45.8299 104.28C45.7698 104.22 45.7096 104.16 45.6495 104.1C45.5894 104.04 45.5295 103.98 45.5295 103.86C45.5295 103.799 45.5295 103.679 45.5295 103.619C45.5295 103.559 45.5894 103.439 45.6495 103.379C45.7096 103.319 45.7698 103.258 45.8299 103.198C45.8899 103.138 45.9499 103.138 46.0099 103.078C46.07 103.078 46.1901 103.078 46.2502 103.078L50.3348 103.799L49.6139 107.886C49.6139 108.067 49.4938 108.187 49.3737 108.307C49.2535 108.427 49.0732 108.427 48.893 108.427C48.893 108.487 48.8331 108.487 48.773 108.427Z" fill="#5D3CF2"/>
<path d="M41.3252 150.319C41.2051 150.259 41.1448 150.139 41.0847 150.079C41.0247 149.958 41.0249 149.838 41.0249 149.718L42.286 142.746C42.286 142.686 42.3462 142.566 42.4063 142.505C42.4664 142.445 42.5263 142.385 42.5864 142.325C42.6464 142.265 42.7668 142.265 42.8269 142.205C42.8869 142.205 43.007 142.205 43.0671 142.205C43.2473 142.265 43.3675 142.325 43.4275 142.445C43.5477 142.566 43.5475 142.746 43.5475 142.926L42.286 149.898C42.286 149.958 42.2262 150.079 42.2262 150.139C42.1661 150.199 42.1059 150.259 42.0458 150.319C41.9858 150.379 41.8657 150.379 41.8056 150.439C41.7456 150.439 41.6255 150.439 41.5654 150.439C41.4453 150.439 41.3853 150.379 41.3252 150.319ZM43.7877 136.375C43.6676 136.315 43.6075 136.195 43.5475 136.135C43.4874 136.014 43.4874 135.894 43.4874 135.774L44.7488 128.802C44.7488 128.742 44.8089 128.621 44.8089 128.561C44.869 128.501 44.9289 128.441 44.989 128.381C45.0491 128.321 45.1093 128.321 45.1694 128.261C45.2895 128.261 45.3495 128.261 45.4096 128.261C45.4696 128.261 45.5897 128.321 45.6498 128.321C45.7098 128.381 45.7701 128.441 45.8301 128.501C45.8902 128.561 45.89 128.622 45.9501 128.742C46.0102 128.862 45.9501 128.922 45.9501 128.982L44.7488 135.954C44.6887 136.135 44.6287 136.255 44.5086 136.375C44.3885 136.495 44.2084 136.495 44.0282 136.495C43.908 136.435 43.8477 136.435 43.7877 136.375ZM46.2504 122.431C46.1303 122.371 46.0703 122.251 46.0102 122.19C45.9502 122.07 45.9501 121.95 45.9501 121.83L47.2115 114.858C47.2115 114.798 47.2717 114.677 47.3318 114.617C47.3918 114.557 47.4518 114.497 47.5119 114.437C47.5719 114.377 47.692 114.377 47.7521 114.317C47.8121 114.257 47.9322 114.317 47.9923 114.317C48.1124 114.317 48.1727 114.377 48.2328 114.377C48.2928 114.437 48.3528 114.497 48.4128 114.557C48.4729 114.617 48.473 114.677 48.5331 114.798C48.5331 114.858 48.5331 114.978 48.5331 115.038L47.2717 122.01C47.2116 122.19 47.1516 122.311 47.0315 122.431C46.9113 122.551 46.731 122.551 46.5508 122.551C46.3706 122.491 46.3105 122.431 46.2504 122.431Z" fill="#5D3CF2"/>
<path d="M127.94 12.3223H19.8821C12.1937 12.3223 5.94678 18.5731 5.94678 26.2664V292.828C5.94678 300.521 12.1937 306.772 19.8821 306.772H127.94C135.688 306.772 141.875 300.521 141.875 292.828V26.2664C141.875 18.5731 135.628 12.3223 127.94 12.3223Z" fill="white"/>
<path d="M129.201 7.21191H18.5602C13.6348 7.21191 8.88975 9.19535 5.46602 12.6213C1.98222 16.1073 0 20.7954 0 25.724V293.968C0 298.896 1.98222 303.585 5.46602 307.071C8.94982 310.557 13.6348 312.48 18.5602 312.48H129.201C134.126 312.48 138.871 310.557 142.355 307.071C145.839 303.585 147.821 298.896 147.821 293.968V25.724C147.821 20.7954 145.839 16.1073 142.355 12.6213C138.871 9.13524 134.126 7.21191 129.201 7.21191ZM141.875 293.127C141.875 296.793 140.433 300.339 137.79 302.984C135.147 305.568 131.603 307.071 127.939 307.071H19.8817C16.1577 307.071 12.6139 305.628 10.0311 302.984C7.38817 300.399 5.94642 296.853 5.94642 293.127V26.5654C5.94642 22.899 7.44824 19.3529 10.0311 16.7084C12.6139 14.1239 16.1577 12.6213 19.8817 12.6213H33.5167C34.2375 12.6213 34.9581 12.9218 35.4386 13.4027C35.9192 13.8835 36.2197 14.6047 36.2197 15.326V16.528C36.2197 18.4514 37.0005 20.2544 38.322 21.5767C39.6434 22.899 41.5054 23.6803 43.4275 23.6803H104.334C105.295 23.6803 106.196 23.5001 107.097 23.1395C107.938 22.7788 108.779 22.2379 109.439 21.5767C110.1 20.9156 110.641 20.1343 111.001 19.2327C111.362 18.3913 111.542 17.4295 111.542 16.4679V15.326C111.542 14.6047 111.842 13.9436 112.322 13.4027C112.803 12.9218 113.524 12.6213 114.245 12.6213H127.879C131.603 12.6213 135.148 14.0638 137.73 16.7084C140.373 19.2928 141.815 22.8389 141.815 26.5654V293.127H141.875Z" fill="url(#paint1_linear_1_1365)"/>
<path d="M5.94678 26.5662V60.4648H141.875V26.5662C141.875 22.8998 140.433 19.3537 137.791 16.7092C135.148 14.1247 131.604 12.6221 127.94 12.6221H114.305C113.584 12.6221 112.924 12.9226 112.383 13.4035C111.902 13.8843 111.602 14.6055 111.602 15.3268V16.5288C111.602 17.4905 111.422 18.392 111.061 19.2935C110.701 20.135 110.161 20.9765 109.5 21.6377C108.839 22.2988 108.058 22.8397 107.157 23.2003C106.316 23.5609 105.355 23.7413 104.394 23.7413H43.4877C41.5656 23.7413 39.7636 22.96 38.3821 21.6377C37.0006 20.3154 36.2799 18.4521 36.2799 16.5888V15.4469C36.2799 14.7257 35.9796 14.0646 35.4991 13.5236C35.0186 13.0428 34.2977 12.7422 33.5769 12.7422H19.8821C16.158 12.7422 12.6743 14.1848 10.0314 16.8293C7.44859 19.3537 5.94678 22.8998 5.94678 26.5662Z" fill="#EFECF3"/>
<path d="M94.0018 38.9473H50.6347C48.6525 38.9473 47.0308 40.5701 47.0308 42.5535C47.0308 44.5369 48.6525 46.1597 50.6347 46.1597H94.0018C95.984 46.1597 97.6057 44.5369 97.6057 42.5535C97.6057 40.5701 95.984 38.9473 94.0018 38.9473Z" fill="#D5D2DC"/>
<path d="M121.453 49.5849C125.357 49.5849 128.541 46.3995 128.541 42.5528C128.541 38.646 125.417 35.5205 121.453 35.5205C117.549 35.5205 114.365 38.7061 114.365 42.5528C114.425 46.4596 117.549 49.5849 121.453 49.5849Z" fill="white"/>
<path d="M120.611 40.1494L123.013 42.5536L120.611 44.9577" stroke="#FD5631" stroke-width="0.917" stroke-linecap="round" stroke-linejoin="round"/>
<path d="M22.4048 49.5849C26.3091 49.5849 29.4924 46.3995 29.4924 42.5528C29.4924 38.646 26.3091 35.5205 22.4048 35.5205C18.5005 35.5205 15.3169 38.7061 15.3169 42.5528C15.3169 46.4596 18.5005 49.5849 22.4048 49.5849Z" fill="white"/>
<path d="M23.2451 40.1494L20.8425 42.5536L23.2451 44.9577" stroke="#FD5631" stroke-width="0.917" stroke-linecap="round" stroke-linejoin="round"/>
<path d="M126.799 133.912H36.641C35.2595 133.912 34.1782 134.993 34.1782 136.376V152.063C34.1782 153.445 35.3195 154.527 36.641 154.527H126.799C128.181 154.527 129.262 153.445 129.262 152.063V136.376C129.262 135.054 128.181 133.912 126.799 133.912Z" fill="#FFCBCE"/>
<path d="M29.3722 127.78H17.5996C16.3382 127.78 15.3169 128.802 15.3169 130.064C15.3169 131.326 16.3382 132.348 17.5996 132.348H29.3722C30.6335 132.348 31.6548 131.326 31.6548 130.064C31.6548 128.802 30.6335 127.78 29.3722 127.78Z" fill="#EFECF3"/>
<path d="M36.641 154.588H39.6442V133.973H36.641C35.9802 133.973 35.3796 134.213 34.8991 134.694C34.4186 135.175 34.1782 135.776 34.1782 136.437V152.064C34.1782 152.365 34.2385 152.725 34.3586 153.026C34.4787 153.326 34.6589 153.627 34.8991 153.867C35.1394 154.108 35.3796 154.288 35.74 154.408C35.9802 154.468 36.3406 154.588 36.641 154.588Z" fill="#F23C49"/>
<path d="M126.799 218.537H36.641C35.2595 218.537 34.1782 219.619 34.1782 221.001V236.689C34.1782 238.071 35.3195 239.153 36.641 239.153H126.799C128.181 239.153 129.262 238.071 129.262 236.689V221.001C129.262 219.679 128.181 218.537 126.799 218.537Z" fill="#FDBC31" fill-opacity="0.2"/>
<path d="M29.3722 212.407H17.5996C16.3382 212.407 15.3169 213.429 15.3169 214.691C15.3169 215.953 16.3382 216.975 17.5996 216.975H29.3722C30.6335 216.975 31.6548 215.953 31.6548 214.691C31.6548 213.429 30.6335 212.407 29.3722 212.407Z" fill="#EFECF3"/>
<path d="M36.641 239.153H39.6442V218.477H36.641C35.9802 218.477 35.3796 218.717 34.8991 219.198C34.4186 219.679 34.1782 220.28 34.1782 220.941V236.628C34.1782 236.989 34.2385 237.29 34.3586 237.59C34.4787 237.891 34.6589 238.191 34.8991 238.432C35.1394 238.672 35.3796 238.852 35.74 238.972C35.9802 239.093 36.2806 239.153 36.641 239.153Z" fill="#FDBC31"/>
<path d="M126.799 83.0029H36.641C35.2595 83.0029 34.1782 84.0849 34.1782 85.4673V118.404C34.1782 119.787 35.3195 120.868 36.641 120.868H126.799C128.181 120.868 129.262 119.787 129.262 118.404V85.4673C129.262 84.0849 128.181 83.0029 126.799 83.0029Z" fill="#F5F4F8"/>
<path d="M29.3722 76.8721H17.5996C16.3382 76.8721 15.3169 77.8939 15.3169 79.1561C15.3169 80.4182 16.3382 81.44 17.5996 81.44H29.3722C30.6335 81.44 31.6548 80.4182 31.6548 79.1561C31.6548 77.8939 30.6335 76.8721 29.3722 76.8721Z" fill="#EFECF3"/>
<path d="M36.641 120.868H39.6442V83.0029H36.641C35.9802 83.0029 35.3796 83.2435 34.8991 83.7243C34.4186 84.2051 34.1782 84.8061 34.1782 85.4673V118.404C34.1782 118.705 34.2385 119.065 34.3586 119.366C34.4787 119.666 34.6589 119.967 34.8991 120.207C35.1394 120.448 35.3795 120.628 35.6799 120.748C35.9802 120.808 36.3406 120.868 36.641 120.868Z" fill="#FD5631"/>
<path d="M29.3722 163.842H17.5996C16.3382 163.842 15.3169 164.864 15.3169 166.126C15.3169 167.388 16.3382 168.41 17.5996 168.41H29.3722C30.6335 168.41 31.6548 167.388 31.6548 166.126C31.6548 164.924 30.6335 163.842 29.3722 163.842Z" fill="#EFECF3"/>
<path d="M126.799 170.034H36.641C35.2595 170.034 34.1782 171.116 34.1782 172.499V200.627C34.1782 202.01 35.3195 203.091 36.641 203.091H126.799C128.181 203.091 129.262 202.01 129.262 200.627V172.499C129.262 171.116 128.181 170.034 126.799 170.034Z" fill="#F5F4F8"/>
<path d="M36.641 203.091H39.6442V169.974H36.641C35.9802 169.974 35.3796 170.214 34.8991 170.695C34.4186 171.176 34.1782 171.777 34.1782 172.438V200.567C34.1782 200.867 34.2385 201.228 34.3586 201.528C34.4787 201.829 34.6589 202.129 34.8991 202.37C35.1394 202.61 35.3796 202.79 35.74 202.911C35.9802 203.031 36.3406 203.091 36.641 203.091Z" fill="#FD5631"/>
<path d="M43.0057 94.8433C42.9457 94.8433 42.8855 94.8433 42.8855 94.8433C42.8254 94.8433 42.7655 94.7831 42.7655 94.7831C42.7054 94.723 42.7054 94.7231 42.7054 94.663C42.7054 94.6028 42.6453 94.5428 42.6453 94.5428C42.6453 94.4827 42.6453 94.4224 42.7054 94.4224C42.9457 93.7613 43.3062 93.1003 43.7266 92.4391C43.7867 92.379 43.8467 92.3189 43.9668 92.2588C44.087 92.2588 44.147 92.2587 44.2672 92.3188C44.3272 92.3789 44.3872 92.4391 44.4472 92.5593C44.4472 92.6795 44.4472 92.7396 44.3871 92.8598C44.0267 93.4008 43.6666 94.0619 43.4263 94.663C43.4263 94.7231 43.3661 94.7831 43.306 94.7831C43.1859 94.8432 43.1258 94.8433 43.0057 94.8433Z" fill="#5D3CF2"/>
<path d="M101.45 114.377C101.39 114.377 101.33 114.377 101.33 114.377L100.85 114.197C99.6482 113.776 98.4472 113.355 97.1858 112.935C97.1257 112.875 97.0054 112.814 97.0054 112.754C96.9453 112.694 96.9453 112.574 97.0054 112.454C97.0054 112.334 97.1257 112.274 97.1858 112.274C97.2458 112.213 97.3659 112.213 97.426 112.274C98.6874 112.754 99.8887 113.115 101.09 113.536L101.57 113.716C101.631 113.716 101.631 113.776 101.691 113.776C101.751 113.836 101.751 113.836 101.811 113.896C101.811 113.956 101.871 114.017 101.871 114.017C101.871 114.077 101.871 114.137 101.871 114.137C101.871 114.197 101.811 114.257 101.751 114.317C101.57 114.377 101.51 114.377 101.45 114.377ZM93.2815 111.312C93.2215 111.312 93.1612 111.312 93.1012 111.312C91.7797 110.711 90.4583 109.99 89.1969 109.208C89.1368 109.208 89.137 109.148 89.0769 109.088C89.0769 109.028 89.0168 109.028 89.0168 108.968C89.0168 108.908 89.0168 108.848 89.0168 108.848C89.0168 108.787 89.0769 108.727 89.0769 108.727C89.137 108.667 89.197 108.607 89.3171 108.547C89.4373 108.547 89.4973 108.547 89.6175 108.607C90.8188 109.389 92.08 110.11 93.4015 110.711C93.5216 110.771 93.5819 110.831 93.5819 110.891C93.6419 110.951 93.6419 111.071 93.5819 111.192C93.5218 111.252 93.5217 111.312 93.4616 111.312C93.4015 111.312 93.2815 111.312 93.2815 111.312ZM85.8933 106.564C85.8332 106.564 85.7733 106.564 85.7132 106.564C85.6532 106.564 85.653 106.504 85.593 106.504C84.4517 105.482 83.4907 104.4 82.6498 103.138C82.5898 103.078 82.5897 103.078 82.5897 103.017C82.5897 102.957 82.5897 102.897 82.5897 102.837C82.5897 102.777 82.5898 102.717 82.6498 102.717C82.6498 102.657 82.71 102.657 82.7701 102.597C82.8301 102.537 82.8901 102.537 82.9501 102.537C83.0102 102.537 83.0702 102.537 83.1302 102.537C83.1903 102.537 83.2505 102.597 83.3106 102.597C83.3707 102.657 83.3705 102.657 83.4306 102.717C84.2715 103.919 85.2326 105.001 86.2537 106.023C86.3138 106.083 86.374 106.143 86.374 106.203C86.374 106.263 86.374 106.323 86.374 106.383C86.3139 106.443 86.3138 106.504 86.2537 106.564C86.0135 106.564 85.9534 106.564 85.8933 106.564ZM80.8479 99.4112C80.7878 99.4112 80.7278 99.4113 80.6678 99.3512C80.6077 99.2911 80.5475 99.231 80.5475 99.1709C79.9469 97.7885 79.5264 96.3459 79.2861 94.9034C79.2861 94.7832 79.2862 94.7231 79.3462 94.6029C79.4063 94.5428 79.4663 94.4827 79.5864 94.4226C79.6465 94.4226 79.7067 94.4226 79.7668 94.4226C79.8269 94.4226 79.8867 94.4827 79.8867 94.4827C79.9468 94.4827 79.9469 94.5428 80.007 94.6029C80.007 94.663 80.0671 94.663 80.0671 94.7231C80.3074 96.1055 80.7278 97.4879 81.2684 98.8102C81.2684 98.8703 81.3283 98.9304 81.3283 98.9304C81.3283 98.9304 81.3285 99.0507 81.2684 99.0507C81.2684 99.1108 81.2083 99.1108 81.2083 99.1709C81.2083 99.231 81.1481 99.2309 81.0881 99.2309L80.8479 99.4112ZM83.0704 94.6631C82.2295 94.7232 81.4486 94.663 80.6077 94.6029C80.5476 94.6029 80.4874 94.603 80.4874 94.5429C80.4273 94.5429 80.4275 94.4827 80.3675 94.4226C80.3074 94.3625 80.3073 94.2423 80.3073 94.1822C80.3073 94.062 80.3672 94.002 80.4273 93.9419C80.4873 93.8818 80.6077 93.8817 80.6678 93.8817C81.4486 93.9418 82.2294 94.002 83.0103 93.9419C83.671 93.8818 84.2715 93.8216 84.9322 93.7615C84.9923 93.7615 85.0524 93.7615 85.0524 93.7615C85.1125 93.7615 85.1727 93.7614 85.1727 93.8215C85.2328 93.8215 85.2326 93.8818 85.2926 93.9419C85.2926 94.002 85.3528 94.0019 85.3528 94.062C85.3528 94.1221 85.3528 94.1822 85.3528 94.1822C85.3528 94.2423 85.2926 94.3024 85.2926 94.3024C85.2326 94.3625 85.2328 94.3625 85.1727 94.4226C85.1126 94.4226 85.1125 94.4827 85.0524 94.4827C84.3917 94.5428 83.7311 94.603 83.0704 94.6631ZM76.3429 93.6413C76.2829 93.6413 76.2227 93.6413 76.2227 93.6413C74.7811 93.2206 73.3997 92.6796 72.0782 92.0786C72.0182 92.0786 71.9583 92.0184 71.9583 92.0184C71.8982 91.9583 71.8981 91.9583 71.838 91.8982C71.838 91.8381 71.838 91.7781 71.838 91.7781C71.838 91.718 71.838 91.6579 71.838 91.6579C71.838 91.5978 71.8982 91.5978 71.9583 91.5377C71.9583 91.4776 72.0182 91.4775 72.0782 91.4775C72.1383 91.4775 72.1985 91.4775 72.1985 91.4775C72.2586 91.4775 72.3185 91.4775 72.3786 91.4775C74.0003 92.1387 75.2619 92.6195 76.4632 92.9801C76.5233 92.9801 76.5831 93.0403 76.5831 93.0403C76.6432 93.0403 76.6433 93.1004 76.6433 93.1605C76.7033 93.2206 76.7034 93.2206 76.7034 93.2807C76.7034 93.3408 76.7033 93.4008 76.6433 93.4008C76.6433 93.4609 76.5831 93.5211 76.523 93.5812C76.463 93.6413 76.403 93.6413 76.3429 93.6413ZM89.1368 92.92C89.0767 92.92 89.0168 92.9201 88.9567 92.86C88.8966 92.7999 88.8367 92.7999 88.7766 92.7398C88.7166 92.6797 88.7165 92.5595 88.7165 92.4393C88.7165 92.3191 88.7764 92.2589 88.8966 92.1988C89.5573 91.8381 90.0979 91.3573 90.6985 90.8163C91.1791 90.3355 91.5394 89.7947 91.8397 89.2537C91.8998 89.1936 91.96 89.1335 92.0201 89.0734C92.1402 89.0734 92.2003 89.0734 92.3204 89.0734C92.3805 89.1335 92.5005 89.1935 92.5005 89.3137C92.5606 89.4339 92.5005 89.494 92.5005 89.6143C92.1401 90.2754 91.7198 90.8164 91.1792 91.3574C90.6386 91.9584 89.9778 92.4392 89.257 92.86C89.257 92.9201 89.1968 92.92 89.1368 92.92ZM79.2861 90.8163C79.226 90.8163 79.1661 90.8164 79.1661 90.7563C79.1061 90.7563 79.0459 90.6962 79.0459 90.6962C78.9858 90.6361 78.9858 90.6361 78.9858 90.576C78.9858 90.5159 78.9858 90.4558 78.9858 90.4558C79.1059 88.9532 79.4665 87.4506 80.0671 86.0682C80.1272 86.0081 80.1871 85.8878 80.2472 85.8878C80.3073 85.8878 80.4274 85.8277 80.5475 85.8878C80.6076 85.9479 80.7276 86.0081 80.7276 86.0682C80.7877 86.1884 80.7276 86.2485 80.7276 86.3687C80.187 87.691 79.8268 89.0734 79.7067 90.4558C79.7067 90.576 79.7066 90.6361 79.5864 90.6962C79.5264 90.7563 79.4062 90.8163 79.2861 90.8163ZM68.1139 90.3956H67.9338L66.4923 89.7946C65.5913 89.434 64.6904 89.0734 63.8494 88.833C63.7894 88.833 63.7893 88.7729 63.7292 88.7729C63.6691 88.7128 63.669 88.7128 63.6089 88.6527C63.6089 88.5926 63.5491 88.5926 63.5491 88.5325C63.5491 88.4724 63.5491 88.4122 63.5491 88.4122C63.5491 88.3521 63.6089 88.3521 63.6089 88.292C63.6089 88.2319 63.6691 88.232 63.7292 88.232C63.7893 88.232 63.7894 88.1718 63.8494 88.1718C63.9095 88.1718 63.9694 88.1718 63.9694 88.1718C64.8704 88.4723 65.7113 88.7728 66.6723 89.1936L68.1139 89.7946C68.1739 89.7946 68.174 89.8548 68.2341 89.8548C68.2341 89.9149 68.2942 89.9148 68.2942 89.9749C68.2942 90.035 68.2942 90.0951 68.2942 90.0951V90.2153C68.2342 90.2754 68.234 90.3356 68.174 90.3356C68.2941 90.3356 68.234 90.3956 68.1139 90.3956ZM47.0311 89.8548C46.971 89.8548 46.8507 89.8547 46.8507 89.7946C46.7907 89.7345 46.7307 89.6744 46.6707 89.6143C46.6707 89.5541 46.6707 89.434 46.6707 89.3739C46.7307 89.3138 46.7306 89.2537 46.8507 89.1936C48.1121 88.3521 49.4938 87.691 50.9354 87.2703C50.9954 87.2703 51.0553 87.2703 51.0553 87.2703C51.1154 87.2703 51.1756 87.2703 51.2357 87.3304C51.2958 87.3304 51.2956 87.3904 51.3556 87.3904C51.3556 87.4505 51.4158 87.4505 51.4158 87.5106C51.4158 87.5707 51.4758 87.6309 51.4158 87.6309C51.4158 87.691 51.4157 87.7511 51.3556 87.7511C51.3556 87.8112 51.2958 87.8112 51.2357 87.8713C51.1756 87.9314 51.1755 87.9315 51.1154 87.9315C49.7339 88.3522 48.4126 88.9531 47.2713 89.7946C47.2713 89.8547 47.1512 89.8548 47.0311 89.8548ZM59.7648 87.691H59.6449C58.2033 87.4505 56.7616 87.2703 55.32 87.3304C55.26 87.3304 55.2 87.3304 55.1399 87.3304C55.0799 87.3304 55.0798 87.2703 55.0197 87.2703C54.9596 87.2102 54.9596 87.2102 54.9596 87.1501C54.9596 87.09 54.8994 87.09 54.8994 87.0299C54.8994 86.9097 54.9596 86.8495 55.0197 86.7894C55.0798 86.7293 55.1998 86.6692 55.2599 86.6692C56.7615 86.6692 58.2631 86.7895 59.7047 87.0299C59.7648 87.0299 59.8249 87.0298 59.8249 87.0899C59.885 87.0899 59.8851 87.15 59.9452 87.2101C60.0052 87.2702 60.005 87.2703 60.005 87.3304C60.005 87.3905 60.005 87.4506 60.005 87.4506C60.005 87.5107 59.9451 87.5708 59.8851 87.6309C59.9451 87.6309 59.8849 87.691 59.7648 87.691ZM93.1613 85.6475C93.0411 85.6475 92.9811 85.6475 92.9211 85.5273C92.861 85.4672 92.8008 85.3469 92.8008 85.2868C92.7408 84.1448 92.2604 83.0629 91.4194 82.2816C91.2392 82.1013 91.0591 81.9811 90.8789 81.8609C90.8188 81.8008 90.7587 81.7407 90.7587 81.6205C90.7587 81.5604 90.7587 81.4401 90.8188 81.38C90.8788 81.3199 90.9389 81.2599 91.059 81.2599C91.1191 81.2599 91.2391 81.2599 91.2992 81.2599C91.5395 81.4402 91.7197 81.5604 91.8998 81.7407C92.8609 82.6423 93.4016 83.9045 93.5217 85.2268C93.5217 85.347 93.4615 85.407 93.4015 85.4671C93.4015 85.5873 93.2814 85.6475 93.1613 85.6475ZM82.9501 83.063C82.8901 83.063 82.8301 83.0629 82.7701 83.0028C82.71 83.0028 82.6498 82.9427 82.6498 82.8826C82.5898 82.8225 82.5897 82.8226 82.5897 82.7625C82.5897 82.7024 82.5897 82.6423 82.5897 82.6423C82.5897 82.5822 82.5898 82.5221 82.6498 82.5221C82.6498 82.462 82.71 82.4619 82.7701 82.4018C83.9113 81.4401 85.3528 80.719 86.8544 80.4185C86.9745 80.4185 87.0345 80.4184 87.0946 80.4785C87.2147 80.5386 87.2149 80.5988 87.275 80.719C87.275 80.8392 87.2749 80.8993 87.2149 81.0195C87.1548 81.1397 87.0948 81.1397 86.9747 81.1397C85.5931 81.4402 84.2715 82.0412 83.1903 82.9428C83.0702 83.0029 83.0102 83.0029 82.9501 83.063Z" fill="#5D3CF2"/>
<path d="M107.517 117.022C107.397 117.022 107.337 117.022 107.277 116.962C106.736 116.542 106.136 116.181 105.535 115.941C105.475 115.88 105.355 115.82 105.355 115.76C105.355 115.7 105.355 115.58 105.355 115.46C105.415 115.4 105.475 115.279 105.535 115.279C105.595 115.219 105.715 115.219 105.775 115.279C106.496 115.58 107.097 115.941 107.698 116.421C107.698 116.481 107.757 116.481 107.757 116.542C107.757 116.602 107.757 116.662 107.757 116.662C107.757 116.722 107.757 116.782 107.757 116.782C107.757 116.842 107.698 116.842 107.698 116.902C107.637 116.962 107.577 116.962 107.517 117.022Z" fill="#5D3CF2"/>
<path d="M105.173 108.247C104.933 108.187 104.693 108.187 104.452 108.247C104.212 108.367 104.032 108.488 103.972 108.728L95.4426 124.896C95.6228 124.956 95.8033 125.016 95.9835 125.016C96.1636 125.016 96.3438 125.016 96.524 124.896L121.871 114.498C122.052 114.438 122.232 114.318 122.352 114.198C122.472 114.077 122.592 113.897 122.652 113.717L105.173 108.247Z" fill="#5D3CF2" fill-opacity="0.5"/>
<path d="M105.474 112.394C105.715 112.454 105.955 112.454 106.135 112.334C106.315 112.274 106.555 112.093 106.615 111.913L115.385 96.5263H115.265H115.205C115.145 96.5263 115.025 96.5263 114.965 96.5263H115.085C114.845 96.4662 114.604 96.5264 114.424 96.5865L89.0766 106.985C88.7762 107.105 88.5359 107.345 88.4158 107.646L105.474 112.394Z" fill="white"/>
<path d="M102.532 111.552L88.4166 107.585C88.3565 107.646 88.3565 107.706 88.3565 107.706C88.2363 108.006 88.2363 108.367 88.3565 108.667L94.7235 124.174C94.8436 124.475 95.0839 124.775 95.3842 124.895L102.532 111.552Z" fill="#EFECF3"/>
<path d="M122.474 114.018C122.414 114.078 122.354 114.138 122.294 114.198C122.414 114.198 122.474 114.078 122.474 114.018Z" fill="#EFECF3"/>
<path d="M115.386 96.4658L108.118 109.208L122.594 113.716C122.594 113.776 122.534 113.896 122.474 113.956C122.594 113.776 122.654 113.535 122.654 113.355C122.654 113.115 122.654 112.934 122.534 112.754L116.167 97.3072C116.107 97.1269 115.987 96.9466 115.867 96.8264C115.806 96.646 115.566 96.5259 115.386 96.4658Z" fill="#EFECF3"/>
<path d="M115.505 96.5258L115.385 96.4658L115.505 96.5258Z" fill="#EFECF3"/>
<path d="M80.1267 218.537C80.427 221.663 81.8688 224.548 84.2113 226.651C86.5539 228.755 89.5572 229.897 92.6806 229.897C95.804 229.897 98.8071 228.755 101.15 226.651C103.492 224.548 104.934 221.663 105.234 218.537H80.1267Z" fill="#FDBC31"/>
<path d="M94.5437 179.649H51.1164C49.855 179.649 48.7739 180.671 48.7739 181.933C48.7739 183.196 49.795 184.217 51.1164 184.217H94.5437C95.805 184.217 96.8864 183.196 96.8864 181.933C96.8264 180.671 95.805 179.649 94.5437 179.649Z" fill="#D5D2DC"/>
<path d="M76.2838 188.907H51.1164C49.855 188.907 48.7739 189.928 48.7739 191.191C48.7739 192.453 49.795 193.475 51.1164 193.475H76.2838C77.5452 193.475 78.6263 192.453 78.6263 191.191C78.5662 189.928 77.5452 188.907 76.2838 188.907Z" fill="#D5D2DC"/>
<path d="M66.8526 149.178H62.4075C60.966 149.178 59.5845 148.637 58.5033 147.615C57.4221 146.594 56.8215 145.271 56.7013 143.829L55.9807 130.726C55.9807 130.606 55.9808 130.486 56.0408 130.366C56.1009 130.245 56.1609 130.185 56.2209 130.065C56.341 130.005 56.4011 129.885 56.5212 129.885C56.6414 129.825 56.7616 129.825 56.8817 129.825H72.4386C72.5587 129.825 72.6789 129.825 72.7389 129.885C72.8591 129.945 72.9191 130.005 73.0392 130.065C73.0993 130.125 73.1593 130.245 73.2193 130.366C73.2794 130.486 73.2794 130.606 73.2794 130.726L72.5588 143.829C72.4988 145.271 71.8378 146.654 70.8167 147.615C69.6755 148.577 68.2341 149.178 66.8526 149.178Z" fill="#F23C49"/>
<path d="M73.0407 132.77L72.9205 134.753C73.8815 134.933 74.7227 135.474 75.2633 136.256C75.8639 137.037 76.1041 137.999 76.1041 138.96C76.0441 139.922 75.6237 140.824 74.9629 141.545C74.3022 142.266 73.4011 142.687 72.4401 142.747L72.3198 144.73C73.8215 144.67 75.2631 144.069 76.2842 143.047C77.3654 142.026 78.0261 140.583 78.0862 139.08C78.1462 137.578 77.6659 136.135 76.7649 134.933C75.8639 133.791 74.5424 133.01 73.0407 132.77Z" fill="#F23C49"/>
<path d="M65.7716 126.759C65.7716 126.759 61.9874 123.273 62.1075 120.688C62.2877 116.722 65.8316 115.219 64.5101 111.552C63.8494 109.809 61.2065 104.1 61.2065 104.1C61.2065 104.1 65.5916 108.427 67.1533 111.132C68.5348 113.596 68.3546 117.383 66.8529 119.246C63.4893 123.213 65.7716 126.759 65.7716 126.759Z" fill="#D5D2DC"/>
<path d="M77.0043 221.662C75.5027 221.662 74.1212 222.082 72.7998 222.864C71.5384 223.585 70.4572 224.667 69.7364 225.929C69.1958 227.011 69.0155 228.273 69.3158 229.475C69.4359 229.896 69.9767 231.819 70.7576 231.098C72.6797 229.295 74.9019 227.792 77.4246 226.83C78.6259 226.35 78.506 221.722 77.0043 221.662Z" fill="#FDBC31"/>
<path d="M83.7905 229.958C82.2288 232.362 81.0276 235.007 80.3068 237.772C80.0065 239.034 80.1266 240.417 80.6071 241.619C80.9075 242.28 81.6281 242.941 82.2287 242.099C82.9495 240.897 83.4301 239.575 83.8506 238.193C84.3311 236.87 84.8717 235.608 85.2921 234.226C85.7126 233.024 85.7126 231.762 85.2921 230.62C85.0519 230.079 84.3911 228.997 83.7905 229.958Z" fill="#FDBC31"/>
<path d="M106.076 229.416C108.178 231.4 110.1 233.443 112.262 235.307C113.224 236.148 113.704 234.886 113.824 234.044C114.004 232.902 113.884 230.739 112.923 229.957C110.941 228.094 108.779 226.351 106.677 224.548C105.776 223.767 105.355 224.909 105.295 225.69C105.175 226.712 105.235 228.635 106.076 229.416Z" fill="#FDBC31"/>
<path d="M94.7232 233.443C94.6031 236.328 95.5039 239.513 96.3448 242.338C96.6452 243.24 97.4861 244.923 98.4471 243.601C99.4082 242.278 99.2281 240.114 98.8677 238.612C98.5674 237.41 98.147 236.208 97.7866 235.066C97.4262 233.864 97.1859 232.301 96.1647 231.399C95.2037 230.498 94.7833 233.142 94.7232 233.443Z" fill="#FDBC31"/>
</g>
</g>
<defs>
<filter id="filter0_dd_1_1365" x="90.5469" y="22.3276" width="164.978" height="306.615" filterUnits="userSpaceOnUse" color-interpolation-filters="sRGB">
<feFlood flood-opacity="0" result="BackgroundImageFix"/>
<feColorMatrix in="SourceAlpha" type="matrix" values="0 0 0 0 0 0 0 0 0 0 0 0 0 0 0 0 0 0 127 0" result="hardAlpha"/>
<feOffset dy="8"/>
<feGaussianBlur stdDeviation="8"/>
<feColorMatrix type="matrix" values="0 0 0 0 0.121569 0 0 0 0 0.105882 0 0 0 0 0.176471 0 0 0 0.16 0"/>
<feBlend mode="normal" in2="BackgroundImageFix" result="effect1_dropShadow_1_1365"/>
<feColorMatrix in="SourceAlpha" type="matrix" values="0 0 0 0 0 0 0 0 0 0 0 0 0 0 0 0 0 0 127 0" result="hardAlpha"/>
<feMorphology radius="6" operator="erode" in="SourceAlpha" result="effect2_dropShadow_1_1365"/>
<feOffset dy="4"/>
<feGaussianBlur stdDeviation="6"/>
<feColorMatrix type="matrix" values="0 0 0 0 0.121569 0 0 0 0 0.105882 0 0 0 0 0.176471 0 0 0 0.2 0"/>
<feBlend mode="normal" in2="effect1_dropShadow_1_1365" result="effect2_dropShadow_1_1365"/>
<feBlend mode="normal" in="SourceGraphic" in2="effect2_dropShadow_1_1365" result="shape"/>
</filter>
<filter id="filter1_dd_1_1365" x="-16" y="-0.788086" width="179.821" height="337.268" filterUnits="userSpaceOnUse" color-interpolation-filters="sRGB">
<feFlood flood-opacity="0" result="BackgroundImageFix"/>
<feColorMatrix in="SourceAlpha" type="matrix" values="0 0 0 0 0 0 0 0 0 0 0 0 0 0 0 0 0 0 127 0" result="hardAlpha"/>
<feOffset dy="8"/>
<feGaussianBlur stdDeviation="8"/>
<feColorMatrix type="matrix" values="0 0 0 0 0.121569 0 0 0 0 0.105882 0 0 0 0 0.176471 0 0 0 0.16 0"/>
<feBlend mode="normal" in2="BackgroundImageFix" result="effect1_dropShadow_1_1365"/>
<feColorMatrix in="SourceAlpha" type="matrix" values="0 0 0 0 0 0 0 0 0 0 0 0 0 0 0 0 0 0 127 0" result="hardAlpha"/>
<feMorphology radius="6" operator="erode" in="SourceAlpha" result="effect2_dropShadow_1_1365"/>
<feOffset dy="4"/>
<feGaussianBlur stdDeviation="6"/>
<feColorMatrix type="matrix" values="0 0 0 0 0.121569 0 0 0 0 0.105882 0 0 0 0 0.176471 0 0 0 0.2 0"/>
<feBlend mode="normal" in2="effect1_dropShadow_1_1365" result="effect2_dropShadow_1_1365"/>
<feBlend mode="normal" in="SourceGraphic" in2="effect2_dropShadow_1_1365" result="shape"/>
</filter>
<linearGradient id="paint0_linear_1_1365" x1="106.547" y1="198.359" x2="287" y2="5.99953" gradientUnits="userSpaceOnUse">
<stop stop-color="#454056"/>
<stop offset="1" stop-color="#8D8A97"/>
</linearGradient>
<linearGradient id="paint1_linear_1_1365" x1="7.0711e-06" y1="193.999" x2="148" y2="20.999" gradientUnits="userSpaceOnUse">
<stop stop-color="#454056"/>
<stop offset="1" stop-color="#8D8A97"/>
</linearGradient>
<clipPath id="clip0_1_1365">
<rect width="241" height="238" fill="white"/>
</clipPath>
</defs>
</svg>
