<svg width="40" height="42" viewBox="0 0 40 42" fill="none" xmlns="http://www.w3.org/2000/svg">
<path d="M20 1.18872C9.20002 1.18872 0.400024 9.9057 0.400024 20.6434C0.400024 24.051 1.32002 27.4189 3.04002 30.351L3.12002 30.4699L1.36002 36.4132C1.12002 37.1661 1.36002 37.9982 1.92002 38.5529C2.48002 39.1076 3.32002 39.3453 4.08002 39.1076L10.16 37.4038L10.28 37.4831C13.24 39.1472 16.6 40.0585 20.04 40.0585C30.84 40.0585 39.64 31.3416 39.64 20.6434C39.64 9.94532 30.8 1.18872 20 1.18872ZM20 38.5529C16.68 38.5529 13.44 37.6416 10.64 35.9774L10.36 35.8189L3.64002 37.6812C3.40002 37.7604 3.12002 37.6812 2.96002 37.5227C2.80002 37.3246 2.72002 37.0868 2.80002 36.8491L4.72002 30.2717L4.56002 29.9944C2.84002 27.1812 1.92002 23.9717 1.92002 20.6434C1.92002 10.7378 10.04 2.69438 20 2.69438C29.96 2.69438 38.08 10.7378 38.08 20.6038C38.08 30.5095 29.96 38.5529 20 38.5529Z" fill="#454056"/>
<path d="M27.2799 17.4736L27.5199 19.8113C27.5599 20.2472 27.9599 20.5641 28.3999 20.5245C28.5999 20.4849 28.7999 20.4057 28.9199 20.2472C29.0399 20.0887 29.1199 19.8906 29.0799 19.6528L28.5999 15.2151C28.5599 14.7792 28.1599 14.4623 27.7199 14.5019L23.0399 15.017C22.8399 15.0566 22.6399 15.1358 22.4799 15.2943C22.3599 15.4528 22.2799 15.6509 22.3199 15.8887C22.3599 16.0868 22.4399 16.2849 22.5999 16.4434C22.7599 16.5623 22.9599 16.6415 23.1999 16.6019L26.1599 16.2849L20.9199 22.5849L17.4399 19.1774C17.2799 19.0189 17.0799 18.9396 16.8799 18.9396H16.8399C16.5999 18.9396 16.3999 19.0585 16.2799 19.217L10.8799 25.3189C10.7199 25.4774 10.6799 25.6755 10.6799 25.9132C10.6799 26.1113 10.7999 26.3094 10.9599 26.4679C11.2799 26.7453 11.7999 26.7057 12.0799 26.3887L16.8799 20.9604L20.3999 24.3679C20.5599 24.5264 20.7999 24.6057 20.9999 24.6057C21.2399 24.6057 21.4399 24.4868 21.5599 24.3283L27.2799 17.4736Z" fill="#454056"/>
</svg>
