<svg width="40" height="42" viewBox="0 0 40 42" fill="none" xmlns="http://www.w3.org/2000/svg">
<path d="M23.88 18.0283C24.2 18.0283 24.48 17.751 24.48 17.434V13.9472C24.48 13.6302 24.2 13.3529 23.88 13.3529H20.64V11.6095C20.64 11.2925 20.36 11.0151 20.04 11.0151C19.72 11.0151 19.44 11.2925 19.44 11.6095V13.3529H16.16C15.84 13.3529 15.56 13.6302 15.56 13.9472V20.5246C15.56 20.8416 15.84 21.1189 16.16 21.1189H23.28V25.1208H16.76V23.3774C16.76 23.0604 16.48 22.7831 16.16 22.7831C15.84 22.7831 15.56 23.0604 15.56 23.3774V25.7151C15.56 26.0321 15.84 26.3095 16.16 26.3095H19.44V28.0529C19.44 28.3699 19.72 28.6472 20.04 28.6472C20.36 28.6472 20.64 28.3699 20.64 28.0529V26.3095H23.88C24.2 26.3095 24.48 26.0321 24.48 25.7151V20.5246C24.48 20.2076 24.2 19.9302 23.88 19.9302H16.76V14.5416H23.28V17.434C23.28 17.751 23.56 18.0283 23.88 18.0283Z" fill="#454056"/>
<path d="M20.04 0.317017C9.16001 0.317017 0.320007 9.07362 0.320007 19.851C0.320007 23.2981 1.24001 26.6661 2.96001 29.5981L3.04001 29.717L1.28001 35.7C1.04001 36.4529 1.28001 37.2849 1.84001 37.8397C2.40001 38.3944 3.24001 38.6321 4.00001 38.3944L10.08 36.651L10.2 36.7302C13.16 38.434 16.56 39.3057 20 39.3057C30.84 39.3057 39.68 30.5491 39.68 19.8114C39.68 9.07362 30.88 0.317017 20.04 0.317017ZM20.04 37.8397C16.72 37.8397 13.48 36.9283 10.64 35.2642L10.36 35.1057L3.60001 36.968C3.36001 37.0472 3.08001 36.968 2.92001 36.8095C2.76001 36.651 2.68001 36.3736 2.76001 36.1359L4.68001 29.5189L4.52001 29.2415C2.80001 26.3887 1.88001 23.1397 1.88001 19.851C1.88001 9.90569 10 1.8623 20.04 1.8623C30.08 1.8623 38.2 9.90569 38.2 19.851C38.2 29.7566 30.04 37.8397 20.04 37.8397Z" fill="#454056"/>
</svg>
