<svg width="130" height="138" viewBox="0 0 130 138" fill="none" xmlns="http://www.w3.org/2000/svg">
<path d="M72.9299 93.8661H57.4599C56.5499 93.8661 55.8999 94.517 55.8999 95.4284C55.8999 96.3397 56.5499 96.9906 57.4599 96.9906H72.9299C73.8399 96.9906 74.4899 96.3397 74.4899 95.4284C74.4899 94.517 73.7099 93.8661 72.9299 93.8661Z" fill="#454056"/>
<path d="M68.6399 98.0321H61.7499C60.8399 98.0321 60.1899 98.683 60.1899 99.5944C60.1899 100.506 60.8399 101.157 61.7499 101.157H68.6399C69.0299 101.157 69.4199 101.026 69.6799 100.636C69.9399 100.375 70.0699 99.9849 70.0699 99.5944C70.1999 98.683 69.4199 98.0321 68.6399 98.0321Z" fill="#454056"/>
<path d="M65.13 44.134C60.06 44.134 55.38 45.9567 51.61 49.3416C44.2 56.2416 43.03 67.568 48.88 75.7699C51.48 79.1548 52.91 83.3208 52.91 87.6171C52.91 88.7887 53.3 89.8302 54.21 90.6114C54.99 91.3925 56.16 91.9133 57.2 91.9133H72.8C73.97 91.9133 75.01 91.5227 75.79 90.6114C76.57 89.8302 77.09 88.6586 77.09 87.6171C77.09 83.3208 78.52 79.1548 81.12 75.7699C86.97 67.568 85.93 56.2416 78.39 49.3416C75.01 45.9567 70.2 44.134 65.13 44.134ZM59.15 68.2189C59.15 67.6982 59.54 67.4378 60.06 67.4378C60.58 67.4378 60.84 67.8284 60.84 68.2189V69.0001H60.06C59.54 69.0001 59.15 68.7397 59.15 68.2189ZM69.29 68.2189C69.29 67.6982 69.68 67.3076 70.07 67.3076C70.59 67.3076 70.85 67.6982 70.85 68.2189C70.85 68.7397 70.46 69.0001 70.07 69.0001H69.29V68.2189ZM69.42 71.8642H70.2C72.28 71.8642 73.84 70.302 73.84 68.2189C73.84 66.1359 72.28 64.5737 70.2 64.5737C68.12 64.5737 66.56 66.2661 66.56 68.2189V69.0001H63.57V68.2189C63.57 66.1359 62.01 64.5737 59.93 64.5737C57.85 64.5737 56.29 66.1359 56.29 68.2189C56.29 70.302 57.98 71.8642 59.93 71.8642H60.71V88.5284H57.2C56.94 88.5284 56.68 88.3982 56.55 88.268C56.42 88.1378 56.29 87.8774 56.29 87.6171C56.29 82.8001 54.73 78.1133 51.87 74.2076C46.67 67.3076 47.45 57.6737 53.82 51.8152C56.94 48.951 60.84 47.3887 65 47.3887C69.16 47.3887 73.19 48.951 76.18 51.8152C82.55 57.6737 83.46 67.3076 78.13 74.2076C75.27 78.1133 73.71 82.8001 73.71 87.6171C73.71 87.8774 73.58 88.1378 73.45 88.268C73.45 88.5284 73.19 88.5284 72.93 88.5284H69.42V71.8642ZM66.56 71.8642V88.5284H63.57V71.8642H66.56Z" fill="#454056"/>
<path d="M89.3101 39.1868C88.6601 38.5359 87.4901 38.5359 86.7101 39.1868L82.1601 43.7434C81.7701 44.134 81.6401 44.5245 81.6401 45.0453C81.6401 45.5661 81.7701 45.9566 82.1601 46.3472C82.5501 46.7378 82.9401 46.8679 83.4601 46.8679C83.9801 46.8679 84.3701 46.7378 84.7601 46.3472L89.3101 41.7906C89.7001 41.4 89.8301 41.0095 89.8301 40.4887C89.8301 39.9679 89.7001 39.4472 89.3101 39.1868Z" fill="#454056"/>
<path d="M47.45 46.2169C48.1 45.566 48.1 44.3943 47.45 43.6132L42.9 39.0566C42.25 38.4056 41.08 38.4056 40.3 39.0566C39.91 39.4471 39.78 39.8377 39.78 40.3585C39.78 40.8792 39.91 41.2698 40.3 41.6603L44.85 46.2169C45.24 46.6075 45.63 46.7377 46.15 46.7377C46.67 46.7377 47.19 46.6075 47.45 46.2169Z" fill="#454056"/>
<path d="M65.3901 40.4886C66.4301 40.4886 67.2101 39.7075 67.2101 38.666V32.2868C67.2101 31.2452 66.4301 30.4641 65.3901 30.4641C64.8701 30.4641 64.4801 30.5943 64.0901 30.9849C63.7001 31.3754 63.5701 31.766 63.5701 32.2868V38.666C63.5701 39.7075 64.3501 40.4886 65.3901 40.4886Z" fill="#454056"/>
<path d="M65.3899 1.30188C30.1599 1.30188 1.42993 30.0736 1.42993 65.2245C1.42993 76.4207 4.41993 87.4868 10.0099 97.2509L10.2699 97.6415L4.54993 117.3C3.76993 119.774 4.54993 122.508 6.36993 124.33C8.18993 126.153 10.9199 126.934 13.3899 126.153L33.1499 120.555L33.5399 120.815C43.1599 126.283 54.0799 129.277 65.2599 129.277C100.49 129.277 129.09 100.636 129.09 65.3547C129.09 30.0736 100.49 1.30188 65.3899 1.30188ZM65.3899 124.33C54.5999 124.33 44.0699 121.336 34.8399 115.868L33.9299 115.347L12.0899 121.466C11.3099 121.726 10.3999 121.466 9.87993 120.945C9.35993 120.425 9.09993 119.513 9.35993 118.732L15.5999 96.9906L15.0799 96.0792C9.48993 86.8358 6.49993 76.1604 6.49993 65.3547C6.49993 32.8075 32.8899 6.37924 65.3899 6.37924C97.8899 6.37924 124.28 32.8075 124.28 65.3547C124.28 97.7717 97.7599 124.33 65.3899 124.33Z" fill="#454056"/>
</svg>
