<svg width="114" height="114" viewBox="0 0 114 114" fill="none" xmlns="http://www.w3.org/2000/svg">
<circle cx="56.9697" cy="57.0283" r="56.9697" fill="#F9D72A"/>
<path d="M47.4133 70.1062C46.7954 70.1062 46.2939 70.6074 46.2939 71.2267V73.4707C46.2939 74.09 46.7954 74.5912 47.4133 74.5912C48.0312 74.5912 48.5327 74.09 48.5327 73.4707V71.2267C48.5327 70.6074 48.0312 70.1062 47.4133 70.1062Z" fill="#454056"/>
<path d="M47.4133 61.8774C46.7954 61.8774 46.2939 62.3787 46.2939 62.998V65.242C46.2939 65.8612 46.7954 66.3625 47.4133 66.3625C48.0312 66.3625 48.5327 65.8612 48.5327 65.242V62.998C48.5327 62.3787 48.0312 61.8774 47.4133 61.8774Z" fill="#454056"/>
<path d="M37.8957 71.4543C37.2778 71.4543 36.7764 71.9556 36.7764 72.5749V74.4513C36.7764 75.0706 37.2778 75.5718 37.8957 75.5718C38.5136 75.5718 39.0151 75.0706 39.0151 74.4513V72.5749C39.0151 71.9563 38.5136 71.4543 37.8957 71.4543Z" fill="#454056"/>
<path d="M76.3273 55.4981V38.6726L76.5393 38.8429C77.046 39.2493 77.6825 39.4734 78.3459 39.4734C79.9265 39.4734 81.213 38.1855 81.213 36.6034C81.213 36.4846 81.2063 36.3681 81.1929 36.253L81.0504 30.0327C81.0309 29.1819 80.6399 28.3893 79.9772 27.8582C79.3265 27.336 78.4616 27.1186 77.6243 27.2822L71.2484 28.5521C70.1596 28.7695 69.2865 29.6069 69.0238 30.6856C68.7604 31.765 69.1499 32.9109 70.0156 33.6056L70.8447 34.2712L54.5175 53.7233L48.5864 50.4715C47.3588 49.8007 45.7573 50.0301 44.7663 51.0206L27.2362 68.6275C26.6288 69.2356 26.2937 70.0439 26.2937 70.9044C26.2937 71.7119 26.5982 72.4679 27.1377 73.061V80.5766C27.1377 81.1959 27.4728 81.6971 27.8862 81.6971H59.7241C59.8271 81.6971 59.9248 81.6658 60.0136 81.6098C62.9285 84.7561 67.0799 86.7402 71.6946 86.7402C80.4899 86.7402 87.6457 79.5771 87.6457 70.7729C87.6457 63.5822 82.8697 57.4904 76.3273 55.4981ZM56.6652 65.4752C56.5555 65.4393 56.4399 65.4147 56.3182 65.4147C55.7003 65.4147 55.1988 65.9159 55.1988 66.5352V68.4116C55.1988 68.8471 55.4496 69.2206 55.8123 69.4059C55.7735 69.8571 55.7429 70.3113 55.7429 70.7729C55.7429 71.3272 55.772 71.8748 55.8264 72.4141C55.4563 72.5964 55.1981 72.9744 55.1981 73.4166V74.5371C55.1981 75.1564 55.6996 75.6576 56.3175 75.6576C56.3817 75.6576 56.4443 75.6494 56.5055 75.6389C56.9421 77.0007 57.5607 78.2803 58.3256 79.4561H48.5326C48.5326 78.8369 48.0311 78.3356 47.4133 78.3356C46.7954 78.3356 46.2939 78.8369 46.2939 79.4561H39.015C39.015 78.8369 38.5135 78.3356 37.8956 78.3356C37.2777 78.3356 36.7762 78.8369 36.7762 79.4561H29.3764V74.1106C29.422 74.112 29.4645 74.124 29.51 74.124C30.369 74.124 31.1764 73.7893 31.7861 73.179L36.8897 68.0523C37.0703 68.4288 37.4516 68.6903 37.8964 68.6903C38.5142 68.6903 39.0157 68.189 39.0157 67.5698V66.4493C39.0157 66.2924 38.9829 66.143 38.9247 66.0078L46.8954 58.0006C47.0513 58.0828 47.2252 58.1336 47.4133 58.1336C47.7871 58.1336 48.1155 57.9483 48.3192 57.6667L53.7407 60.639C54.1884 60.8841 54.6907 61.0148 55.1996 61.0282V61.531C55.1996 62.1502 55.7011 62.6515 56.319 62.6515C56.9369 62.6515 57.4383 62.1502 57.4383 61.531V60.4105C57.4383 60.3387 57.4301 60.2693 57.4174 60.2005C57.5301 60.0997 57.648 60.0033 57.7465 59.8853L66.0269 50.0204C66.2 50.1309 66.4052 50.1974 66.6261 50.1974C67.244 50.1974 67.7455 49.6961 67.7455 49.0769V47.9728L74.0886 40.4161V55.0066C73.3058 54.8878 72.5103 54.8064 71.6946 54.8064C64.756 54.8064 58.8547 59.2713 56.6652 65.4752ZM28.8205 70.2112L46.3506 52.6042C46.5357 52.419 46.7812 52.3174 47.0431 52.3174C47.2065 52.3174 47.3685 52.3592 47.5118 52.4377L54.2466 56.1301C54.7153 56.3871 55.2988 56.2773 55.6414 55.8679L73.2953 34.836C73.4894 34.6051 73.5819 34.3056 73.5528 34.0053C73.523 33.705 73.3737 33.4293 73.1379 33.2411L71.4148 31.8584C71.2253 31.706 71.1402 31.455 71.1976 31.2182C71.2551 30.9821 71.4469 30.7984 71.6849 30.7513L78.0579 29.4814C78.2415 29.4456 78.4333 29.4926 78.5765 29.6077C78.7206 29.7234 78.8071 29.8967 78.8101 30.0842L78.9541 36.3681C78.9556 36.4159 78.9601 36.4644 78.9676 36.5115C78.9721 36.5421 78.9735 36.5727 78.9735 36.6041C78.9735 36.9507 78.6915 37.2331 78.3325 37.2331C78.1907 37.2331 78.0504 37.1845 77.94 37.0949L76.4102 35.8676C75.9333 35.4858 75.2438 35.5561 74.8528 36.0215L74.1991 36.7998C74.1752 36.8222 74.1565 36.8461 74.1401 36.8708L56.0324 58.4443C55.7414 58.7902 55.2108 58.8903 54.8145 58.6737L47.9513 54.9103C47.9416 54.905 47.9311 54.905 47.9214 54.8998C47.8274 54.8512 47.7267 54.8131 47.62 54.793C47.6058 54.7907 47.5923 54.7907 47.5782 54.7885C47.5237 54.7803 47.4692 54.7721 47.4133 54.7721C47.3722 54.7721 47.3349 54.7795 47.2953 54.784C47.2737 54.7862 47.2528 54.787 47.2319 54.79C47.1274 54.8072 47.0297 54.8378 46.9371 54.8819C46.92 54.8901 46.9036 54.8998 46.8871 54.9095C46.7894 54.9618 46.6983 55.0238 46.6207 55.1015L30.2011 71.5961C29.8309 71.9659 29.1891 71.9666 28.8183 71.5961C28.6339 71.4116 28.5317 71.1659 28.5317 70.9044C28.5317 70.643 28.6347 70.3972 28.8205 70.2112ZM71.6946 84.4999C64.1337 84.4999 57.9824 78.3423 57.9824 70.7737C57.9824 63.205 64.1337 57.0474 71.6946 57.0474C79.2556 57.0474 85.4069 63.205 85.4069 70.7737C85.4069 78.3423 79.2556 84.4999 71.6946 84.4999Z" fill="#454056"/>
<path d="M73.4968 70.011L70.9625 69.1744C70.573 69.0496 68.9917 68.4856 69.1603 66.9199C69.2245 66.3231 69.3984 65.8629 69.876 65.5499C70.2648 65.2997 70.7476 65.1742 71.3214 65.1742C72.2968 65.1742 72.9602 65.3385 73.3938 65.9017C73.6318 66.2274 73.7094 66.4657 73.7744 67.029C73.7744 67.029 73.8512 67.9568 74.9616 67.9568C76.072 67.9568 76.2429 67.073 76.2646 66.9139C76.3638 66.1923 75.9713 64.9844 75.4251 64.268C74.7952 63.4404 73.8997 62.9399 72.8139 62.7262V61.5758C72.8139 60.9566 72.3132 60.4553 71.6946 60.4553C71.0759 60.4553 70.5752 60.9566 70.5752 61.5758V62.6672C69.276 62.8345 68.2865 63.3597 67.6171 64.2546C67.0328 65.0427 66.0559 66.5599 67.0566 69.1856C67.9193 71.4498 72.0363 72.1736 72.0363 72.1736C72.805 72.3611 74.2743 72.6562 74.2781 74.4311C74.2796 75.1191 73.855 76.454 71.6625 76.454C70.6446 76.454 69.1909 76.0028 69.1909 74.1509C69.1909 74.1509 69.2081 73.1851 68.0036 73.1851C66.7992 73.1851 66.7052 74.1509 66.7052 74.1509C66.7052 75.3775 66.8813 76.2396 67.5208 77.0777C68.4805 78.3484 69.6595 78.7913 70.5759 78.9452V79.9709C70.5759 80.5901 71.0767 81.0914 71.6953 81.0914C72.3139 81.0914 72.8147 80.5901 72.8147 79.9709V78.9363C75.687 78.438 76.7646 75.7779 76.7646 74.0927C76.7638 72.8668 76.3183 70.9844 73.4968 70.011Z" fill="#454056"/>
</svg>
