<svg width="114" height="114" viewBox="0 0 114 114" fill="none" xmlns="http://www.w3.org/2000/svg">
<circle cx="56.9697" cy="56.9716" r="56.9697" fill="#F9D72A"/>
<path d="M57.0129 38.2314C57.7789 38.4073 59.2434 38.6843 59.2479 40.3503C59.2493 40.9963 58.8254 42.248 56.6403 42.248C55.6258 42.248 54.1769 41.8248 54.1769 40.0868C54.1769 40.0868 54.194 39.1802 52.9944 39.1802C51.7932 39.1802 51.7002 40.0868 51.7002 40.0868C51.7002 41.2376 51.875 42.0468 52.5124 42.8338C53.4696 44.0254 54.644 44.442 55.5573 44.586V45.5482C55.5573 46.1637 56.0571 46.6619 56.673 46.6619C57.2888 46.6619 57.7886 46.1637 57.7886 45.5482V44.5771C60.6513 44.1101 61.7253 41.614 61.7253 40.0318C61.7253 38.881 61.282 37.114 58.4699 36.2015L55.9441 35.416C55.5566 35.2987 53.9798 34.7693 54.1487 33.3008C54.2126 32.7402 54.3852 32.3089 54.8612 32.0156C55.2494 31.781 55.7299 31.6629 56.3018 31.6629C57.2739 31.6629 57.9359 31.8174 58.3673 32.3453C58.6045 32.6511 58.6819 32.8739 58.7466 33.4032C58.7466 33.4032 58.8239 34.2734 59.9306 34.2734C61.0366 34.2734 61.2069 33.4441 61.2292 33.2948C61.3281 32.6177 60.9369 31.4848 60.3925 30.8121C59.764 30.0348 58.8715 29.5648 57.7894 29.3651V28.2855C57.7894 27.6701 57.2895 27.1719 56.6737 27.1719C56.0579 27.1719 55.5581 27.6701 55.5581 28.2855V29.3094C54.2632 29.4668 53.2777 29.959 52.6106 30.7995C52.0282 31.539 51.0546 32.963 52.0513 35.4264C52.9096 37.552 57.0129 38.2314 57.0129 38.2314Z" fill="#454056"/>
<path d="M87.4772 59.8754C87.1515 59.3534 86.4628 59.1923 85.9414 59.5183L80.6607 62.7977C80.1408 63.1236 79.4491 62.9669 79.1226 62.4465L70.4787 48.7008C70.1522 48.1811 70.3091 47.4921 70.826 47.1684L76.103 43.8912C76.6266 43.566 76.7865 42.88 76.4607 42.3573C76.135 41.8354 75.4463 41.6743 74.9249 42.0002L69.6435 45.2796C68.7034 45.8684 68.1671 46.8528 68.095 47.8811C65.4323 47.3718 62.6061 48.3415 59.1275 50.0454L56.8732 50.8754L51.7435 48.928C49.4274 48.2048 47.4937 47.6933 45.7994 47.5314C45.6395 46.6331 45.1271 45.8001 44.2926 45.2766L39.0156 41.9995C38.4942 41.6735 37.8048 41.8346 37.4798 42.3566C37.154 42.8793 37.3139 43.5653 37.8375 43.8905L43.11 47.1647C43.4402 47.3718 43.6232 47.7252 43.6299 48.089C43.5518 48.2449 43.5042 48.4187 43.5079 48.605V48.6058C43.4923 48.6369 43.4804 48.6696 43.4618 48.7001L34.8179 62.4465C34.655 62.7063 34.4013 62.8749 34.1239 62.938C34.1202 62.9387 34.1172 62.9387 34.1143 62.9395C33.8368 63.0004 33.5364 62.9573 33.2753 62.7954L27.9984 59.5183C27.477 59.1923 26.7875 59.3534 26.4625 59.8754C26.1367 60.3981 26.2966 61.0841 26.8202 61.4093L32.0935 64.6842C32.5487 64.9693 33.047 65.1252 33.5497 65.1728C33.9358 66.204 34.5769 67.7943 35.636 69.3861C35.093 69.9029 34.7093 70.5614 34.5382 71.3046C34.3061 72.3099 34.4861 73.3456 35.044 74.2187C35.7862 75.3822 37.0632 76.0214 38.3663 76.0214C38.466 76.0214 38.5656 76.0088 38.6646 76.0014C38.6898 76.6703 38.8773 77.3259 39.2484 77.9072C39.9907 79.0706 41.2677 79.7106 42.5715 79.7106C42.8645 79.7106 43.1568 79.6698 43.4469 79.6045C43.4209 80.3684 43.6239 81.122 44.0464 81.7828C44.7886 82.9455 46.0657 83.5847 47.3695 83.5847C47.4929 83.5847 47.6164 83.5714 47.7399 83.5595C47.7607 84.2388 47.9489 84.9048 48.3259 85.4943C49.069 86.6577 50.3452 87.297 51.6483 87.297C52.3564 87.297 53.0718 87.1084 53.7137 86.7134L55.2734 85.5797C55.6557 85.697 56.0484 85.7653 56.4426 85.7653C57.547 85.7653 58.6418 85.3072 59.4027 84.4185C59.7895 83.9671 60.0416 83.4407 60.1822 82.8816C60.8225 83.2833 61.5469 83.4912 62.2729 83.4912C63.3892 83.4912 64.4997 83.0249 65.2724 82.1214C65.8637 81.4301 66.1649 80.5741 66.1761 79.6817C66.2467 79.6854 66.3159 79.6987 66.3858 79.6987C67.5029 79.6987 68.6119 79.2325 69.3839 78.3289C69.7848 77.8605 70.0444 77.3133 70.1842 76.7342C70.7829 77.0683 71.4478 77.2331 72.1105 77.2323C73.2269 77.2323 74.3366 76.7668 75.1086 75.8633C75.7839 75.0733 76.1075 74.071 76.0175 73.0412C75.9334 72.0798 75.4872 71.2126 74.7806 70.5622L75.4373 69.8056C75.6924 69.5116 76.0004 69.1798 76.3298 68.8226C77.3637 67.7052 78.5856 66.3815 79.2944 65.1007C79.5488 65.1616 79.8099 65.1943 80.0732 65.1943C80.6786 65.1943 81.2929 65.0302 81.8418 64.6857L87.1188 61.4085C87.6431 61.0848 87.8023 60.3981 87.4772 59.8754ZM36.9257 73.0219C36.6929 72.6559 36.617 72.223 36.7137 71.8028C36.7687 71.5615 36.8825 71.344 37.0357 71.1547C37.1257 71.2512 37.2068 71.3529 37.3013 71.4472L39.624 73.2721L39.2283 73.5609C38.4392 74.0235 37.4128 73.7852 36.9257 73.0219ZM41.1309 76.7111C40.8981 76.3459 40.8222 75.913 40.9189 75.4935C40.9724 75.2597 41.0803 75.0473 41.2253 74.8617L41.444 74.7028L44.0836 76.7772L43.4335 77.2509C42.6444 77.712 41.6188 77.4751 41.1309 76.7111ZM45.9281 80.5852C45.6953 80.2199 45.6194 79.7878 45.7161 79.3684C45.7927 79.0365 45.9705 78.744 46.2233 78.519L48.8436 80.678L48.2315 81.125C47.4409 81.5868 46.4152 81.35 45.9281 80.5852ZM50.2076 84.2982C49.9748 83.9329 49.899 83.5001 49.9957 83.0806C50.0827 82.7012 50.3066 82.3768 50.6212 82.1429L53.2429 84.3027L52.5103 84.838C51.7219 85.2998 50.6948 85.0622 50.2076 84.2982ZM73.4128 74.4177C72.8119 75.1186 71.7401 75.2107 71.0216 74.6189L68.9414 72.9113C68.9257 72.8987 68.9153 72.8823 68.8997 72.8697L58.0929 64.0079L57.7568 63.7317C57.3276 63.379 56.7162 63.4035 56.3131 63.7591C56.2685 63.7985 56.2254 63.8378 56.186 63.8853C55.9465 64.1771 55.881 64.5536 55.9755 64.8914C55.977 64.8973 55.977 64.904 55.9792 64.9099C55.9918 64.9515 56.0112 64.9909 56.0275 65.0317C56.0394 65.0577 56.0461 65.0844 56.0595 65.1096C56.0699 65.1282 56.0841 65.1445 56.0952 65.1631C56.1592 65.2693 56.2373 65.3688 56.3392 65.4527L67.5267 74.6353C67.8399 74.9137 68.0355 75.2871 68.0704 75.6999C68.1084 76.1306 67.9722 76.5515 67.6866 76.8849C67.0864 77.5865 66.0147 77.6778 65.2955 77.0853L64.7986 76.6777C64.7942 76.674 64.7912 76.6696 64.7867 76.6659L54.1525 67.9451C53.6758 67.5553 52.9729 67.6236 52.5825 68.0987C52.5341 68.1581 52.4917 68.2212 52.4575 68.2866C52.215 68.7447 52.3192 69.3245 52.7364 69.666L63.384 78.3995C63.715 78.6794 63.9203 79.0654 63.9575 79.4924C63.9954 79.923 63.86 80.3432 63.5759 80.6751C62.975 81.3774 61.9032 81.468 61.1847 80.877L58.9416 79.038C58.9237 79.0224 58.9103 79.0038 58.8925 78.989L50.7625 72.3322L50.5498 72.1577C50.4903 72.1087 50.4271 72.0671 50.3609 72.033C49.9027 71.7917 49.3233 71.8956 48.9812 72.3099C48.9812 72.3107 48.9804 72.3107 48.9797 72.3114C48.9797 72.3114 48.979 72.3114 48.979 72.3121C48.6584 72.7019 48.6532 73.2417 48.9224 73.6396C48.9395 73.6664 48.9544 73.6946 48.9745 73.7198C48.9797 73.7258 48.9864 73.7302 48.9909 73.7362C49.034 73.7866 49.0801 73.8356 49.1329 73.8787L57.5217 80.7575C57.8386 81.0396 58.0357 81.4153 58.0721 81.8288C58.1086 82.2468 57.9784 82.653 57.7054 82.9715C57.1194 83.6582 56.0565 83.7369 55.341 83.1452L46.0329 75.475C46.0292 75.472 46.0248 75.4698 46.0203 75.4668C46.0173 75.4638 46.0151 75.4609 46.0114 75.4579L38.8326 69.8264C37.1845 68.1589 36.2466 65.9828 35.7282 64.6278C36.1105 64.3739 36.4482 64.042 36.707 63.6299L45.3502 49.8843C45.3829 49.8323 45.4 49.7759 45.4298 49.7232C46.7365 49.8212 48.4583 50.234 51.0124 51.0306L54.3362 52.2935L50.8941 53.9083C49.96 54.4065 49.2832 55.2321 48.9871 56.2322C48.6978 57.21 48.8109 58.2375 49.304 59.1255C50.0083 60.3973 51.356 61.1138 52.7253 61.1138C53.3411 61.1138 53.9606 60.969 54.5296 60.6654L63.3907 56.5804L68.51 60.7077C68.8521 60.9898 69.0619 61.384 69.0998 61.8184C69.1377 62.249 69.0016 62.6685 68.7175 63.0004C68.1165 63.7034 67.0448 63.7925 66.2929 63.1756L61.9939 59.9088C61.9731 59.8925 61.9486 59.8821 61.927 59.868C61.8913 59.8449 61.8563 59.8212 61.8192 59.8019C61.7887 59.7863 61.7574 59.7759 61.7262 59.7633C61.6897 59.7484 61.654 59.7336 61.6169 59.7232C61.5826 59.7135 61.5469 59.7083 61.512 59.7024C61.477 59.6965 61.4421 59.6883 61.4056 59.6861C61.3684 59.6831 61.332 59.6846 61.2956 59.6853C61.2613 59.6861 61.2271 59.6853 61.1929 59.689C61.1557 59.6935 61.1193 59.7024 61.0836 59.7098C61.0501 59.7172 61.0166 59.7232 60.9839 59.7328C60.949 59.744 60.9148 59.7596 60.8805 59.7744C60.8486 59.7878 60.8166 59.8004 60.7853 59.8167C60.7526 59.8346 60.7221 59.8568 60.6909 59.8784C60.6619 59.8984 60.6329 59.917 60.6053 59.94C60.5756 59.9645 60.5488 59.9942 60.5213 60.0224C60.502 60.0424 60.4789 60.0595 60.4611 60.0818C60.4559 60.0877 60.4529 60.0952 60.4477 60.1011C60.4417 60.1078 60.435 60.113 60.4306 60.1197C60.4127 60.1442 60.4001 60.1709 60.3837 60.1961C60.3636 60.2281 60.3421 60.2585 60.3257 60.2919C60.3093 60.3253 60.2967 60.3587 60.2833 60.3929C60.2699 60.427 60.2558 60.4604 60.2454 60.4946C60.2357 60.5295 60.2305 60.5651 60.2245 60.6008C60.2186 60.6357 60.2104 60.6713 60.2089 60.7069C60.206 60.7418 60.2074 60.7767 60.2082 60.8116C60.2089 60.848 60.2082 60.8844 60.2126 60.9208C60.2164 60.9542 60.2245 60.9868 60.2312 61.0202C60.2387 61.0566 60.2461 61.0937 60.2565 61.1294C60.2669 61.1606 60.2803 61.191 60.2937 61.2222C60.3086 61.2578 60.3227 61.2935 60.3406 61.3276C60.3569 61.3573 60.377 61.384 60.3956 61.4123C60.4172 61.4442 60.4387 61.4776 60.464 61.508C60.4863 61.534 60.5116 61.5578 60.5369 61.5823C60.56 61.6053 60.5793 61.6298 60.6046 61.6506L73.2046 72.1236C73.5474 72.4049 73.7564 72.7999 73.7944 73.2335C73.8323 73.6656 73.6969 74.0858 73.4128 74.4177ZM74.6913 67.3117C74.3433 67.6874 74.0205 68.0371 73.7512 68.3475L73.0796 69.1218L68.8008 65.5648C69.4077 65.3405 69.9677 64.9693 70.4147 64.4481C71.0901 63.6582 71.4129 62.6559 71.3229 61.6261C71.2329 60.5926 70.7383 59.6564 69.9216 58.9837L64.2542 54.4147C64.2386 54.4013 64.2193 54.3931 64.2029 54.3813C64.1679 54.3553 64.1322 54.3308 64.0943 54.31C64.066 54.2944 64.037 54.281 64.0073 54.2677C63.9716 54.2513 63.9359 54.2365 63.8987 54.2239C63.8667 54.2135 63.834 54.2061 63.8005 54.1979C63.7641 54.1897 63.7269 54.1823 63.6897 54.1778C63.6562 54.1734 63.622 54.1719 63.5886 54.1712C63.5506 54.1704 63.5134 54.1697 63.4762 54.1726C63.4398 54.1749 63.4048 54.1808 63.3684 54.1868C63.3342 54.1927 63.3007 54.1986 63.2665 54.2075C63.2256 54.2187 63.1869 54.2335 63.1468 54.2491C63.1274 54.2565 63.1059 54.261 63.0865 54.2699L53.5374 58.6741C52.7148 59.1144 51.6922 58.833 51.2586 58.049C51.057 57.6859 51.0116 57.2657 51.1299 56.8648C51.2549 56.4408 51.5464 56.0889 51.8967 55.8996L60.0438 52.0782C60.0453 52.0775 60.046 52.0767 60.0475 52.076L60.0624 52.07C64.4632 49.9102 66.7763 49.4878 68.9027 50.4619C68.9235 50.4715 68.9466 50.476 68.9674 50.4842L77.2342 63.6314C77.2908 63.722 77.3555 63.8037 77.4194 63.8868C76.8936 64.9255 75.6471 66.279 74.6913 67.3117Z" fill="#454056"/>
</svg>
