<svg width="114" height="114" viewBox="0 0 114 114" fill="none" xmlns="http://www.w3.org/2000/svg">
<circle cx="56.9697" cy="57.0002" r="56.9697" fill="#F9D72A"/>
<g opacity="0.9">
<path d="M83.0847 26.324H30.8547C28.3395 26.324 26.2937 28.3406 26.2937 30.8198V79.7993C26.2937 82.2785 28.3395 84.2951 30.8547 84.2951H33.5982V86.7995H42.1135V84.2951H71.8259V86.7995H80.3412V84.2951H83.0847C85.5999 84.2951 87.6457 82.2785 87.6457 79.7993V30.8198C87.6457 28.3406 85.5999 26.324 83.0847 26.324ZM85.0894 79.7993C85.0894 80.8888 84.19 81.7753 83.0847 81.7753H30.8547C29.7494 81.7753 28.85 80.8888 28.85 79.7993V30.8198C28.85 29.7303 29.7494 28.8438 30.8547 28.8438H83.0847C84.19 28.8438 85.0894 29.7303 85.0894 30.8198V79.7993Z" fill="#454056"/>
<path d="M32.429 78.035H81.5105V32.4592H32.429V78.035ZM35.0122 34.9861H78.9273V75.5081H35.0122V34.9861Z" fill="#454056"/>
<path d="M58.2843 43.853C51.7599 43.853 46.4521 49.1613 46.4521 55.6855C46.4521 62.2097 51.7599 67.5174 58.2843 67.5174C64.8087 67.5174 70.1165 62.2097 70.1165 55.6855C70.1165 49.1613 64.8087 43.853 58.2843 43.853ZM58.2843 65.0072C53.1368 65.0072 48.9488 60.8253 48.9488 55.6855C48.9488 50.5451 53.1368 46.3632 58.2843 46.3632C63.4318 46.3632 67.6199 50.5451 67.6199 55.6855C67.6199 60.8253 63.4318 65.0072 58.2843 65.0072Z" fill="#454056"/>
<path d="M58.2844 49.1118C54.6598 49.1118 51.7109 51.8642 51.7109 55.2473C51.7109 58.6298 54.6598 61.3822 58.2844 61.3822C61.909 61.3822 64.8578 58.6298 64.8578 55.2473C64.8578 51.8642 61.909 49.1118 58.2844 49.1118ZM58.2844 58.9169C56.1095 58.9169 54.3395 57.2708 54.3395 55.2473C54.3395 53.2238 56.1095 51.5771 58.2844 51.5771C60.4592 51.5771 62.2292 53.2238 62.2292 55.2473C62.2292 57.2708 60.4592 58.9169 58.2844 58.9169Z" fill="#454056"/>
<path d="M42.07 50.8647H39.4407V59.6293H42.07V50.8647Z" fill="#454056"/>
</g>
</svg>
