<svg width="1647" height="308" viewBox="0 0 1647 308" fill="none" xmlns="http://www.w3.org/2000/svg">
<g style="mix-blend-mode:multiply" opacity="0.1">
<path d="M115.536 221.349C126.68 221.349 137.332 219.465 147.493 215.696C157.817 211.762 167.65 205.453 176.991 196.767L189.282 211.517C179.941 220.202 168.633 227.085 155.359 232.166C142.084 237.246 127.991 239.786 113.078 239.786C97.6728 239.786 83.743 237.819 71.2881 233.886C58.997 229.953 48.4267 224.135 39.5772 216.433C30.8915 208.731 24.1724 199.226 19.4199 187.918C14.6673 176.61 12.291 163.582 12.291 148.832C12.291 134.083 14.5854 121.055 19.174 109.747C23.9266 98.439 30.5637 88.934 39.0855 81.2316C47.7712 73.5292 58.1776 67.7114 70.3048 63.7783C82.4319 59.8451 95.8702 57.8786 110.619 57.8786C125.533 57.8786 139.626 60.4187 152.901 65.499C166.175 70.5793 177.483 77.4623 186.824 86.148L174.533 100.897C165.192 92.2116 155.359 85.9841 145.034 82.2148C134.874 78.2817 124.221 76.3151 113.078 76.3151C104.228 76.3151 95.9521 77.7901 88.2497 80.7399C80.5473 83.5259 73.9102 87.8687 68.3382 93.7684C62.7663 99.6681 58.3415 107.207 55.0639 116.384C51.9502 125.397 50.3933 136.214 50.3933 148.832C50.3933 161.451 51.9502 172.349 55.0639 181.526C58.3415 190.54 62.8482 197.996 68.584 203.896C74.4837 209.796 81.3667 214.221 89.233 217.171C97.2631 219.956 106.031 221.349 115.536 221.349ZM294.995 174.644H371.199L334.326 83.6898H331.868L294.995 174.644ZM361.366 62.795L431.425 234.87H396.027L379.803 193.08H286.391L270.167 234.87H234.769L304.828 62.795H361.366ZM649.054 189.393C649.054 196.44 647.579 203.077 644.629 209.304C641.679 215.368 636.844 220.694 630.125 225.283C623.57 229.707 614.966 233.231 604.314 235.853C593.826 238.475 580.879 239.786 565.474 239.786C556.789 239.786 548.267 239.131 539.909 237.819C531.715 236.508 523.849 234.624 516.31 232.166C508.936 229.707 502.053 226.758 495.661 223.316C489.434 219.711 484.026 215.778 479.437 211.517L491.728 196.767C501.069 204.798 511.967 210.943 524.422 215.204C536.877 219.301 550.561 221.349 565.474 221.349C582.026 221.349 593.744 219.055 600.627 214.466C607.51 209.878 610.951 203.568 610.951 195.538C610.951 189.311 608.247 184.067 602.839 179.806C597.431 175.545 588.254 171.366 575.307 167.269L528.601 152.52C513.197 147.603 501.561 141.376 493.695 133.837C485.829 126.135 481.895 116.384 481.895 104.585C481.895 98.521 483.288 92.7032 486.074 87.1313C489.024 81.3954 493.531 76.3971 499.594 72.1362C505.658 67.7114 513.36 64.2699 522.702 61.8117C532.207 59.1896 543.596 57.8786 556.871 57.8786C564.901 57.8786 572.849 58.5341 580.715 59.8452C588.746 61.1562 596.366 63.0408 603.577 65.499C610.951 67.9572 617.752 70.989 623.98 74.5944C630.371 78.0359 635.861 81.8871 640.45 86.148L628.159 100.897C618.818 92.8671 608.329 86.8035 596.694 82.7065C585.058 78.4456 571.784 76.3151 556.871 76.3151C544.58 76.3151 535.32 78.4456 529.093 82.7065C523.029 86.9674 519.998 92.2116 519.998 98.439C519.998 101.881 520.571 104.912 521.718 107.534C522.866 109.993 524.75 112.369 527.372 114.663C530.158 116.794 533.764 118.842 538.188 120.809C542.613 122.611 548.103 124.578 554.658 126.708L601.119 141.458C616.032 146.21 627.749 152.438 636.271 160.14C644.793 167.842 649.054 177.593 649.054 189.393ZM883.813 62.795V234.87H848.169V159.894H747.382V234.87H711.738V62.795H747.382V141.458H848.169V62.795H883.813Z" fill="#1F1B2D"/>
<path d="M147.493 215.696L149.63 221.457L149.655 221.448L149.68 221.439L147.493 215.696ZM176.991 196.767L181.712 192.833L177.558 187.848L172.806 192.267L176.991 196.767ZM189.282 211.517L193.467 216.017L197.729 212.054L194.003 207.582L189.282 211.517ZM71.2881 233.886L69.4151 239.739L69.4262 239.743L69.4375 239.747L71.2881 233.886ZM39.5772 216.433L35.4997 221.031L35.521 221.05L35.5425 221.069L39.5772 216.433ZM19.4199 187.918L25.0853 185.537L19.4199 187.918ZM19.174 109.747L13.5086 107.366L13.4938 107.401L13.4795 107.436L19.174 109.747ZM39.0855 81.2316L35.008 76.6336L34.9863 76.6529L34.9647 76.6724L39.0855 81.2316ZM152.901 65.499L150.704 71.2386L152.901 65.499ZM186.824 86.148L191.545 90.0823L195.271 85.6108L191.009 81.6474L186.824 86.148ZM174.533 100.897L170.348 105.398L175.1 109.816L179.254 104.832L174.533 100.897ZM145.034 82.2148L142.816 87.946L142.871 87.9674L142.927 87.9877L145.034 82.2148ZM88.2497 80.7399L90.34 86.519L90.394 86.4995L90.4476 86.479L88.2497 80.7399ZM68.3382 93.7684L72.8061 97.9881H72.8061L68.3382 93.7684ZM55.0639 116.384L49.2764 114.317L49.2656 114.347L49.2552 114.377L55.0639 116.384ZM55.0639 181.526L49.2442 183.501L49.2656 183.564L49.2884 183.627L55.0639 181.526ZM68.584 203.896L64.1777 208.18L64.2079 208.211L64.2385 208.242L68.584 203.896ZM89.233 217.171L87.0751 222.925L87.1466 222.952L87.2187 222.977L89.233 217.171ZM115.536 227.495C127.388 227.495 138.766 225.488 149.63 221.457L145.355 209.934C135.898 213.442 125.971 215.204 115.536 215.204V227.495ZM149.68 221.439C160.849 217.184 171.344 210.41 181.176 201.268L172.806 192.267C163.956 200.496 154.785 206.341 145.305 209.953L149.68 221.439ZM172.27 200.702L184.561 215.451L194.003 207.582L181.712 192.833L172.27 200.702ZM185.097 207.016C176.396 215.107 165.785 221.595 153.162 226.426L157.555 237.905C171.482 232.575 183.486 225.298 193.467 216.017L185.097 207.016ZM153.162 226.426C140.623 231.225 127.277 233.641 113.078 233.641V245.932C128.704 245.932 143.546 243.267 157.555 237.905L153.162 226.426ZM113.078 233.641C98.1911 233.641 84.8987 231.74 73.1387 228.026L69.4375 239.747C82.5872 243.899 97.1546 245.932 113.078 245.932V233.641ZM73.1611 228.033C61.5858 224.329 51.7707 218.899 43.6119 211.797L35.5425 221.069C45.0828 229.372 56.4082 235.577 69.4151 239.739L73.1611 228.033ZM43.6546 211.835C35.6965 204.778 29.5019 196.045 25.0853 185.537L13.7544 190.299C18.8429 202.406 26.0865 212.684 35.4997 221.031L43.6546 211.835ZM25.0853 185.537C20.7069 175.119 18.4366 162.926 18.4366 148.832H6.14552C6.14552 164.237 8.62774 178.101 13.7544 190.299L25.0853 185.537ZM18.4366 148.832C18.4366 134.714 20.6329 122.496 24.8685 112.058L13.4795 107.436C8.53786 119.614 6.14552 133.452 6.14552 148.832H18.4366ZM24.8395 112.128C29.2671 101.593 35.3976 92.8487 43.2063 85.7908L34.9647 76.6724C25.7299 85.0192 18.586 95.2849 13.5086 107.366L24.8395 112.128ZM43.163 85.8296C51.1554 78.742 60.7992 73.3218 72.2007 69.624L68.4089 57.9325C55.556 62.101 44.387 68.3164 35.008 76.6336L43.163 85.8296ZM72.2007 69.624C83.628 65.9179 96.4151 64.0241 110.619 64.0241V51.7331C95.3252 51.7331 81.2358 53.7724 68.4089 57.9325L72.2007 69.624ZM110.619 64.0241C124.819 64.0241 138.165 66.4397 150.704 71.2386L155.097 59.7595C141.087 54.3977 126.246 51.7331 110.619 51.7331V64.0241ZM150.704 71.2386C163.326 76.0693 173.938 82.5576 182.639 90.6486L191.009 81.6474C181.028 72.367 169.024 65.0893 155.097 59.7595L150.704 71.2386ZM182.103 82.2137L169.812 96.963L179.254 104.832L191.545 90.0823L182.103 82.2137ZM178.718 96.3967C168.871 87.2412 158.35 80.534 147.142 76.442L142.927 87.9877C152.367 91.4342 161.512 97.1819 170.348 105.398L178.718 96.3967ZM147.253 76.4837C136.368 72.2704 124.963 70.1696 113.078 70.1696V82.4607C123.48 82.4607 133.379 84.293 142.816 87.946L147.253 76.4837ZM113.078 70.1696C103.532 70.1696 94.5055 71.7633 86.0518 75.0009L90.4476 86.479C97.3986 83.8169 104.924 82.4607 113.078 82.4607V70.1696ZM86.1594 74.9608C77.5622 78.0704 70.1084 82.9438 63.8703 89.5488L72.8061 97.9881C77.7119 92.7937 83.5324 88.9814 90.34 86.519L86.1594 74.9608ZM63.8703 89.5488C57.6092 96.1782 52.7837 104.496 49.2764 114.317L60.8514 118.451C63.8993 109.917 67.9234 103.158 72.8061 97.9881L63.8703 89.5488ZM49.2552 114.377C45.8595 124.207 44.2478 135.738 44.2478 148.832H56.5388C56.5388 136.689 58.0408 126.588 60.8726 118.391L49.2552 114.377ZM44.2478 148.832C44.2478 161.931 45.8607 173.529 49.2442 183.501L60.8836 179.552C58.0396 171.17 56.5388 160.971 56.5388 148.832H44.2478ZM49.2884 183.627C52.8141 193.323 57.7441 201.563 64.1777 208.18L72.9903 199.612C67.9523 194.43 63.8689 187.757 60.8394 179.426L49.2884 183.627ZM64.2385 208.242C70.7629 214.766 78.3933 219.669 87.0751 222.925L91.3908 211.416C84.3401 208.772 78.2045 204.826 72.9296 199.551L64.2385 208.242ZM87.2187 222.977C95.9684 226.012 105.425 227.495 115.536 227.495V215.204C106.636 215.204 98.5579 213.901 91.2473 211.365L87.2187 222.977ZM294.995 174.644L289.299 172.335L285.872 180.789H294.995V174.644ZM371.199 174.644V180.789H380.322L376.894 172.335L371.199 174.644ZM334.326 83.6898L340.021 81.3809L338.466 77.5443H334.326V83.6898ZM331.868 83.6898V77.5443H327.728L326.173 81.3809L331.868 83.6898ZM361.366 62.795L367.058 60.4776L365.5 56.6495H361.366V62.795ZM431.425 234.87V241.015H440.563L437.117 232.552L431.425 234.87ZM396.027 234.87L390.298 237.094L391.821 241.015H396.027V234.87ZM379.803 193.08L385.532 190.856L384.009 186.935H379.803V193.08ZM286.391 193.08V186.935H282.184L280.662 190.856L286.391 193.08ZM270.167 234.87V241.015H274.373L275.896 237.094L270.167 234.87ZM234.769 234.87L229.077 232.552L225.631 241.015H234.769V234.87ZM304.828 62.795V56.6495H300.694L299.136 60.4776L304.828 62.795ZM294.995 180.789H371.199V168.498H294.995V180.789ZM376.894 172.335L340.021 81.3809L328.631 85.9987L365.504 176.952L376.894 172.335ZM334.326 77.5443H331.868V89.8353H334.326V77.5443ZM326.173 81.3809L289.299 172.335L300.69 176.952L337.563 85.9987L326.173 81.3809ZM355.674 65.1124L425.733 237.187L437.117 232.552L367.058 60.4776L355.674 65.1124ZM431.425 228.724H396.027V241.015H431.425V228.724ZM401.756 232.645L385.532 190.856L374.074 195.304L390.298 237.094L401.756 232.645ZM379.803 186.935H286.391V199.226H379.803V186.935ZM280.662 190.856L264.438 232.645L275.896 237.094L292.12 195.304L280.662 190.856ZM270.167 228.724H234.769V241.015H270.167V228.724ZM240.46 237.187L310.519 65.1124L299.136 60.4776L229.077 232.552L240.46 237.187ZM304.828 68.9405H361.366V56.6495H304.828V68.9405ZM644.629 209.304L650.155 211.993L650.169 211.964L650.183 211.935L644.629 209.304ZM630.125 225.283L633.564 230.376L633.577 230.367L633.591 230.358L630.125 225.283ZM604.314 235.853L602.845 229.886L602.834 229.888L602.824 229.891L604.314 235.853ZM539.909 237.819L538.938 243.888L538.947 243.889L538.957 243.891L539.909 237.819ZM516.31 232.166L514.367 237.996L514.386 238.002L514.405 238.008L516.31 232.166ZM495.661 223.316L492.582 228.635L492.664 228.682L492.748 228.727L495.661 223.316ZM479.437 211.517L474.716 207.582L470.987 212.057L475.255 216.02L479.437 211.517ZM491.728 196.767L495.734 192.107L491.002 188.039L487.007 192.833L491.728 196.767ZM524.422 215.204L522.433 221.019L522.468 221.03L522.502 221.042L524.422 215.204ZM600.627 214.466L597.218 209.353V209.353L600.627 214.466ZM575.307 167.269L577.161 161.41L577.158 161.409L575.307 167.269ZM528.601 152.52L526.733 158.374L526.742 158.377L526.751 158.38L528.601 152.52ZM493.695 133.837L489.395 138.228L489.419 138.251L489.443 138.274L493.695 133.837ZM486.074 87.1313L480.609 84.3206L480.593 84.3517L480.578 84.3829L486.074 87.1313ZM499.594 72.1362L503.128 77.1644L503.173 77.1328L503.217 77.1005L499.594 72.1362ZM522.702 61.8117L524.266 67.7549L524.301 67.7456L524.336 67.7359L522.702 61.8117ZM580.715 59.8451L579.705 65.9071L579.715 65.9087L579.725 65.9104L580.715 59.8451ZM603.577 65.499L601.594 71.3158L601.614 71.3226L601.633 71.3292L603.577 65.499ZM623.98 74.5944L620.901 79.9129L620.983 79.9604L621.066 80.0054L623.98 74.5944ZM640.45 86.148L645.171 90.0823L648.9 85.6078L644.632 81.6446L640.45 86.148ZM628.159 100.897L624.153 105.557L628.885 109.626L632.88 104.832L628.159 100.897ZM596.694 82.7065L594.581 88.4772L594.617 88.4904L594.653 88.5032L596.694 82.7065ZM529.093 82.7065L525.623 77.6346L525.591 77.6562L525.56 77.6783L529.093 82.7065ZM521.718 107.534L516.088 109.998L516.118 110.066L516.149 110.133L521.718 107.534ZM527.372 114.663L523.325 119.288L523.478 119.422L523.639 119.545L527.372 114.663ZM538.188 120.809L535.692 126.425L535.78 126.464L535.87 126.5L538.188 120.809ZM554.658 126.708L552.759 132.553L552.779 132.56L552.799 132.566L554.658 126.708ZM601.119 141.458L602.984 135.602L602.978 135.6L601.119 141.458ZM636.271 160.14L640.392 155.581L636.271 160.14ZM642.908 189.393C642.908 195.551 641.626 201.287 639.075 206.673L650.183 211.935C653.531 204.866 655.199 197.328 655.199 189.393H642.908ZM639.103 206.616C636.708 211.538 632.678 216.097 626.66 220.208L633.591 230.358C641.011 225.29 646.65 219.198 650.155 211.993L639.103 206.616ZM626.687 220.189C620.915 224.085 613.047 227.374 602.845 229.886L605.783 241.82C616.886 239.087 626.226 235.33 633.564 230.376L626.687 220.189ZM602.824 229.891C592.98 232.352 580.57 233.641 565.474 233.641V245.932C581.188 245.932 594.671 244.598 605.805 241.815L602.824 229.891ZM565.474 233.641C557.099 233.641 548.896 233.009 540.861 231.748L538.957 243.891C547.638 245.253 556.478 245.932 565.474 245.932V233.641ZM540.88 231.751C532.988 230.488 525.435 228.677 518.216 226.323L514.405 238.008C522.262 240.571 530.442 242.528 538.938 243.888L540.88 231.751ZM518.254 226.335C511.19 223.981 504.634 221.168 498.575 217.905L492.748 228.727C499.471 232.347 506.681 235.434 514.367 237.996L518.254 226.335ZM498.74 217.998C492.852 214.589 487.826 210.92 483.619 207.013L475.255 216.02C480.225 220.635 486.015 224.833 492.582 228.635L498.74 217.998ZM484.158 215.451L496.449 200.702L487.007 192.833L474.716 207.582L484.158 215.451ZM487.722 201.428C497.696 210.002 509.29 216.522 522.433 221.019L526.412 209.389C514.645 205.364 504.443 199.594 495.734 192.107L487.722 201.428ZM522.502 221.042C535.655 225.368 549.997 227.495 565.474 227.495V215.204C551.125 215.204 538.099 213.233 526.343 209.366L522.502 221.042ZM565.474 227.495C582.236 227.495 595.547 225.239 604.036 219.58L597.218 209.353C591.941 212.871 581.816 215.204 565.474 215.204V227.495ZM604.036 219.58C612.567 213.893 617.097 205.697 617.097 195.538H604.806C604.806 201.44 602.453 205.863 597.218 209.353L604.036 219.58ZM617.097 195.538C617.097 187.212 613.351 180.264 606.643 174.978L599.036 184.633C603.143 187.869 604.806 191.41 604.806 195.538H617.097ZM606.643 174.978C600.326 170.002 590.264 165.556 577.161 161.41L573.453 173.128C586.243 177.176 594.536 181.088 599.036 184.633L606.643 174.978ZM577.158 161.409L530.452 146.659L526.751 158.38L573.457 173.129L577.158 161.409ZM530.47 146.665C515.561 141.907 504.89 136.054 497.947 129.4L489.443 138.274C498.232 146.698 510.832 153.3 526.733 158.374L530.47 146.665ZM497.994 129.446C491.4 122.989 488.041 114.863 488.041 104.585H475.75C475.75 117.905 480.257 129.281 489.395 138.228L497.994 129.446ZM488.041 104.585C488.041 99.5017 489.2 94.6224 491.571 89.8796L480.578 84.3829C477.377 90.784 475.75 97.5402 475.75 104.585H488.041ZM491.539 89.9419C493.971 85.2145 497.756 80.9391 503.128 77.1644L496.061 67.108C489.306 71.855 484.078 77.5764 480.609 84.3206L491.539 89.9419ZM503.217 77.1005C508.512 73.2365 515.463 70.0714 524.266 67.7549L521.138 55.8685C511.258 58.4684 502.804 62.1863 495.972 67.1719L503.217 77.1005ZM524.336 67.7359C533.161 65.3014 543.971 64.0241 556.871 64.0241V51.7331C543.222 51.7331 531.252 53.0778 521.067 55.8875L524.336 67.7359ZM556.871 64.0241C564.565 64.0241 572.175 64.652 579.705 65.9071L581.726 53.7832C573.523 52.4162 565.237 51.7331 556.871 51.7331V64.0241ZM579.725 65.9104C587.441 67.17 594.727 68.9751 601.594 71.3158L605.56 59.6822C598.005 57.1066 590.05 55.1423 581.706 53.7799L579.725 65.9104ZM601.633 71.3292C608.644 73.6662 615.061 76.532 620.901 79.9129L627.059 69.2759C620.444 65.446 613.258 62.2483 605.52 59.6689L601.633 71.3292ZM621.066 80.0054C627.069 83.2377 632.117 86.7967 636.268 90.6514L644.632 81.6446C639.605 76.9775 633.673 72.8341 626.893 69.1834L621.066 80.0054ZM635.729 82.2137L623.438 96.963L632.88 104.832L645.171 90.0823L635.729 82.2137ZM632.165 96.237C622.244 87.7086 611.089 81.26 598.735 76.9098L594.653 88.5032C605.569 92.3471 615.391 98.0256 624.153 105.557L632.165 96.237ZM598.807 76.9357C586.372 72.3822 572.362 70.1696 556.871 70.1696V82.4607C571.206 82.4607 583.744 84.509 594.581 88.4772L598.807 76.9357ZM556.871 70.1696C544.05 70.1696 533.332 72.3595 525.623 77.6346L532.563 87.7784C537.309 84.5317 545.11 82.4607 556.871 82.4607V70.1696ZM525.56 77.6783C518.214 82.8404 513.852 89.8123 513.852 98.439H526.143C526.143 94.6108 527.845 91.0943 532.626 87.7347L525.56 77.6783ZM513.852 98.439C513.852 102.56 514.54 106.458 516.088 109.998L527.349 105.071C526.603 103.366 526.143 101.201 526.143 98.439H513.852ZM516.149 110.133C517.745 113.552 520.236 116.585 523.325 119.288L531.419 110.038C529.264 108.153 527.986 106.433 527.287 104.936L516.149 110.133ZM523.639 119.545C526.921 122.055 530.981 124.331 535.692 126.425L540.684 115.193C536.546 113.354 533.395 111.533 531.105 109.781L523.639 119.545ZM535.87 126.5C540.478 128.377 546.118 130.395 552.759 132.553L556.558 120.864C550.088 118.761 544.749 116.845 540.507 115.117L535.87 126.5ZM552.799 132.566L599.259 147.315L602.978 135.6L556.518 120.851L552.799 132.566ZM599.253 147.313C613.616 151.89 624.47 157.757 632.15 164.699L640.392 155.581C631.029 147.118 618.447 140.53 602.984 135.602L599.253 147.313ZM632.15 164.699C639.343 171.201 642.908 179.277 642.908 189.393H655.199C655.199 175.91 650.242 164.484 640.392 155.581L632.15 164.699ZM883.813 62.795H889.958V56.6495H883.813V62.795ZM883.813 234.87V241.015H889.958V234.87H883.813ZM848.169 234.87H842.023V241.015H848.169V234.87ZM848.169 159.894H854.314V153.749H848.169V159.894ZM747.382 159.894V153.749H741.236V159.894H747.382ZM747.382 234.87V241.015H753.527V234.87H747.382ZM711.738 234.87H705.592V241.015H711.738V234.87ZM711.738 62.795V56.6495H705.592V62.795H711.738ZM747.382 62.795H753.527V56.6495H747.382V62.795ZM747.382 141.458H741.236V147.603H747.382V141.458ZM848.169 141.458V147.603H854.314V141.458H848.169ZM848.169 62.795V56.6495H842.023V62.795H848.169ZM877.667 62.795V234.87H889.958V62.795H877.667ZM883.813 228.724H848.169V241.015H883.813V228.724ZM854.314 234.87V159.894H842.023V234.87H854.314ZM848.169 153.749H747.382V166.04H848.169V153.749ZM741.236 159.894V234.87H753.527V159.894H741.236ZM747.382 228.724H711.738V241.015H747.382V228.724ZM717.883 234.87V62.795H705.592V234.87H717.883ZM711.738 68.9405H747.382V56.6495H711.738V68.9405ZM741.236 62.795V141.458H753.527V62.795H741.236ZM747.382 147.603H848.169V135.312H747.382V147.603ZM854.314 141.458V62.795H842.023V141.458H854.314ZM848.169 68.9405H883.813V56.6495H848.169V68.9405Z" fill="#1F1B2D"/>
<path d="M1061.95 183.247V234.869H1026.3V183.247L946.41 62.7945H985.742L1043.51 150.061H1044.74L1102.51 62.7945H1141.84L1061.95 183.247ZM1278.3 75.0856C1269.94 75.0856 1262.07 76.5605 1254.7 79.5103C1247.49 82.4602 1241.18 86.9669 1235.77 93.0305C1230.36 99.0941 1226.02 106.796 1222.74 116.138C1219.63 125.315 1218.07 136.213 1218.07 148.832C1218.07 161.451 1219.63 172.431 1222.74 181.772C1226.02 190.949 1230.36 198.57 1235.77 204.633C1241.18 210.697 1247.49 215.203 1254.7 218.153C1262.07 221.103 1269.94 222.578 1278.3 222.578C1286.66 222.578 1294.44 221.103 1301.65 218.153C1309.03 215.203 1315.42 210.697 1320.82 204.633C1326.23 198.57 1330.49 190.949 1333.61 181.772C1336.88 172.431 1338.52 161.451 1338.52 148.832C1338.52 136.213 1336.88 125.315 1333.61 116.138C1330.49 106.796 1326.23 99.0941 1320.82 93.0305C1315.42 86.9669 1309.03 82.4602 1301.65 79.5103C1294.44 76.5605 1286.66 75.0856 1278.3 75.0856ZM1278.3 57.8781C1293.05 57.8781 1306.4 59.8447 1318.37 63.7778C1330.49 67.7109 1340.82 73.5287 1349.34 81.2311C1358.03 88.9335 1364.74 98.4385 1369.5 109.746C1374.25 121.054 1376.63 134.083 1376.63 148.832C1376.63 163.581 1374.25 176.61 1369.5 187.917C1364.74 199.225 1358.03 208.73 1349.34 216.433C1340.82 224.135 1330.49 229.953 1318.37 233.886C1306.4 237.819 1293.05 239.786 1278.3 239.786C1263.55 239.786 1250.11 237.819 1237.98 233.886C1225.86 229.953 1215.45 224.135 1206.76 216.433C1198.24 208.73 1191.6 199.225 1186.85 187.917C1182.26 176.61 1179.97 163.581 1179.97 148.832C1179.97 134.083 1182.26 121.054 1186.85 109.746C1191.6 98.4385 1198.24 88.9335 1206.76 81.2311C1215.45 73.5287 1225.86 67.7109 1237.98 63.7778C1250.11 59.8447 1263.55 57.8781 1278.3 57.8781ZM1532.82 222.578C1540.85 222.578 1548.06 221.513 1554.45 219.382C1561.01 217.088 1566.58 213.647 1571.17 209.058C1575.75 204.305 1579.28 198.324 1581.74 191.113C1584.36 183.738 1585.67 174.971 1585.67 164.81V62.7945H1621.31V164.81C1621.31 190.048 1613.61 208.894 1598.21 221.349C1582.8 233.64 1561.01 239.786 1532.82 239.786C1504.47 239.786 1482.59 233.64 1467.18 221.349C1451.94 208.894 1444.32 190.048 1444.32 164.81V62.7945H1479.97V164.81C1479.97 174.971 1481.2 183.738 1483.65 191.113C1486.28 198.324 1489.88 204.305 1494.47 209.058C1499.06 213.647 1504.55 217.088 1510.94 219.382C1517.5 221.513 1524.79 222.578 1532.82 222.578Z" fill="#9691A4"/>
<path d="M1061.95 183.247L1056.82 179.85L1055.8 181.394V183.247H1061.95ZM1061.95 234.869V241.015H1068.09V234.869H1061.95ZM1026.3 234.869H1020.16V241.015H1026.3V234.869ZM1026.3 183.247H1032.45V181.394L1031.42 179.85L1026.3 183.247ZM946.41 62.7945V56.649H934.96L941.289 66.1914L946.41 62.7945ZM985.742 62.7945L990.866 59.4023L989.044 56.649H985.742V62.7945ZM1043.51 150.061L1038.39 153.453L1040.21 156.206H1043.51V150.061ZM1044.74 150.061V156.206H1048.04L1049.86 153.453L1044.74 150.061ZM1102.51 62.7945V56.649H1099.2L1097.38 59.4023L1102.51 62.7945ZM1141.84 62.7945L1146.96 66.1914L1153.29 56.649H1141.84V62.7945ZM1055.8 183.247V234.869H1068.09V183.247H1055.8ZM1061.95 228.724H1026.3V241.015H1061.95V228.724ZM1032.45 234.869V183.247H1020.16V234.869H1032.45ZM1031.42 179.85L951.532 59.3977L941.289 66.1914L1021.18 186.644L1031.42 179.85ZM946.41 68.94H985.742V56.649H946.41V68.94ZM980.617 66.1868L1038.39 153.453L1048.63 146.669L990.866 59.4023L980.617 66.1868ZM1043.51 156.206H1044.74V143.915H1043.51V156.206ZM1049.86 153.453L1107.63 66.1868L1097.38 59.4023L1039.61 146.669L1049.86 153.453ZM1102.51 68.94H1141.84V56.649H1102.51V68.94ZM1136.72 59.3977L1056.82 179.85L1067.07 186.644L1146.96 66.1914L1136.72 59.3977ZM1254.7 79.5103L1252.42 73.8044L1252.39 73.8133L1252.37 73.8224L1254.7 79.5103ZM1222.74 116.138L1216.94 114.103L1216.93 114.133L1216.92 114.163L1222.74 116.138ZM1222.74 181.772L1216.91 183.715L1216.93 183.777L1216.95 183.839L1222.74 181.772ZM1235.77 204.633L1231.18 208.724L1235.77 204.633ZM1254.7 218.153L1252.37 223.841L1252.39 223.85L1252.42 223.859L1254.7 218.153ZM1301.65 218.153L1299.37 212.447L1299.35 212.456L1299.32 212.465L1301.65 218.153ZM1320.82 204.633L1325.41 208.724L1320.82 204.633ZM1333.61 181.772L1327.81 179.737L1327.8 179.767L1327.79 179.797L1333.61 181.772ZM1333.61 116.138L1327.78 118.081L1327.8 118.143L1327.82 118.205L1333.61 116.138ZM1301.65 79.5103L1299.32 85.1983L1299.35 85.2074L1299.37 85.2163L1301.65 79.5103ZM1318.37 63.7778L1316.45 69.6159L1316.46 69.6197L1316.47 69.6236L1318.37 63.7778ZM1349.34 81.2311L1345.22 85.7903L1345.24 85.8098L1345.26 85.8291L1349.34 81.2311ZM1369.5 109.746L1363.83 112.127L1369.5 109.746ZM1349.34 216.433L1345.26 211.835L1345.24 211.854L1345.22 211.873L1349.34 216.433ZM1318.37 233.886L1316.47 228.04L1316.46 228.044L1316.45 228.048L1318.37 233.886ZM1237.98 233.886L1239.88 228.04L1237.98 233.886ZM1206.76 216.433L1202.64 220.992L1202.66 221.011L1202.69 221.031L1206.76 216.433ZM1186.85 187.917L1181.16 190.228L1181.17 190.263L1181.19 190.298L1186.85 187.917ZM1186.85 109.746L1181.19 107.365L1181.17 107.4L1181.16 107.435L1186.85 109.746ZM1206.76 81.2311L1202.69 76.6331L1202.66 76.6524L1202.64 76.6719L1206.76 81.2311ZM1278.3 68.94C1269.2 68.94 1260.55 70.5491 1252.42 73.8044L1256.98 85.2163C1263.59 82.5718 1270.68 81.2311 1278.3 81.2311V68.94ZM1252.37 73.8224C1244.26 77.1413 1237.19 82.2098 1231.18 88.9399L1240.36 97.121C1245.17 91.724 1250.72 87.7791 1257.03 85.1983L1252.37 73.8224ZM1231.18 88.9399C1225.14 95.7185 1220.43 104.165 1216.94 114.103L1228.54 118.172C1231.61 109.428 1235.59 102.47 1240.36 97.121L1231.18 88.9399ZM1216.92 114.163C1213.54 124.135 1211.93 135.733 1211.93 148.832H1224.22C1224.22 136.693 1225.72 126.494 1228.56 118.112L1216.92 114.163ZM1211.93 148.832C1211.93 161.935 1213.54 173.599 1216.91 183.715L1228.57 179.828C1225.72 171.262 1224.22 160.967 1224.22 148.832H1211.93ZM1216.95 183.839C1220.45 193.616 1225.16 201.964 1231.18 208.724L1240.36 200.543C1235.57 195.175 1231.59 188.282 1228.53 179.705L1216.95 183.839ZM1231.18 208.724C1237.19 215.454 1244.26 220.522 1252.37 223.841L1257.03 212.465C1250.72 209.885 1245.17 205.94 1240.36 200.543L1231.18 208.724ZM1252.42 223.859C1260.55 227.115 1269.2 228.724 1278.3 228.724V216.433C1270.68 216.433 1263.59 215.092 1256.98 212.447L1252.42 223.859ZM1278.3 228.724C1287.39 228.724 1295.98 227.115 1303.98 223.841L1299.32 212.465C1292.9 215.092 1285.92 216.433 1278.3 216.433V228.724ZM1303.93 223.859C1312.21 220.548 1319.39 215.48 1325.41 208.724L1316.24 200.543C1311.45 205.914 1305.84 209.859 1299.37 212.447L1303.93 223.859ZM1325.41 208.724C1331.46 201.938 1336.1 193.557 1339.43 183.746L1327.79 179.797C1324.89 188.341 1321 195.201 1316.24 200.543L1325.41 208.724ZM1339.41 183.807C1342.97 173.66 1344.67 161.962 1344.67 148.832H1332.38C1332.38 160.939 1330.8 171.201 1327.81 179.737L1339.41 183.807ZM1344.67 148.832C1344.67 135.706 1342.97 124.074 1339.39 114.071L1327.82 118.205C1330.8 126.555 1332.38 136.72 1332.38 148.832H1344.67ZM1339.44 114.194C1336.11 104.224 1331.48 95.7446 1325.41 88.9399L1316.24 97.121C1320.99 102.444 1324.87 109.368 1327.78 118.081L1339.44 114.194ZM1325.41 88.9399C1319.39 82.1838 1312.21 77.1155 1303.93 73.8044L1299.37 85.2163C1305.84 87.8048 1311.45 91.75 1316.24 97.121L1325.41 88.9399ZM1303.98 73.8224C1295.98 70.5489 1287.39 68.94 1278.3 68.94V81.2311C1285.92 81.2311 1292.9 82.572 1299.32 85.1983L1303.98 73.8224ZM1278.3 64.0236C1292.5 64.0236 1305.2 65.9178 1316.45 69.6159L1320.29 57.9397C1307.61 53.7715 1293.59 51.7326 1278.3 51.7326V64.0236ZM1316.47 69.6236C1327.86 73.319 1337.41 78.7297 1345.22 85.7903L1353.46 76.6719C1344.23 68.3277 1333.12 62.1029 1320.26 57.932L1316.47 69.6236ZM1345.26 85.8291C1353.22 92.8863 1359.41 101.619 1363.83 112.127L1375.16 107.365C1370.07 95.258 1362.83 84.9806 1353.42 76.6331L1345.26 85.8291ZM1363.83 112.127C1368.21 122.545 1370.48 134.738 1370.48 148.832H1382.77C1382.77 133.427 1380.29 119.563 1375.16 107.365L1363.83 112.127ZM1370.48 148.832C1370.48 162.925 1368.21 175.119 1363.83 185.536L1375.16 190.298C1380.29 178.101 1382.77 164.237 1382.77 148.832H1370.48ZM1363.83 185.536C1359.41 196.045 1353.22 204.777 1345.26 211.835L1353.42 221.031C1362.83 212.683 1370.07 202.406 1375.16 190.298L1363.83 185.536ZM1345.22 211.873C1337.41 218.934 1327.86 224.345 1316.47 228.04L1320.26 239.732C1333.12 235.561 1344.23 229.336 1353.46 220.992L1345.22 211.873ZM1316.45 228.048C1305.2 231.746 1292.5 233.64 1278.3 233.64V245.931C1293.59 245.931 1307.61 243.892 1320.29 239.724L1316.45 228.048ZM1278.3 233.64C1264.09 233.64 1251.31 231.746 1239.88 228.04L1236.09 239.732C1248.91 243.892 1263 245.931 1278.3 245.931V233.64ZM1239.88 228.04C1228.48 224.342 1218.83 218.922 1210.84 211.835L1202.69 221.031C1212.07 229.348 1223.23 235.563 1236.09 239.732L1239.88 228.04ZM1210.88 211.873C1203.08 204.815 1196.95 196.071 1192.52 185.536L1181.19 190.298C1186.26 202.379 1193.41 212.645 1202.64 220.992L1210.88 211.873ZM1192.55 185.607C1188.31 175.169 1186.11 162.95 1186.11 148.832H1173.82C1173.82 164.212 1176.22 178.051 1181.16 190.228L1192.55 185.607ZM1186.11 148.832C1186.11 134.714 1188.31 122.495 1192.55 112.057L1181.16 107.435C1176.22 119.613 1173.82 133.452 1173.82 148.832H1186.11ZM1192.52 112.127C1196.95 101.593 1203.08 92.8482 1210.88 85.7903L1202.64 76.6719C1193.41 85.0187 1186.26 95.2844 1181.19 107.365L1192.52 112.127ZM1210.84 85.8291C1218.83 78.7415 1228.48 73.3213 1239.88 69.6236L1236.09 57.932C1223.23 62.1005 1212.07 68.3159 1202.69 76.6331L1210.84 85.8291ZM1239.88 69.6236C1251.31 65.9174 1264.09 64.0236 1278.3 64.0236V51.7326C1263 51.7326 1248.91 53.7719 1236.09 57.932L1239.88 69.6236ZM1554.45 219.382L1556.39 225.213L1556.44 225.198L1556.48 225.183L1554.45 219.382ZM1571.17 209.058L1575.51 213.403L1575.55 213.365L1575.59 213.327L1571.17 209.058ZM1581.74 191.113L1575.95 189.054L1575.93 189.092L1575.92 189.13L1581.74 191.113ZM1585.67 62.7945V56.649H1579.52V62.7945H1585.67ZM1621.31 62.7945H1627.46V56.649H1621.31V62.7945ZM1598.21 221.349L1602.04 226.153L1602.05 226.14L1602.07 226.128L1598.21 221.349ZM1467.18 221.349L1463.3 226.108L1463.32 226.13L1463.35 226.153L1467.18 221.349ZM1444.32 62.7945V56.649H1438.18V62.7945H1444.32ZM1479.97 62.7945H1486.11V56.649H1479.97V62.7945ZM1483.65 191.113L1477.82 193.056L1477.85 193.135L1477.88 193.213L1483.65 191.113ZM1494.47 209.058L1490.05 213.327L1490.09 213.365L1490.12 213.403L1494.47 209.058ZM1510.94 219.382L1508.86 225.167L1508.95 225.198L1509.04 225.227L1510.94 219.382ZM1532.82 228.724C1541.39 228.724 1549.27 227.588 1556.39 225.213L1552.51 213.552C1546.85 215.438 1540.31 216.433 1532.82 216.433V228.724ZM1556.48 225.183C1563.84 222.606 1570.23 218.69 1575.51 213.403L1566.82 204.712C1562.93 208.603 1558.17 211.571 1552.42 213.582L1556.48 225.183ZM1575.59 213.327C1580.89 207.832 1584.85 201.031 1587.55 193.096L1575.92 189.13C1573.71 195.616 1570.62 200.779 1566.75 204.789L1575.59 213.327ZM1587.53 193.172C1590.44 184.972 1591.82 175.474 1591.82 164.81H1579.52C1579.52 174.467 1578.27 182.504 1575.95 189.054L1587.53 193.172ZM1591.82 164.81V62.7945H1579.52V164.81H1591.82ZM1585.67 68.94H1621.31V56.649H1585.67V68.94ZM1615.17 62.7945V164.81H1627.46V62.7945H1615.17ZM1615.17 164.81C1615.17 188.745 1607.92 205.59 1594.34 216.57L1602.07 226.128C1619.3 212.198 1627.46 191.351 1627.46 164.81H1615.17ZM1594.37 216.545C1580.44 227.662 1560.2 233.64 1532.82 233.64V245.931C1561.81 245.931 1585.16 239.618 1602.04 226.153L1594.37 216.545ZM1532.82 233.64C1505.26 233.64 1484.94 227.658 1471.02 216.545L1463.35 226.153C1480.23 239.622 1503.67 245.931 1532.82 245.931V233.64ZM1471.07 216.59C1457.65 205.618 1450.47 188.767 1450.47 164.81H1438.18C1438.18 191.329 1446.24 212.17 1463.3 226.108L1471.07 216.59ZM1450.47 164.81V62.7945H1438.18V164.81H1450.47ZM1444.32 68.94H1479.97V56.649H1444.32V68.94ZM1473.82 62.7945V164.81H1486.11V62.7945H1473.82ZM1473.82 164.81C1473.82 175.44 1475.1 184.896 1477.82 193.056L1489.48 189.17C1487.29 182.58 1486.11 174.501 1486.11 164.81H1473.82ZM1477.88 193.213C1480.75 201.104 1484.77 207.862 1490.05 213.327L1498.89 204.789C1494.99 200.749 1491.8 195.544 1489.43 189.013L1477.88 193.213ZM1490.12 213.403C1495.38 218.663 1501.66 222.581 1508.86 225.167L1513.02 213.598C1507.44 211.596 1502.73 208.63 1498.82 204.712L1490.12 213.403ZM1509.04 225.227C1516.3 227.587 1524.25 228.724 1532.82 228.724V216.433C1525.33 216.433 1518.69 215.439 1512.84 213.538L1509.04 225.227Z" fill="#9691A4"/>
</g>
</svg>
