<svg width="134" height="25" viewBox="0 0 134 25" fill="none" xmlns="http://www.w3.org/2000/svg">
<path d="M9.4 17.9C10.3067 17.9 11.1733 17.7467 12 17.44C12.84 17.12 13.64 16.6067 14.4 15.9L15.4 17.1C14.64 17.8067 13.72 18.3667 12.64 18.78C11.56 19.1933 10.4133 19.4 9.2 19.4C7.94667 19.4 6.81333 19.24 5.8 18.92C4.8 18.6 3.94 18.1267 3.22 17.5C2.51333 16.8733 1.96667 16.1 1.58 15.18C1.19333 14.26 1 13.2 1 12C1 10.8 1.18667 9.74 1.56 8.82C1.94667 7.9 2.48667 7.12667 3.18 6.5C3.88667 5.87333 4.73333 5.4 5.72 5.08C6.70667 4.76 7.8 4.6 9 4.6C10.2133 4.6 11.36 4.80667 12.44 5.22C13.52 5.63333 14.44 6.19333 15.2 6.9L14.2 8.1C13.44 7.39333 12.64 6.88667 11.8 6.58C10.9733 6.26 10.1067 6.1 9.2 6.1C8.48 6.1 7.80667 6.22 7.18 6.46C6.55333 6.68667 6.01333 7.04 5.56 7.52C5.10667 8 4.74667 8.61333 4.48 9.36C4.22667 10.0933 4.1 10.9733 4.1 12C4.1 13.0267 4.22667 13.9133 4.48 14.66C4.74667 15.3933 5.11333 16 5.58 16.48C6.06 16.96 6.62 17.32 7.26 17.56C7.91333 17.7867 8.62667 17.9 9.4 17.9ZM24.0008 14.1H30.2008L27.2008 6.7H27.0008L24.0008 14.1ZM29.4008 5L35.1008 19H32.2208L30.9008 15.6H23.3008L21.9808 19H19.1008L24.8008 5H29.4008ZM52.807 15.3C52.807 15.8733 52.687 16.4133 52.447 16.92C52.207 17.4133 51.8137 17.8467 51.267 18.22C50.7337 18.58 50.0337 18.8667 49.167 19.08C48.3137 19.2933 47.2604 19.4 46.007 19.4C45.3004 19.4 44.607 19.3467 43.927 19.24C43.2604 19.1333 42.6204 18.98 42.007 18.78C41.407 18.58 40.847 18.34 40.327 18.06C39.8204 17.7667 39.3804 17.4467 39.007 17.1L40.007 15.9C40.767 16.5533 41.6537 17.0533 42.667 17.4C43.6804 17.7333 44.7937 17.9 46.007 17.9C47.3537 17.9 48.307 17.7133 48.867 17.34C49.427 16.9667 49.707 16.4533 49.707 15.8C49.707 15.2933 49.487 14.8667 49.047 14.52C48.607 14.1733 47.8604 13.8333 46.807 13.5L43.007 12.3C41.7537 11.9 40.807 11.3933 40.167 10.78C39.527 10.1533 39.207 9.36 39.207 8.4C39.207 7.90667 39.3204 7.43333 39.547 6.98C39.787 6.51333 40.1537 6.10667 40.647 5.76C41.1404 5.4 41.767 5.12 42.527 4.92C43.3004 4.70667 44.227 4.6 45.307 4.6C45.9604 4.6 46.607 4.65333 47.247 4.76C47.9004 4.86667 48.5204 5.02 49.107 5.22C49.707 5.42 50.2604 5.66667 50.767 5.96C51.287 6.24 51.7337 6.55333 52.107 6.9L51.107 8.1C50.347 7.44667 49.4937 6.95333 48.547 6.62C47.6004 6.27333 46.5204 6.1 45.307 6.1C44.307 6.1 43.5537 6.27333 43.047 6.62C42.5537 6.96667 42.307 7.39333 42.307 7.9C42.307 8.18 42.3537 8.42667 42.447 8.64C42.5404 8.84 42.6937 9.03333 42.907 9.22C43.1337 9.39333 43.427 9.56 43.787 9.72C44.147 9.86667 44.5937 10.0267 45.127 10.2L48.907 11.4C50.1204 11.7867 51.0737 12.2933 51.767 12.92C52.4604 13.5467 52.807 14.34 52.807 15.3ZM71.907 5V19H69.007V12.9H60.807V19H57.907V5H60.807V11.4H69.007V5H71.907Z" fill="#1F1B2D"/>
<path d="M12 17.44L12.1739 17.9088L12.178 17.9072L12 17.44ZM14.4 15.9L14.7841 15.5799L14.4461 15.1743L14.0595 15.5338L14.4 15.9ZM15.4 17.1L15.7405 17.4662L16.0873 17.1437L15.7841 16.7799L15.4 17.1ZM5.8 18.92L5.64761 19.3962L5.64943 19.3968L5.8 18.92ZM3.22 17.5L2.88824 17.8741L2.89174 17.8772L3.22 17.5ZM1.58 15.18L2.04094 14.9863L1.58 15.18ZM1.56 8.82L1.09902 8.62626L1.09669 8.63199L1.56 8.82ZM3.18 6.5L2.84824 6.12589L2.84473 6.12906L3.18 6.5ZM12.44 5.22L12.2613 5.68697L12.44 5.22ZM15.2 6.9L15.5841 7.22009L15.8873 6.8563L15.5405 6.53383L15.2 6.9ZM14.2 8.1L13.8595 8.46617L14.2461 8.82565L14.5841 8.42009L14.2 8.1ZM11.8 6.58L11.6195 7.04637L11.6285 7.04968L11.8 6.58ZM7.18 6.46L7.3501 6.93027L7.35882 6.92693L7.18 6.46ZM5.56 7.52L5.92351 7.86331L5.92351 7.86331L5.56 7.52ZM4.48 9.36L4.0091 9.19182L4.0074 9.19674L4.48 9.36ZM4.48 14.66L4.0064 14.8207L4.0101 14.8309L4.48 14.66ZM5.58 16.48L5.22147 16.8286L5.22645 16.8336L5.58 16.48ZM7.26 17.56L7.08438 18.0283L7.09611 18.0324L7.26 17.56ZM9.4 18.4C10.3643 18.4 11.29 18.2367 12.1739 17.9088L11.8261 16.9712C11.0567 17.2567 10.249 17.4 9.4 17.4V18.4ZM12.178 17.9072C13.0867 17.5611 13.9405 17.01 14.7405 16.2662L14.0595 15.5338C13.3395 16.2034 12.5933 16.6789 11.822 16.9728L12.178 17.9072ZM14.0159 16.2201L15.0159 17.4201L15.7841 16.7799L14.7841 15.5799L14.0159 16.2201ZM15.0595 16.7338C14.3516 17.3921 13.4882 17.92 12.4613 18.313L12.8187 19.247C13.9518 18.8133 14.9284 18.2212 15.7405 17.4662L15.0595 16.7338ZM12.4613 18.313C11.4411 18.7035 10.3553 18.9 9.2 18.9V19.9C10.4714 19.9 11.6789 19.6832 12.8187 19.247L12.4613 18.313ZM9.2 18.9C7.98883 18.9 6.90736 18.7454 5.95057 18.4432L5.64943 19.3968C6.7193 19.7346 7.9045 19.9 9.2 19.9V18.9ZM5.95239 18.4438C5.01063 18.1424 4.21206 17.7006 3.54826 17.1228L2.89174 17.8772C3.66794 18.5527 4.58938 19.0576 5.64761 19.3962L5.95239 18.4438ZM3.55174 17.1259C2.90427 16.5517 2.40028 15.8412 2.04094 14.9863L1.11906 15.3737C1.53306 16.3588 2.1224 17.1949 2.88826 17.8741L3.55174 17.1259ZM2.04094 14.9863C1.68471 14.1387 1.5 13.1466 1.5 12H0.5C0.5 13.2534 0.701953 14.3813 1.11906 15.3737L2.04094 14.9863ZM1.5 12C1.5 10.8513 1.67869 9.85724 2.02331 9.00801L1.09669 8.63199C0.694641 9.62276 0.5 10.7487 0.5 12H1.5ZM2.02094 9.01373C2.38118 8.15662 2.87995 7.44517 3.51527 6.87094L2.84473 6.12906C2.09339 6.80816 1.51216 7.64338 1.09906 8.62627L2.02094 9.01373ZM3.51174 6.87409C4.16201 6.29745 4.94663 5.85646 5.87425 5.55561L5.56575 4.60439C4.52004 4.94354 3.61133 5.44922 2.84826 6.12591L3.51174 6.87409ZM5.87425 5.55561C6.80398 5.25408 7.84433 5.1 9 5.1V4.1C7.75567 4.1 6.60935 4.26592 5.56575 4.60439L5.87425 5.55561ZM9 5.1C10.1553 5.1 11.2411 5.29653 12.2613 5.68697L12.6187 4.75303C11.4789 4.3168 10.2714 4.1 9 4.1V5.1ZM12.2613 5.68697C13.2882 6.08 14.1516 6.60788 14.8595 7.26617L15.5405 6.53383C14.7284 5.77878 13.7518 5.18667 12.6187 4.75303L12.2613 5.68697ZM14.8159 6.57991L13.8159 7.77991L14.5841 8.42009L15.5841 7.22009L14.8159 6.57991ZM14.5405 7.73383C13.7394 6.98895 12.8834 6.44324 11.9715 6.11032L11.6285 7.04968C12.3966 7.33009 13.1406 7.79772 13.8595 8.46617L14.5405 7.73383ZM11.9805 6.11371C11.0949 5.77092 10.167 5.6 9.2 5.6V6.6C10.0464 6.6 10.8517 6.74908 11.6195 7.04628L11.9805 6.11371ZM9.2 5.6C8.42336 5.6 7.68898 5.72966 7.00118 5.99307L7.35882 6.92693C7.92436 6.71034 8.53664 6.6 9.2 6.6V5.6ZM7.00993 5.98981C6.31047 6.24281 5.70402 6.63931 5.19649 7.17669L5.92351 7.86331C6.32265 7.44069 6.7962 7.13052 7.35007 6.93019L7.00993 5.98981ZM5.19649 7.17669C4.68709 7.71606 4.29449 8.39283 4.00913 9.19183L4.95087 9.52817C5.19885 8.83384 5.52625 8.28394 5.92351 7.86331L5.19649 7.17669ZM4.0074 9.19674C3.73113 9.99647 3.6 10.9347 3.6 12H4.6C4.6 11.012 4.7222 10.1902 4.9526 9.52326L4.0074 9.19674ZM3.6 12C3.6 13.0657 3.73123 14.0093 4.00651 14.8206L4.95349 14.4994C4.7221 13.8174 4.6 12.9876 4.6 12H3.6ZM4.0101 14.8309C4.29696 15.6197 4.69807 16.2901 5.2215 16.8285L5.9385 16.1315C5.5286 15.7099 5.19637 15.1669 4.9499 14.4891L4.0101 14.8309ZM5.22645 16.8336C5.75728 17.3644 6.37809 17.7633 7.08444 18.0282L7.43556 17.0918C6.86192 16.8767 6.36272 16.5556 5.93355 16.1264L5.22645 16.8336ZM7.09611 18.0324C7.808 18.2794 8.57742 18.4 9.4 18.4V17.4C8.67591 17.4 8.01867 17.294 7.42389 17.0876L7.09611 18.0324ZM24.0008 14.1L23.5374 13.9121L23.2586 14.6H24.0008V14.1ZM30.2008 14.1V14.6H30.943L30.6642 13.9121L30.2008 14.1ZM27.2008 6.7L27.6642 6.51215L27.5376 6.2H27.2008V6.7ZM27.0008 6.7V6.2H26.664L26.5374 6.51215L27.0008 6.7ZM29.4008 5L29.8639 4.81146L29.7371 4.5H29.4008V5ZM35.1008 19V19.5H35.8442L35.5639 18.8115L35.1008 19ZM32.2208 19L31.7547 19.181L31.8785 19.5H32.2208V19ZM30.9008 15.6L31.3669 15.419L31.243 15.1H30.9008V15.6ZM23.3008 15.6V15.1H22.9585L22.8347 15.419L23.3008 15.6ZM21.9808 19V19.5H22.323L22.4469 19.181L21.9808 19ZM19.1008 19L18.6377 18.8115L18.3574 19.5H19.1008V19ZM24.8008 5V4.5H24.4645L24.3377 4.81146L24.8008 5ZM24.0008 14.6H30.2008V13.6H24.0008V14.6ZM30.6642 13.9121L27.6642 6.51215L26.7374 6.88785L29.7374 14.2879L30.6642 13.9121ZM27.2008 6.2H27.0008V7.2H27.2008V6.2ZM26.5374 6.51215L23.5374 13.9121L24.4642 14.2879L27.4642 6.88785L26.5374 6.51215ZM28.9377 5.18854L34.6377 19.1885L35.5639 18.8115L29.8639 4.81146L28.9377 5.18854ZM35.1008 18.5H32.2208V19.5H35.1008V18.5ZM32.6869 18.819L31.3669 15.419L30.4347 15.781L31.7547 19.181L32.6869 18.819ZM30.9008 15.1H23.3008V16.1H30.9008V15.1ZM22.8347 15.419L21.5147 18.819L22.4469 19.181L23.7669 15.781L22.8347 15.419ZM21.9808 18.5H19.1008V19.5H21.9808V18.5ZM19.5639 19.1885L25.2639 5.18854L24.3377 4.81146L18.6377 18.8115L19.5639 19.1885ZM24.8008 5.5H29.4008V4.5H24.8008V5.5ZM52.447 16.92L52.8967 17.1387L52.8989 17.134L52.447 16.92ZM51.267 18.22L51.5468 18.6344L51.549 18.6329L51.267 18.22ZM49.167 19.08L49.0475 18.5945L49.0458 18.5949L49.167 19.08ZM43.927 19.24L43.848 19.7337L43.8495 19.734L43.927 19.24ZM42.007 18.78L41.8489 19.2544L41.852 19.2554L42.007 18.78ZM40.327 18.06L40.0765 18.4927L40.0832 18.4966L40.09 18.5002L40.327 18.06ZM39.007 17.1L38.6229 16.7799L38.3196 17.1439L38.6668 17.4664L39.007 17.1ZM40.007 15.9L40.333 15.5208L39.948 15.1899L39.6229 15.5799L40.007 15.9ZM42.667 17.4L42.5052 17.8731L42.5108 17.875L42.667 17.4ZM48.867 17.34L48.5897 16.924L48.867 17.34ZM46.807 13.5L46.9579 13.0233L46.9576 13.0232L46.807 13.5ZM43.007 12.3L42.855 12.7763L42.8565 12.7768L43.007 12.3ZM40.167 10.78L39.8172 11.1373L39.8211 11.141L40.167 10.78ZM39.547 6.98L39.1024 6.75131L39.0998 6.75639L39.547 6.98ZM40.647 5.76L40.9346 6.16916L40.9418 6.16389L40.647 5.76ZM42.527 4.92L42.6543 5.40357L42.66 5.402L42.527 4.92ZM47.247 4.76L47.1648 5.2532L47.1665 5.25347L47.247 4.76ZM49.107 5.22L48.9457 5.69327L48.9489 5.69434L49.107 5.22ZM50.767 5.96L50.5165 6.39271L50.5232 6.39658L50.53 6.40024L50.767 5.96ZM52.107 6.9L52.4911 7.22009L52.7945 6.85605L52.4473 6.5336L52.107 6.9ZM51.107 8.1L50.7811 8.47916L51.1661 8.81014L51.4911 8.42009L51.107 8.1ZM48.547 6.62L48.3751 7.08955L48.381 7.09162L48.547 6.62ZM43.047 6.62L42.7647 6.20731L42.7596 6.2109L43.047 6.62ZM42.447 8.64L41.9888 8.84047L41.9939 8.85144L42.447 8.64ZM42.907 9.22L42.5778 9.59629L42.5902 9.60715L42.6033 9.61718L42.907 9.22ZM43.787 9.72L43.584 10.1769L43.5911 10.1801L43.5984 10.183L43.787 9.72ZM45.127 10.2L44.9725 10.6755L44.9757 10.6766L45.127 10.2ZM48.907 11.4L49.0588 10.9236L49.0583 10.9234L48.907 11.4ZM51.767 12.92L52.1023 12.5491L51.767 12.92ZM52.307 15.3C52.307 15.801 52.2027 16.2677 51.9952 16.706L52.8989 17.134C53.1713 16.5589 53.307 15.9456 53.307 15.3H52.307ZM51.9974 16.7013C51.8026 17.1017 51.4747 17.4727 50.9851 17.8071L51.549 18.6329C52.1527 18.2206 52.6115 17.725 52.8966 17.1387L51.9974 16.7013ZM50.9873 17.8056C50.5177 18.1226 49.8775 18.3902 49.0475 18.5945L49.2865 19.5655C50.1899 19.3431 50.9497 19.0374 51.5468 18.6344L50.9873 17.8056ZM49.0458 18.5949C48.2449 18.7951 47.2352 18.9 46.007 18.9V19.9C47.2855 19.9 48.3825 19.7915 49.2883 19.5651L49.0458 18.5949ZM46.007 18.9C45.3256 18.9 44.6582 18.8486 44.0045 18.746L43.8495 19.734C44.5559 19.8448 45.2751 19.9 46.007 19.9V18.9ZM44.006 18.7463C43.3639 18.6435 42.7494 18.4962 42.162 18.3046L41.852 19.2554C42.4913 19.4638 43.1568 19.6231 43.848 19.7337L44.006 18.7463ZM42.1651 18.3057C41.5905 18.1141 41.0571 17.8852 40.5641 17.6198L40.09 18.5002C40.637 18.7948 41.2236 19.0459 41.8489 19.2543L42.1651 18.3057ZM40.5775 17.6273C40.0985 17.3499 39.6896 17.0515 39.3473 16.7336L38.6668 17.4664C39.0712 17.8419 39.5422 18.1834 40.0765 18.4927L40.5775 17.6273ZM39.3911 17.4201L40.3911 16.2201L39.6229 15.5799L38.6229 16.7799L39.3911 17.4201ZM39.6811 16.2792C40.4925 16.9767 41.4359 17.5073 42.5052 17.8731L42.8289 16.9269C41.8715 16.5994 41.0415 16.1299 40.333 15.5208L39.6811 16.2792ZM42.5108 17.875C43.5809 18.227 44.7478 18.4 46.007 18.4V17.4C44.8396 17.4 43.7798 17.2397 42.8233 16.925L42.5108 17.875ZM46.007 18.4C47.3708 18.4 48.4537 18.2165 49.1444 17.756L48.5897 16.924C48.1604 17.2102 47.3366 17.4 46.007 17.4V18.4ZM49.1444 17.756C49.8384 17.2933 50.207 16.6265 50.207 15.8H49.207C49.207 16.2802 49.0156 16.64 48.5897 16.924L49.1444 17.756ZM50.207 15.8C50.207 15.1226 49.9023 14.5573 49.3565 14.1273L48.7376 14.9127C49.0718 15.176 49.207 15.4641 49.207 15.8H50.207ZM49.3565 14.1273C48.8426 13.7224 48.0239 13.3607 46.9579 13.0233L46.6562 13.9767C47.6968 14.306 48.3715 14.6243 48.7376 14.9127L49.3565 14.1273ZM46.9576 13.0232L43.1576 11.8232L42.8565 12.7768L46.6565 13.9768L46.9576 13.0232ZM43.1591 11.8237C41.946 11.4365 41.0779 10.9603 40.513 10.419L39.8211 11.141C40.5362 11.8263 41.5614 12.3635 42.855 12.7763L43.1591 11.8237ZM40.5168 10.4227C39.9803 9.89737 39.707 9.23628 39.707 8.4H38.707C38.707 9.48372 39.0738 10.4093 39.8172 11.1373L40.5168 10.4227ZM39.707 8.4C39.707 7.98646 39.8013 7.58948 39.9942 7.20361L39.0998 6.75639C38.8394 7.27719 38.707 7.82687 38.707 8.4H39.707ZM39.9917 7.20867C40.1895 6.82405 40.4975 6.47621 40.9345 6.16909L40.3596 5.3509C39.8099 5.73713 39.3846 6.20261 39.1024 6.75133L39.9917 7.20867ZM40.9418 6.16389C41.3726 5.84952 41.9381 5.59201 42.6543 5.40354L42.3998 4.43646C41.596 4.64799 40.9082 4.95047 40.3523 5.3561L40.9418 6.16389ZM42.66 5.402C43.378 5.20392 44.2575 5.1 45.307 5.1V4.1C44.1965 4.1 43.2227 4.20941 42.3941 4.438L42.66 5.402ZM45.307 5.1C45.933 5.1 46.5522 5.15109 47.1648 5.2532L47.3292 4.2668C46.6619 4.15558 45.9877 4.1 45.307 4.1V5.1ZM47.1665 5.25347C47.7942 5.35595 48.3871 5.50281 48.9457 5.69325L49.2684 4.74674C48.6537 4.53719 48.0065 4.37738 47.3276 4.26653L47.1665 5.25347ZM48.9489 5.69434C49.5193 5.88448 50.0414 6.11764 50.5165 6.39271L51.0176 5.52729C50.4793 5.21569 49.8947 4.95552 49.2651 4.74566L48.9489 5.69434ZM50.53 6.40024C51.0184 6.66322 51.4291 6.95278 51.7668 7.2664L52.4473 6.5336C52.0383 6.15389 51.5557 5.81678 51.0041 5.51976L50.53 6.40024ZM51.7229 6.57991L50.7229 7.77991L51.4911 8.42009L52.4911 7.22009L51.7229 6.57991ZM51.433 7.72084C50.6258 7.02697 49.7183 6.50231 48.7131 6.14838L48.381 7.09162C49.2691 7.40436 50.0682 7.86636 50.7811 8.47916L51.433 7.72084ZM48.719 6.15049C47.7073 5.78002 46.5674 5.6 45.307 5.6V6.6C46.4733 6.6 47.4934 6.76665 48.3751 7.08951L48.719 6.15049ZM45.307 5.6C44.2639 5.6 43.3919 5.77817 42.7647 6.20735L43.3294 7.03265C43.7155 6.7685 44.3501 6.6 45.307 6.6V5.6ZM42.7596 6.2109C42.1619 6.6309 41.807 7.19813 41.807 7.9H42.807C42.807 7.58854 42.9455 7.30243 43.3345 7.0291L42.7596 6.2109ZM41.807 7.9C41.807 8.23528 41.863 8.55243 41.989 8.84041L42.9051 8.43959C42.8444 8.3009 42.807 8.12471 42.807 7.9H41.807ZM41.9939 8.85144C42.1237 9.12958 42.3264 9.37637 42.5778 9.59629L43.2363 8.84371C43.061 8.6903 42.957 8.55042 42.9001 8.42856L41.9939 8.85144ZM42.6033 9.61718C42.8703 9.82136 43.2007 10.0066 43.584 10.1769L43.9901 9.26309C43.6534 9.11345 43.3971 8.96531 43.2108 8.82282L42.6033 9.61718ZM43.5984 10.183C43.9733 10.3358 44.4322 10.4999 44.9725 10.6755L45.2816 9.72448C44.7552 9.55341 44.3208 9.39754 43.9757 9.25695L43.5984 10.183ZM44.9757 10.6766L48.7557 11.8766L49.0583 10.9234L45.2783 9.72344L44.9757 10.6766ZM48.7552 11.8764C49.9238 12.2488 50.8069 12.7261 51.4318 13.2909L52.1023 12.5491C51.3405 11.8605 50.3169 11.3245 49.0588 10.9236L48.7552 11.8764ZM51.4318 13.2909C52.017 13.8199 52.307 14.477 52.307 15.3H53.307C53.307 14.203 52.9037 13.2734 52.1023 12.5491L51.4318 13.2909ZM71.907 5H72.407V4.5H71.907V5ZM71.907 19V19.5H72.407V19H71.907ZM69.007 19H68.507V19.5H69.007V19ZM69.007 12.9H69.507V12.4H69.007V12.9ZM60.807 12.9V12.4H60.307V12.9H60.807ZM60.807 19V19.5H61.307V19H60.807ZM57.907 19H57.407V19.5H57.907V19ZM57.907 5V4.5H57.407V5H57.907ZM60.807 5H61.307V4.5H60.807V5ZM60.807 11.4H60.307V11.9H60.807V11.4ZM69.007 11.4V11.9H69.507V11.4H69.007ZM69.007 5V4.5H68.507V5H69.007ZM71.407 5V19H72.407V5H71.407ZM71.907 18.5H69.007V19.5H71.907V18.5ZM69.507 19V12.9H68.507V19H69.507ZM69.007 12.4H60.807V13.4H69.007V12.4ZM60.307 12.9V19H61.307V12.9H60.307ZM60.807 18.5H57.907V19.5H60.807V18.5ZM58.407 19V5H57.407V19H58.407ZM57.907 5.5H60.807V4.5H57.907V5.5ZM60.307 5V11.4H61.307V5H60.307ZM60.807 11.9H69.007V10.9H60.807V11.9ZM69.507 11.4V5H68.507V11.4H69.507ZM69.007 5.5H71.907V4.5H69.007V5.5Z" fill="#1F1B2D"/>
<path d="M86.4 14.8V19H83.5V14.8L77 5H80.2L84.9 12.1H85L89.7 5H92.9L86.4 14.8ZM104.002 6C103.322 6 102.682 6.12 102.082 6.36C101.496 6.6 100.982 6.96667 100.542 7.46C100.102 7.95333 99.749 8.58 99.4823 9.34C99.229 10.0867 99.1023 10.9733 99.1023 12C99.1023 13.0267 99.229 13.92 99.4823 14.68C99.749 15.4267 100.102 16.0467 100.542 16.54C100.982 17.0333 101.496 17.4 102.082 17.64C102.682 17.88 103.322 18 104.002 18C104.682 18 105.316 17.88 105.902 17.64C106.502 17.4 107.022 17.0333 107.462 16.54C107.902 16.0467 108.249 15.4267 108.502 14.68C108.769 13.92 108.902 13.0267 108.902 12C108.902 10.9733 108.769 10.0867 108.502 9.34C108.249 8.58 107.902 7.95333 107.462 7.46C107.022 6.96667 106.502 6.6 105.902 6.36C105.316 6.12 104.682 6 104.002 6ZM104.002 4.6C105.202 4.6 106.289 4.76 107.262 5.08C108.249 5.4 109.089 5.87333 109.782 6.5C110.489 7.12667 111.036 7.9 111.422 8.82C111.809 9.74 112.002 10.8 112.002 12C112.002 13.2 111.809 14.26 111.422 15.18C111.036 16.1 110.489 16.8733 109.782 17.5C109.089 18.1267 108.249 18.6 107.262 18.92C106.289 19.24 105.202 19.4 104.002 19.4C102.802 19.4 101.709 19.24 100.722 18.92C99.7357 18.6 98.889 18.1267 98.1823 17.5C97.489 16.8733 96.949 16.1 96.5623 15.18C96.189 14.26 96.0023 13.2 96.0023 12C96.0023 10.8 96.189 9.74 96.5623 8.82C96.949 7.9 97.489 7.12667 98.1823 6.5C98.889 5.87333 99.7357 5.4 100.722 5.08C101.709 4.76 102.802 4.6 104.002 4.6ZM124.71 18C125.363 18 125.95 17.9133 126.47 17.74C127.003 17.5533 127.457 17.2733 127.83 16.9C128.203 16.5133 128.49 16.0267 128.69 15.44C128.903 14.84 129.01 14.1267 129.01 13.3V5H131.91V13.3C131.91 15.3533 131.283 16.8867 130.03 17.9C128.777 18.9 127.003 19.4 124.71 19.4C122.403 19.4 120.623 18.9 119.37 17.9C118.13 16.8867 117.51 15.3533 117.51 13.3V5H120.41V13.3C120.41 14.1267 120.51 14.84 120.71 15.44C120.923 16.0267 121.217 16.5133 121.59 16.9C121.963 17.2733 122.41 17.5533 122.93 17.74C123.463 17.9133 124.057 18 124.71 18Z" fill="#666276"/>
<path d="M86.4 14.8L85.9833 14.5236L85.9 14.6493V14.8H86.4ZM86.4 19V19.5H86.9V19H86.4ZM83.5 19H83V19.5H83.5V19ZM83.5 14.8H84V14.6493L83.9167 14.5236L83.5 14.8ZM77 5V4.5H76.0684L76.5833 5.27637L77 5ZM80.2 5L80.6169 4.72401L80.4686 4.5H80.2V5ZM84.9 12.1L84.4831 12.376L84.6314 12.6H84.9V12.1ZM85 12.1V12.6H85.2686L85.4169 12.376L85 12.1ZM89.7 5V4.5H89.4314L89.2831 4.72401L89.7 5ZM92.9 5L93.3167 5.27637L93.8316 4.5H92.9V5ZM85.9 14.8V19H86.9V14.8H85.9ZM86.4 18.5H83.5V19.5H86.4V18.5ZM84 19V14.8H83V19H84ZM83.9167 14.5236L77.4167 4.72363L76.5833 5.27637L83.0833 15.0764L83.9167 14.5236ZM77 5.5H80.2V4.5H77V5.5ZM79.7831 5.27599L84.4831 12.376L85.3169 11.824L80.6169 4.72401L79.7831 5.27599ZM84.9 12.6H85V11.6H84.9V12.6ZM85.4169 12.376L90.1169 5.27599L89.2831 4.72401L84.5831 11.824L85.4169 12.376ZM89.7 5.5H92.9V4.5H89.7V5.5ZM92.4833 4.72363L85.9833 14.5236L86.8167 15.0764L93.3167 5.27637L92.4833 4.72363ZM102.082 6.36L101.897 5.89575L101.893 5.89723L102.082 6.36ZM99.4823 9.34L99.0105 9.17445L99.0089 9.17935L99.4823 9.34ZM99.4823 14.68L99.0079 14.8381L99.0115 14.8482L99.4823 14.68ZM100.542 16.54L100.169 16.8728L100.542 16.54ZM102.082 17.64L101.893 18.1028L101.897 18.1042L102.082 17.64ZM105.902 17.64L105.717 17.1757L105.713 17.1772L105.902 17.64ZM107.462 16.54L107.835 16.8728L107.462 16.54ZM108.502 14.68L108.031 14.5144L108.029 14.5194L108.502 14.68ZM108.502 9.34L108.028 9.49815L108.031 9.50817L108.502 9.34ZM105.902 6.36L105.713 6.82279L105.717 6.82424L105.902 6.36ZM107.262 5.08L107.106 5.55499L107.108 5.55561L107.262 5.08ZM109.782 6.5L109.447 6.87095L109.451 6.87409L109.782 6.5ZM111.422 8.82L110.961 9.01373L111.422 8.82ZM109.782 17.5L109.451 17.1259L109.447 17.1291L109.782 17.5ZM107.262 18.92L107.108 18.4444L107.106 18.445L107.262 18.92ZM100.722 18.92L100.877 18.4444L100.722 18.92ZM98.1823 17.5L97.8471 17.871L97.8506 17.8741L98.1823 17.5ZM96.5623 15.18L96.099 15.368L96.1014 15.3737L96.5623 15.18ZM96.5623 8.82L96.1014 8.62626L96.099 8.63199L96.5623 8.82ZM98.1823 6.5L97.8506 6.12589L97.8471 6.12906L98.1823 6.5ZM104.002 5.5C103.262 5.5 102.559 5.63092 101.897 5.89576L102.268 6.82424C102.806 6.60908 103.383 6.5 104.002 6.5V5.5ZM101.893 5.89723C101.233 6.16725 100.658 6.57963 100.169 7.12719L100.915 7.79281C101.307 7.3537 101.758 7.03275 102.272 6.82277L101.893 5.89723ZM100.169 7.12719C99.6773 7.67869 99.2942 8.3659 99.0105 9.17446L99.9541 9.50554C100.204 8.7941 100.527 8.22797 100.915 7.79281L100.169 7.12719ZM99.0089 9.17935C98.7336 9.9907 98.6023 10.9343 98.6023 12H99.6023C99.6023 11.0124 99.7244 10.1826 99.9558 9.50065L99.0089 9.17935ZM98.6023 12C98.6023 13.0661 98.7337 14.0151 99.008 14.8381L99.9567 14.5219C99.7244 13.8249 99.6023 12.9873 99.6023 12H98.6023ZM99.0115 14.8482C99.2956 15.6437 99.6787 16.3228 100.169 16.8728L100.915 16.2072C100.526 15.7705 100.202 15.2097 99.9532 14.5118L99.0115 14.8482ZM100.169 16.8728C100.658 17.4204 101.233 17.8327 101.893 18.1028L102.272 17.1772C101.758 16.9673 101.307 16.6463 100.915 16.2072L100.169 16.8728ZM101.897 18.1042C102.559 18.3691 103.262 18.5 104.002 18.5V17.5C103.383 17.5 102.806 17.3909 102.268 17.1758L101.897 18.1042ZM104.002 18.5C104.742 18.5 105.441 18.3691 106.092 18.1028L105.713 17.1772C105.191 17.3909 104.622 17.5 104.002 17.5V18.5ZM106.088 18.1042C106.762 17.8348 107.345 17.4225 107.835 16.8728L107.089 16.2072C106.699 16.6442 106.243 16.9652 105.717 17.1758L106.088 18.1042ZM107.835 16.8728C108.328 16.3207 108.705 15.6388 108.976 14.8406L108.029 14.5194C107.793 15.2145 107.477 15.7726 107.089 16.2072L107.835 16.8728ZM108.974 14.8455C109.264 14.02 109.402 13.0683 109.402 12H108.402C108.402 12.985 108.274 13.82 108.031 14.5145L108.974 14.8455ZM109.402 12C109.402 10.932 109.264 9.98574 108.973 9.17183L108.031 9.50817C108.274 10.1876 108.402 11.0146 108.402 12H109.402ZM108.977 9.18189C108.706 8.37074 108.329 7.68082 107.835 7.12719L107.089 7.79281C107.475 8.22585 107.792 8.78926 108.028 9.49811L108.977 9.18189ZM107.835 7.12719C107.345 6.57751 106.762 6.16516 106.088 5.89576L105.717 6.82424C106.243 7.03484 106.699 7.35582 107.089 7.79281L107.835 7.12719ZM106.092 5.89723C105.441 5.6309 104.742 5.5 104.002 5.5V6.5C104.622 6.5 105.191 6.6091 105.713 6.82277L106.092 5.89723ZM104.002 5.1C105.158 5.1 106.191 5.25411 107.106 5.55499L107.419 4.60501C106.387 4.26588 105.247 4.1 104.002 4.1V5.1ZM107.108 5.55561C108.035 5.85627 108.812 6.29649 109.447 6.87094L110.118 6.12906C109.367 5.45018 108.463 4.94373 107.417 4.60439L107.108 5.55561ZM109.451 6.87409C110.098 7.44827 110.602 8.15877 110.961 9.01373L111.883 8.62627C111.469 7.64123 110.88 6.80506 110.114 6.12591L109.451 6.87409ZM110.961 9.01373C111.318 9.86131 111.502 10.8534 111.502 12H112.502C112.502 10.7466 112.3 9.61869 111.883 8.62627L110.961 9.01373ZM111.502 12C111.502 13.1466 111.318 14.1387 110.961 14.9863L111.883 15.3737C112.3 14.3813 112.502 13.2534 112.502 12H111.502ZM110.961 14.9863C110.602 15.8412 110.098 16.5517 109.451 17.1259L110.114 17.8741C110.88 17.1949 111.469 16.3588 111.883 15.3737L110.961 14.9863ZM109.447 17.1291C108.812 17.7035 108.035 18.1437 107.108 18.4444L107.417 19.3956C108.463 19.0563 109.367 18.5498 110.118 17.8709L109.447 17.1291ZM107.106 18.445C106.191 18.7459 105.158 18.9 104.002 18.9V19.9C105.247 19.9 106.387 19.7341 107.419 19.395L107.106 18.445ZM104.002 18.9C102.847 18.9 101.806 18.7459 100.877 18.4444L100.568 19.3956C101.612 19.7341 102.758 19.9 104.002 19.9V18.9ZM100.877 18.4444C99.949 18.1435 99.1644 17.7026 98.5141 17.1259L97.8506 17.8741C98.6137 18.5508 99.5224 19.0565 100.568 19.3956L100.877 18.4444ZM98.5176 17.1291C97.8823 16.5548 97.3835 15.8434 97.0233 14.9863L96.1014 15.3737C96.5145 16.3566 97.0957 17.1918 97.8471 17.8709L98.5176 17.1291ZM97.0257 14.992C96.681 14.1428 96.5023 13.1487 96.5023 12H95.5023C95.5023 13.2513 95.697 14.3772 96.099 15.368L97.0257 14.992ZM96.5023 12C96.5023 10.8513 96.681 9.85724 97.0257 9.00801L96.099 8.63199C95.697 9.62276 95.5023 10.7487 95.5023 12H96.5023ZM97.0233 9.01373C97.3835 8.15662 97.8823 7.44517 98.5176 6.87094L97.8471 6.12906C97.0957 6.80816 96.5145 7.64338 96.1014 8.62627L97.0233 9.01373ZM98.5141 6.87409C99.1644 6.29745 99.949 5.85646 100.877 5.55561L100.568 4.60439C99.5224 4.94354 98.6137 5.44922 97.8506 6.12591L98.5141 6.87409ZM100.877 5.55561C101.806 5.25408 102.847 5.1 104.002 5.1V4.1C102.758 4.1 101.612 4.26592 100.568 4.60439L100.877 5.55561ZM126.47 17.74L126.628 18.2144L126.635 18.2119L126.47 17.74ZM127.83 16.9L128.184 17.2536L128.19 17.2473L127.83 16.9ZM128.69 15.44L128.219 15.2725L128.217 15.2787L128.69 15.44ZM129.01 5V4.5H128.51V5H129.01ZM131.91 5H132.41V4.5H131.91V5ZM130.03 17.9L130.342 18.2908L130.345 18.2888L130.03 17.9ZM119.37 17.9L119.054 18.2872L119.058 18.2908L119.37 17.9ZM117.51 5V4.5H117.01V5H117.51ZM120.41 5H120.91V4.5H120.41V5ZM120.71 15.44L120.236 15.5982L120.24 15.6109L120.71 15.44ZM121.59 16.9L121.23 17.2474L121.237 17.2536L121.59 16.9ZM122.93 17.74L122.761 18.2106L122.768 18.2132L122.776 18.2155L122.93 17.74ZM124.71 18.5C125.407 18.5 126.049 18.4076 126.628 18.2143L126.312 17.2657C125.852 17.4191 125.32 17.5 124.71 17.5V18.5ZM126.635 18.2119C127.234 18.0022 127.754 17.6837 128.184 17.2536L127.477 16.5464C127.16 16.863 126.773 17.1044 126.305 17.2681L126.635 18.2119ZM128.19 17.2473C128.622 16.8002 128.943 16.247 129.163 15.6013L128.217 15.2787C128.037 15.8064 127.785 16.2264 127.47 16.5527L128.19 17.2473ZM129.161 15.6075C129.398 14.9404 129.51 14.1676 129.51 13.3H128.51C128.51 14.0857 128.409 14.7396 128.219 15.2725L129.161 15.6075ZM129.51 13.3V5H128.51V13.3H129.51ZM129.01 5.5H131.91V4.5H129.01V5.5ZM131.41 5V13.3H132.41V5H131.41ZM131.41 13.3C131.41 15.2473 130.821 16.6178 129.716 17.5112L130.345 18.2888C131.746 17.1555 132.41 15.4593 132.41 13.3H131.41ZM129.718 17.5092C128.585 18.4136 126.938 18.9 124.71 18.9V19.9C127.069 19.9 128.969 19.3864 130.342 18.2908L129.718 17.5092ZM124.71 18.9C122.468 18.9 120.815 18.4133 119.682 17.5092L119.058 18.2908C120.432 19.3867 122.339 19.9 124.71 19.9V18.9ZM119.687 17.5128C118.594 16.6201 118.01 15.2491 118.01 13.3H117.01C117.01 15.4575 117.666 17.1532 119.054 18.2872L119.687 17.5128ZM118.01 13.3V5H117.01V13.3H118.01ZM117.51 5.5H120.41V4.5H117.51V5.5ZM119.91 5V13.3H120.91V5H119.91ZM119.91 13.3C119.91 14.1649 120.015 14.9342 120.236 15.5981L121.184 15.2819C121.006 14.7458 120.91 14.0885 120.91 13.3H119.91ZM120.24 15.6109C120.474 16.2529 120.801 16.8027 121.23 17.2473L121.95 16.5527C121.632 16.224 121.373 15.8005 121.18 15.2691L120.24 15.6109ZM121.237 17.2536C121.665 17.6815 122.175 18.0002 122.761 18.2106L123.099 17.2694C122.645 17.1065 122.262 16.8652 121.944 16.5464L121.237 17.2536ZM122.776 18.2155C123.366 18.4075 124.013 18.5 124.71 18.5V17.5C124.101 17.5 123.561 17.4192 123.085 17.2645L122.776 18.2155Z" fill="#666276"/>
</svg>
