<svg width="960" height="180" viewBox="0 0 960 180" fill="none" xmlns="http://www.w3.org/2000/svg">
<g style="mix-blend-mode:multiply" opacity="0.1">
<path d="M67.1429 128.143C73.6191 128.143 79.8095 127.048 85.7143 124.857C91.7143 122.571 97.4286 118.905 102.857 113.857L110 122.429C104.571 127.476 98 131.476 90.2857 134.429C82.5714 137.381 74.381 138.857 65.7143 138.857C56.7619 138.857 48.6667 137.714 41.4286 135.429C34.2857 133.143 28.1429 129.762 23 125.286C17.9524 120.81 14.0476 115.286 11.2857 108.714C8.52381 102.143 7.14286 94.5714 7.14286 86C7.14286 77.4286 8.47619 69.8571 11.1429 63.2857C13.9048 56.7143 17.7619 51.1905 22.7143 46.7143C27.7619 42.2381 33.8095 38.8571 40.8572 36.5714C47.9048 34.2857 55.7143 33.1428 64.2857 33.1428C72.9524 33.1428 81.1429 34.619 88.8572 37.5714C96.5714 40.5238 103.143 44.5238 108.571 49.5714L101.429 58.1428C96 53.0952 90.2857 49.4762 84.2857 47.2857C78.381 45 72.1905 43.8571 65.7143 43.8571C60.5714 43.8571 55.7619 44.7143 51.2857 46.4286C46.8095 48.0476 42.9524 50.5714 39.7143 54C36.4762 57.4286 33.9048 61.8095 32 67.1428C30.1905 72.3809 29.2857 78.6667 29.2857 86C29.2857 93.3333 30.1905 99.6667 32 105C33.9048 110.238 36.5238 114.571 39.8572 118C43.2857 121.429 47.2857 124 51.8572 125.714C56.5238 127.333 61.6191 128.143 67.1429 128.143ZM171.434 101H215.72L194.291 48.1428H192.863L171.434 101ZM210.006 36L250.72 136H230.148L220.72 111.714H166.434L157.006 136H136.434L177.148 36H210.006ZM377.193 109.571C377.193 113.667 376.336 117.524 374.622 121.143C372.907 124.667 370.098 127.762 366.193 130.429C362.384 133 357.384 135.048 351.193 136.571C345.098 138.095 337.574 138.857 328.622 138.857C323.574 138.857 318.622 138.476 313.765 137.714C309.003 136.952 304.431 135.857 300.05 134.429C295.765 133 291.765 131.286 288.05 129.286C284.431 127.19 281.288 124.905 278.622 122.429L285.765 113.857C291.193 118.524 297.526 122.095 304.765 124.571C312.003 126.952 319.955 128.143 328.622 128.143C338.241 128.143 345.05 126.81 349.05 124.143C353.05 121.476 355.05 117.81 355.05 113.143C355.05 109.524 353.479 106.476 350.336 104C347.193 101.524 341.86 99.0952 334.336 96.7143L307.193 88.1428C298.241 85.2857 291.479 81.6667 286.907 77.2857C282.336 72.8095 280.05 67.1428 280.05 60.2857C280.05 56.7619 280.86 53.3809 282.479 50.1428C284.193 46.8095 286.812 43.9047 290.336 41.4285C293.86 38.8571 298.336 36.8571 303.765 35.4285C309.288 33.9047 315.907 33.1428 323.622 33.1428C328.288 33.1428 332.907 33.5238 337.479 34.2857C342.146 35.0476 346.574 36.1428 350.765 37.5714C355.05 39 359.003 40.7619 362.622 42.8571C366.336 44.8571 369.526 47.0952 372.193 49.5714L365.05 58.1428C359.622 53.4762 353.526 49.9524 346.765 47.5714C340.003 45.0952 332.288 43.8571 323.622 43.8571C316.479 43.8571 311.098 45.0952 307.479 47.5714C303.955 50.0476 302.193 53.0952 302.193 56.7143C302.193 58.7143 302.526 60.4762 303.193 62C303.86 63.4286 304.955 64.8095 306.479 66.1428C308.098 67.3809 310.193 68.5714 312.765 69.7143C315.336 70.7619 318.526 71.9048 322.336 73.1428L349.336 81.7143C358.003 84.4762 364.812 88.0952 369.765 92.5714C374.717 97.0476 377.193 102.714 377.193 109.571ZM513.622 36V136H492.907V92.4286H434.336V136H413.622V36H434.336V81.7143H492.907V36H513.622Z" fill="#9691A4"/>
<path d="M85.7143 124.857L88.7678 133.088L88.8038 133.075L88.8397 133.061L85.7143 124.857ZM102.857 113.857L109.602 108.237L103.667 101.116L96.8789 107.428L102.857 113.857ZM110 122.429L115.978 128.858L122.068 123.196L116.744 116.808L110 122.429ZM41.4286 135.429L38.7529 143.79L38.7688 143.795L38.7849 143.8L41.4286 135.429ZM23 125.286L17.175 131.854L17.2055 131.881L17.2362 131.908L23 125.286ZM11.2857 108.714L19.3793 105.313L11.2857 108.714ZM11.1429 63.2857L3.04932 59.8841L3.02826 59.9342L3.00783 59.9845L11.1429 63.2857ZM22.7143 46.7143L16.8893 40.1457L16.8582 40.1733L16.8274 40.2011L22.7143 46.7143ZM88.8572 37.5714L85.7191 45.7708L88.8572 37.5714ZM108.571 49.5714L115.316 55.1918L120.639 48.804L114.55 43.142L108.571 49.5714ZM101.429 58.1428L95.4504 64.5723L102.239 70.8843L108.173 63.7632L101.429 58.1428ZM84.2857 47.2857L81.1164 55.473L81.1954 55.5036L81.275 55.5326L84.2857 47.2857ZM51.2857 46.4286L54.2719 54.6844L54.349 54.6565L54.4256 54.6272L51.2857 46.4286ZM39.7143 54L46.097 60.0281L46.097 60.0281L39.7143 54ZM32 67.1428L23.7322 64.19L23.7168 64.233L23.7019 64.2762L32 67.1428ZM32 105L23.6862 107.821L23.7167 107.911L23.7493 108L32 105ZM39.8572 118L33.5624 124.12L33.6055 124.164L33.6492 124.208L39.8572 118ZM51.8572 125.714L48.7745 133.935L48.8766 133.973L48.9795 134.009L51.8572 125.714ZM67.1429 136.922C74.6314 136.922 81.8581 135.652 88.7678 133.088L82.6608 116.626C77.761 118.444 72.6068 119.364 67.1429 119.364V136.922ZM88.8397 133.061C96.0462 130.316 102.705 125.986 108.835 120.287L96.8789 107.428C92.1517 111.823 87.3824 114.827 82.5889 116.653L88.8397 133.061ZM96.1127 119.478L103.256 128.049L116.744 116.808L109.602 108.237L96.1127 119.478ZM104.022 115.999C99.5069 120.197 93.9306 123.633 87.1477 126.229L93.4238 142.628C102.069 139.319 109.636 134.755 115.978 128.858L104.022 115.999ZM87.1477 126.229C80.484 128.78 73.3618 130.078 65.7143 130.078V147.636C75.4001 147.636 84.6589 145.982 93.4238 142.628L87.1477 126.229ZM65.7143 130.078C57.5023 130.078 50.3177 129.029 44.0723 127.057L38.7849 143.8C47.0156 146.4 56.0215 147.636 65.7143 147.636V130.078ZM44.1043 127.067C37.984 125.108 32.9199 122.281 28.7638 118.663L17.2362 131.908C23.3658 137.243 30.5874 141.177 38.7529 143.79L44.1043 127.067ZM28.825 118.717C24.8166 115.163 21.6612 110.742 19.3793 105.313L3.19218 112.116C6.43404 119.829 11.0881 126.456 17.175 131.854L28.825 118.717ZM19.3793 105.313C17.1518 100.013 15.9222 93.6346 15.9222 86H-1.63646C-1.63646 95.5082 -0.104151 104.273 3.19218 112.116L19.3793 105.313ZM15.9222 86C15.9222 78.33 17.1155 71.9156 19.2779 66.5869L3.00783 59.9845C-0.163109 67.7986 -1.63646 76.5271 -1.63646 86H15.9222ZM19.2364 66.6873C21.5342 61.2202 24.6674 56.783 28.6012 53.2274L16.8274 40.2011C10.8564 45.598 6.27537 52.2083 3.04932 59.8841L19.2364 66.6873ZM28.5393 53.2828C32.5965 49.6849 37.5547 46.872 43.5656 44.9225L38.1487 28.2203C30.0643 30.8423 22.9273 34.7912 16.8893 40.1457L28.5393 53.2828ZM43.5656 44.9225C49.6135 42.961 56.4927 41.9222 64.2857 41.9222V24.3635C54.9359 24.3635 46.1961 25.6104 38.1487 28.2203L43.5656 44.9225ZM64.2857 41.9222C71.9332 41.9222 79.0554 43.2204 85.7191 45.7708L91.9952 29.3721C83.2303 26.0176 73.9715 24.3635 64.2857 24.3635V41.9222ZM85.7191 45.7708C92.502 48.3667 98.0783 51.8027 102.593 56.0008L114.55 43.142C108.207 37.2448 100.641 32.6809 91.9952 29.3721L85.7191 45.7708ZM101.827 43.951L94.6841 52.5225L108.173 63.7632L115.316 55.1918L101.827 43.951ZM107.407 51.7134C101.257 45.9947 94.5593 41.6903 87.2965 39.0388L81.275 55.5326C86.0122 57.2621 90.7435 60.1957 95.4504 64.5723L107.407 51.7134ZM87.455 39.0984C80.5162 36.4124 73.2492 35.0778 65.7143 35.0778V52.6364C71.1318 52.6364 76.2458 53.5876 81.1164 55.473L87.455 39.0984ZM65.7143 35.0778C59.5769 35.0778 53.6954 36.1045 48.1458 38.2299L54.4256 54.6272C57.8284 53.324 61.5659 52.6364 65.7143 52.6364V35.0778ZM48.2996 38.1727C42.5451 40.2541 37.5213 43.5358 33.3316 47.9719L46.097 60.0281C48.3835 57.607 51.0739 55.8411 54.2719 54.6844L48.2996 38.1727ZM33.3316 47.9719C29.1089 52.443 25.9651 57.9378 23.7322 64.19L40.2679 70.0956C41.8444 65.6812 43.8435 62.4141 46.097 60.0281L33.3316 47.9719ZM23.7019 64.2762C21.4896 70.6802 20.5064 77.9874 20.5064 86H38.065C38.065 79.3459 38.8914 74.0817 40.2981 70.0095L23.7019 64.2762ZM20.5064 86C20.5064 94.019 21.4913 101.352 23.6862 107.821L40.3138 102.179C38.8897 97.9817 38.065 92.6477 38.065 86H20.5064ZM23.7493 108C26.0085 114.213 29.2323 119.666 33.5624 124.12L46.1519 111.88C43.8153 109.477 41.801 106.263 40.2508 102L23.7493 108ZM33.6492 124.208C37.9703 128.529 43.038 131.783 48.7745 133.935L54.9398 117.494C51.5334 116.217 48.6011 114.328 46.0651 111.792L33.6492 124.208ZM48.9795 134.009C54.6742 135.984 60.7543 136.922 67.1429 136.922V119.364C62.4838 119.364 58.3734 118.682 54.7348 117.42L48.9795 134.009ZM171.434 101L163.298 97.7016L158.402 109.779H171.434V101ZM215.72 101V109.779H228.752L223.856 97.7016L215.72 101ZM194.291 48.1428L202.427 44.8444L200.205 39.3635H194.291V48.1428ZM192.863 48.1428V39.3635H186.949L184.727 44.8444L192.863 48.1428ZM210.006 36L218.137 32.6894L215.91 27.2207H210.006V36ZM250.72 136V144.779H263.773L258.851 132.689L250.72 136ZM230.148 136L221.964 139.177L224.139 144.779H230.148V136ZM220.72 111.714L228.904 108.537L226.729 102.935H220.72V111.714ZM166.434 111.714V102.935H160.425L158.25 108.537L166.434 111.714ZM157.006 136V144.779H163.015L165.19 139.177L157.006 136ZM136.434 136L128.303 132.689L123.381 144.779H136.434V136ZM177.148 36V27.2207H171.244L169.017 32.6894L177.148 36ZM171.434 109.779H215.72V92.2207H171.434V109.779ZM223.856 97.7016L202.427 44.8444L186.155 51.4413L207.584 104.298L223.856 97.7016ZM194.291 39.3635H192.863V56.9222H194.291V39.3635ZM184.727 44.8444L163.298 97.7016L179.57 104.298L200.999 51.4413L184.727 44.8444ZM201.874 39.3105L242.589 139.311L258.851 132.689L218.137 32.6894L201.874 39.3105ZM250.72 127.221H230.148V144.779H250.72V127.221ZM238.333 132.823L228.904 108.537L212.536 114.892L221.964 139.177L238.333 132.823ZM220.72 102.935H166.434V120.494H220.72V102.935ZM158.25 108.537L148.821 132.823L165.19 139.177L174.618 114.892L158.25 108.537ZM157.006 127.221H136.434V144.779H157.006V127.221ZM144.565 139.311L185.28 39.3105L169.017 32.6894L128.303 132.689L144.565 139.311ZM177.148 44.7793H210.006V27.2207H177.148V44.7793ZM374.622 121.143L382.516 124.984L382.536 124.942L382.556 124.901L374.622 121.143ZM366.193 130.429L371.105 137.705L371.125 137.692L371.144 137.679L366.193 130.429ZM351.193 136.571L349.095 128.047L349.079 128.05L349.064 128.054L351.193 136.571ZM313.765 137.714L312.378 146.383L312.391 146.385L312.404 146.388L313.765 137.714ZM300.05 134.429L297.274 142.757L297.301 142.766L297.328 142.775L300.05 134.429ZM288.05 129.286L283.651 136.884L283.769 136.951L283.888 137.016L288.05 129.286ZM278.622 122.429L271.877 116.808L266.551 123.2L272.648 128.862L278.622 122.429ZM285.765 113.857L291.488 107.2L284.727 101.388L279.02 108.237L285.765 113.857ZM304.765 124.571L301.923 132.878L301.972 132.895L302.021 132.911L304.765 124.571ZM349.05 124.143L344.18 116.838L349.05 124.143ZM334.336 96.7143L336.985 88.3441L336.98 88.3425L334.336 96.7143ZM307.193 88.1429L304.524 96.5065L304.537 96.5106L304.549 96.5147L307.193 88.1429ZM286.907 77.2857L280.765 83.5586L280.799 83.5916L280.833 83.6243L286.907 77.2857ZM282.479 50.1428L274.671 46.1276L274.649 46.172L274.626 46.2166L282.479 50.1428ZM290.336 41.4286L295.384 48.6117L295.448 48.5666L295.511 48.5204L290.336 41.4286ZM303.765 35.4286L305.999 43.9188L306.049 43.9056L306.099 43.8918L303.765 35.4286ZM337.479 34.2857L336.036 42.9456L336.05 42.948L336.064 42.9503L337.479 34.2857ZM350.765 37.5714L347.932 45.8811L347.96 45.8908L347.988 45.9002L350.765 37.5714ZM362.622 42.8571L358.223 50.455L358.34 50.5228L358.459 50.5871L362.622 42.8571ZM372.193 49.5714L378.938 55.1918L384.264 48.7997L378.167 43.138L372.193 49.5714ZM365.05 58.1428L359.327 64.8003L366.088 70.6119L371.795 63.7632L365.05 58.1428ZM346.765 47.5714L343.746 55.8154L343.797 55.8342L343.849 55.8524L346.765 47.5714ZM307.479 47.5714L302.521 40.3258L302.476 40.3567L302.431 40.3882L307.479 47.5714ZM303.193 62L295.15 65.5189L295.192 65.6163L295.237 65.7126L303.193 62ZM306.479 66.1428L300.698 72.75L300.916 72.9408L301.146 73.1168L306.479 66.1428ZM312.765 69.7143L309.199 77.7369L309.325 77.7928L309.452 77.8447L312.765 69.7143ZM322.336 73.1428L319.622 81.4923L319.651 81.5015L319.68 81.5106L322.336 73.1428ZM349.336 81.7143L352.002 73.3494L351.992 73.3465L349.336 81.7143ZM369.765 92.5714L375.651 86.0583L369.765 92.5714ZM368.414 109.571C368.414 112.397 367.832 114.967 366.688 117.385L382.556 124.901C384.84 120.08 385.972 114.936 385.972 109.571H368.414ZM366.727 117.302C365.806 119.195 364.146 121.195 361.242 123.179L371.144 137.679C376.05 134.328 380.009 130.138 382.516 124.984L366.727 117.302ZM361.281 123.152C358.59 124.968 354.641 126.681 349.095 128.047L353.292 145.096C360.126 143.414 366.177 141.032 371.105 137.705L361.281 123.152ZM349.064 128.054C343.89 129.348 337.133 130.078 328.622 130.078V147.636C338.015 147.636 346.306 146.843 353.322 145.089L349.064 128.054ZM328.622 130.078C324.018 130.078 319.52 129.73 315.125 129.041L312.404 146.388C317.723 147.222 323.131 147.636 328.622 147.636V130.078ZM315.152 129.045C310.821 128.352 306.697 127.362 302.772 126.082L297.328 142.775C302.165 144.352 307.184 145.552 312.378 146.383L315.152 129.045ZM302.827 126.1C298.986 124.819 295.453 123.301 292.213 121.556L283.888 137.016C288.076 139.271 292.543 141.181 297.274 142.757L302.827 126.1ZM292.449 121.688C289.315 119.873 286.717 117.965 284.596 115.995L272.648 128.862C275.859 131.844 279.548 134.508 283.651 136.884L292.449 121.688ZM285.366 128.049L292.509 119.478L279.02 108.237L271.877 116.808L285.366 128.049ZM280.041 120.515C286.374 125.958 293.701 130.065 301.923 132.878L307.606 116.265C301.352 114.125 296.013 111.09 291.488 107.2L280.041 120.515ZM302.021 132.911C310.257 135.62 319.149 136.922 328.622 136.922V119.364C320.761 119.364 313.748 118.285 307.508 116.232L302.021 132.911ZM328.622 136.922C338.541 136.922 347.626 135.644 353.92 131.448L344.18 116.838C342.475 117.975 337.941 119.364 328.622 119.364V136.922ZM353.92 131.448C360.274 127.212 363.83 120.85 363.83 113.143H346.271C346.271 114.769 345.826 115.741 344.18 116.838L353.92 131.448ZM363.83 113.143C363.83 106.525 360.77 101.044 355.769 97.1039L344.903 110.896C346.187 111.908 346.271 112.522 346.271 113.143H363.83ZM355.769 97.1039C351.329 93.6055 344.732 90.7957 336.985 88.3441L331.687 105.084C338.988 107.395 343.057 109.442 344.903 110.896L355.769 97.1039ZM336.98 88.3425L309.837 79.771L304.549 96.5147L331.692 105.086L336.98 88.3425ZM309.862 79.7792C301.618 77.148 296.234 74.064 292.982 70.9471L280.833 83.6243C286.723 89.2693 294.863 93.4234 304.524 96.5065L309.862 79.7792ZM293.05 71.0128C290.295 68.3151 288.83 64.9705 288.83 60.2857H271.271C271.271 69.3152 274.377 77.3039 280.765 83.5586L293.05 71.0128ZM288.83 60.2857C288.83 58.1629 289.305 56.1226 290.331 54.0691L274.626 46.2166C272.415 50.6392 271.271 55.3609 271.271 60.2857H288.83ZM290.286 54.158C291.26 52.2653 292.848 50.3934 295.384 48.6117L285.288 34.2454C280.776 37.4161 277.127 41.3537 274.671 46.1276L290.286 54.158ZM295.511 48.5204C297.937 46.7502 301.339 45.145 305.999 43.9188L301.53 26.9383C295.332 28.5693 289.783 30.9641 285.161 34.3367L295.511 48.5204ZM306.099 43.8918C310.652 42.6359 316.443 41.9222 323.622 41.9222V24.3635C315.372 24.3635 307.925 25.1736 301.43 26.9654L306.099 43.8918ZM323.622 41.9222C327.808 41.9222 331.944 42.2637 336.036 42.9456L338.922 25.6258C333.87 24.7839 328.769 24.3635 323.622 24.3635V41.9222ZM336.064 42.9503C340.281 43.6388 344.233 44.6203 347.932 45.8811L353.597 29.2617C348.915 27.6654 344.01 26.4564 338.893 25.6211L336.064 42.9503ZM347.988 45.9002C351.755 47.1556 355.158 48.6804 358.223 50.455L367.02 35.2593C362.847 32.8433 358.346 30.8443 353.541 29.2426L347.988 45.9002ZM358.459 50.5871C361.619 52.2883 364.177 54.1089 366.219 56.0048L378.167 43.138C374.875 40.0815 371.053 37.426 366.784 35.1272L358.459 50.5871ZM365.449 43.951L358.306 52.5225L371.795 63.7632L378.938 55.1918L365.449 43.951ZM370.773 51.4853C364.517 46.1069 357.469 42.033 349.68 39.2905L343.849 55.8524C349.584 57.8717 354.727 60.8455 359.327 64.8003L370.773 51.4853ZM349.783 39.3275C341.88 36.4333 333.115 35.0778 323.622 35.0778V52.6364C331.462 52.6364 338.125 53.7572 343.746 55.8154L349.783 39.3275ZM323.622 35.0778C315.722 35.0778 308.258 36.4008 302.521 40.3258L312.436 54.817C313.938 53.7896 317.236 52.6364 323.622 52.6364V35.0778ZM302.431 40.3882C297.075 44.152 293.414 49.6677 293.414 56.7143H310.972C310.972 56.4023 311.029 56.2578 311.115 56.1083C311.232 55.907 311.58 55.4198 312.526 54.7546L302.431 40.3882ZM293.414 56.7143C293.414 59.685 293.91 62.6845 295.15 65.5189L311.236 58.4811C311.143 58.2679 310.972 57.7436 310.972 56.7143H293.414ZM295.237 65.7126C296.544 68.5132 298.507 70.8328 300.698 72.75L312.26 59.5357C311.404 58.7863 311.175 58.3439 311.149 58.2873L295.237 65.7126ZM301.146 73.1168C303.473 74.8965 306.218 76.4123 309.199 77.7369L316.33 61.6916C314.168 60.7306 312.723 59.8654 311.812 59.1689L301.146 73.1168ZM309.452 77.8447C312.285 78.999 315.691 80.2145 319.622 81.4923L325.05 64.7934C321.362 63.595 318.387 62.5248 316.077 61.5838L309.452 77.8447ZM319.68 81.5106L346.68 90.0821L351.992 73.3465L324.992 64.7751L319.68 81.5106ZM346.67 90.0791C354.551 92.5907 360.127 95.6946 363.878 99.0846L375.651 86.0583C369.497 80.4959 361.454 76.3617 352.002 73.3494L346.67 90.0791ZM363.878 99.0846C366.932 101.845 368.414 105.12 368.414 109.571H385.972C385.972 100.309 382.502 92.2498 375.651 86.0583L363.878 99.0846ZM513.622 36H522.401V27.2207H513.622V36ZM513.622 136V144.779H522.401V136H513.622ZM492.907 136H484.128V144.779H492.907V136ZM492.907 92.4286H501.687V83.6492H492.907V92.4286ZM434.336 92.4286V83.6492H425.557V92.4286H434.336ZM434.336 136V144.779H443.115V136H434.336ZM413.622 136H404.842V144.779H413.622V136ZM413.622 36V27.2207H404.842V36H413.622ZM434.336 36H443.115V27.2207H434.336V36ZM434.336 81.7143H425.557V90.4936H434.336V81.7143ZM492.907 81.7143V90.4936H501.687V81.7143H492.907ZM492.907 36V27.2207H484.128V36H492.907ZM504.842 36V136H522.401V36H504.842ZM513.622 127.221H492.907V144.779H513.622V127.221ZM501.687 136V92.4286H484.128V136H501.687ZM492.907 83.6492H434.336V101.208H492.907V83.6492ZM425.557 92.4286V136H443.115V92.4286H425.557ZM434.336 127.221H413.622V144.779H434.336V127.221ZM422.401 136V36H404.842V136H422.401ZM413.622 44.7793H434.336V27.2207H413.622V44.7793ZM425.557 36V81.7143H443.115V36H425.557ZM434.336 90.4936H492.907V72.935H434.336V90.4936ZM501.687 81.7143V36H484.128V81.7143H501.687ZM492.907 44.7793H513.622V27.2207H492.907V44.7793Z" fill="#9691A4"/>
<path d="M624.286 106V136H603.572V106L557.143 36H580L613.572 86.7143H614.286L647.857 36H670.715L624.286 106ZM750.017 43.1428C745.16 43.1428 740.588 44 736.303 45.7143C732.112 47.4286 728.446 50.0476 725.303 53.5714C722.16 57.0952 719.636 61.5714 717.731 67C715.922 72.3333 715.017 78.6667 715.017 86C715.017 93.3333 715.922 99.7143 717.731 105.143C719.636 110.476 722.16 114.905 725.303 118.429C728.446 121.952 732.112 124.571 736.303 126.286C740.588 128 745.16 128.857 750.017 128.857C754.874 128.857 759.398 128 763.588 126.286C767.874 124.571 771.588 121.952 774.731 118.429C777.874 114.905 780.35 110.476 782.16 105.143C784.065 99.7143 785.017 93.3333 785.017 86C785.017 78.6667 784.065 72.3333 782.16 67C780.35 61.5714 777.874 57.0952 774.731 53.5714C771.588 50.0476 767.874 47.4286 763.588 45.7143C759.398 44 754.874 43.1428 750.017 43.1428ZM750.017 33.1428C758.588 33.1428 766.35 34.2857 773.303 36.5714C780.35 38.8571 786.35 42.2381 791.303 46.7143C796.35 51.1905 800.255 56.7143 803.017 63.2857C805.779 69.8571 807.16 77.4286 807.16 86C807.16 94.5714 805.779 102.143 803.017 108.714C800.255 115.286 796.35 120.81 791.303 125.286C786.35 129.762 780.35 133.143 773.303 135.429C766.35 137.714 758.588 138.857 750.017 138.857C741.446 138.857 733.636 137.714 726.588 135.429C719.541 133.143 713.493 129.762 708.446 125.286C703.493 120.81 699.636 115.286 696.874 108.714C694.207 102.143 692.874 94.5714 692.874 86C692.874 77.4286 694.207 69.8571 696.874 63.2857C699.636 56.7143 703.493 51.1905 708.446 46.7143C713.493 42.2381 719.541 38.8571 726.588 36.5714C733.636 34.2857 741.446 33.1428 750.017 33.1428ZM897.93 128.857C902.597 128.857 906.787 128.238 910.501 127C914.311 125.667 917.549 123.667 920.216 121C922.882 118.238 924.93 114.762 926.358 110.571C927.882 106.286 928.644 101.19 928.644 95.2857V36H949.359V95.2857C949.359 109.952 944.882 120.905 935.93 128.143C926.978 135.286 914.311 138.857 897.93 138.857C881.454 138.857 868.739 135.286 859.787 128.143C850.93 120.905 846.501 109.952 846.501 95.2857V36H867.216V95.2857C867.216 101.19 867.93 106.286 869.358 110.571C870.882 114.762 872.978 118.238 875.644 121C878.311 123.667 881.501 125.667 885.216 127C889.025 128.238 893.263 128.857 897.93 128.857Z" fill="#BBB7C5"/>
<path d="M624.286 106L616.97 101.147L615.507 103.353V106H624.286ZM624.286 136V144.779H633.065V136H624.286ZM603.572 136H594.792V144.779H603.572V136ZM603.572 106H612.351V103.353L610.888 101.147L603.572 106ZM557.143 36V27.2207H540.785L549.827 40.8526L557.143 36ZM580 36L587.321 31.1539L584.717 27.2207H580V36ZM613.572 86.7143L606.251 91.5603L608.855 95.4936H613.572V86.7143ZM614.286 86.7143V95.4936H619.003L621.607 91.5603L614.286 86.7143ZM647.857 36V27.2207H643.14L640.537 31.1539L647.857 36ZM670.715 36L678.031 40.8526L687.072 27.2207H670.715V36ZM615.507 106V136H633.065V106H615.507ZM624.286 127.221H603.572V144.779H624.286V127.221ZM612.351 136V106H594.792V136H612.351ZM610.888 101.147L564.459 31.1473L549.827 40.8526L596.255 110.853L610.888 101.147ZM557.143 44.7793H580V27.2207H557.143V44.7793ZM572.68 40.8461L606.251 91.5603L620.892 81.8682L587.321 31.1539L572.68 40.8461ZM613.572 95.4936H614.286V77.935H613.572V95.4936ZM621.607 91.5603L655.178 40.8461L640.537 31.1539L606.965 81.8682L621.607 91.5603ZM647.857 44.7793H670.715V27.2207H647.857V44.7793ZM663.398 31.1473L616.97 101.147L631.602 110.853L678.031 40.8526L663.398 31.1473ZM736.303 45.7143L733.042 37.5629L733.01 37.5756L732.979 37.5886L736.303 45.7143ZM717.731 67L709.447 64.0933L709.432 64.1362L709.417 64.1792L717.731 67ZM717.731 105.143L709.402 107.919L709.432 108.008L709.463 108.096L717.731 105.143ZM725.303 118.429L718.751 124.272L725.303 118.429ZM736.303 126.286L732.979 134.411L733.01 134.424L733.042 134.437L736.303 126.286ZM763.588 126.286L760.328 118.134L760.296 118.147L760.264 118.16L763.588 126.286ZM774.731 118.429L781.283 124.272L774.731 118.429ZM782.16 105.143L773.876 102.236L773.861 102.279L773.846 102.322L782.16 105.143ZM782.16 67L773.831 69.7763L773.861 69.8649L773.892 69.9528L782.16 67ZM763.588 45.7143L760.264 53.8399L760.296 53.8529L760.328 53.8657L763.588 45.7143ZM773.303 36.5714L770.561 44.9116L770.577 44.9171L770.594 44.9225L773.303 36.5714ZM791.303 46.7143L785.416 53.2274L785.447 53.2553L785.478 53.2829L791.303 46.7143ZM803.017 63.2857L794.923 66.6873L803.017 63.2857ZM791.303 125.286L785.478 118.717L785.447 118.745L785.416 118.773L791.303 125.286ZM773.303 135.429L770.594 127.077L770.577 127.083L770.561 127.088L773.303 135.429ZM726.588 135.429L729.297 127.077L726.588 135.429ZM708.446 125.286L702.559 131.799L702.589 131.827L702.621 131.854L708.446 125.286ZM696.874 108.714L688.739 112.015L688.76 112.066L688.781 112.116L696.874 108.714ZM696.874 63.2857L688.781 59.8841L688.76 59.9342L688.739 59.9845L696.874 63.2857ZM708.446 46.7143L702.621 40.1457L702.589 40.1733L702.559 40.2011L708.446 46.7143ZM750.017 34.3635C744.102 34.3635 738.418 35.4123 733.042 37.5629L739.563 53.8657C742.758 52.5876 746.218 51.9222 750.017 51.9222V34.3635ZM732.979 37.5886C727.499 39.8301 722.743 43.2517 718.751 47.7278L731.855 59.4151C734.148 56.8435 736.725 55.027 739.627 53.8399L732.979 37.5886ZM718.751 47.7278C714.697 52.2729 711.651 57.8121 709.447 64.0933L726.015 69.9067C727.621 65.3307 729.623 61.9175 731.855 59.4151L718.751 47.7278ZM709.417 64.1792C707.223 70.6483 706.238 77.981 706.238 86H723.796C723.796 79.3523 724.621 74.0183 726.045 69.8208L709.417 64.1792ZM706.238 86C706.238 94.0249 707.224 101.384 709.402 107.919L726.06 102.367C724.619 98.0446 723.796 92.6418 723.796 86H706.238ZM709.463 108.096C711.674 114.287 714.721 119.754 718.751 124.272L731.855 112.585C729.599 110.055 727.598 106.666 725.999 102.19L709.463 108.096ZM718.751 124.272C722.743 128.748 727.499 132.17 732.979 134.411L739.627 118.16C736.725 116.973 734.148 115.157 731.855 112.585L718.751 124.272ZM733.042 134.437C738.418 136.588 744.102 137.636 750.017 137.636V120.078C746.218 120.078 742.758 119.412 739.563 118.134L733.042 134.437ZM750.017 137.636C755.93 137.636 761.592 136.588 766.913 134.411L760.264 118.16C757.204 119.412 753.818 120.078 750.017 120.078V137.636ZM766.849 134.437C772.425 132.207 777.258 128.785 781.283 124.272L768.179 112.585C765.919 115.119 763.323 116.936 760.328 118.134L766.849 134.437ZM781.283 124.272C785.346 119.717 788.357 114.202 790.474 107.964L773.846 102.322C772.343 106.751 770.402 110.093 768.179 112.585L781.283 124.272ZM790.444 108.05C792.753 101.47 793.796 94.0643 793.796 86H776.238C776.238 92.6024 775.377 97.9581 773.876 102.236L790.444 108.05ZM793.796 86C793.796 77.9417 792.754 70.5612 790.428 64.0472L773.892 69.9528C775.375 74.1055 776.238 79.3916 776.238 86H793.796ZM790.489 64.2237C788.38 57.8971 785.37 52.3102 781.283 47.7278L768.179 59.4151C770.378 61.8802 772.321 65.2458 773.831 69.7763L790.489 64.2237ZM781.283 47.7278C777.258 43.2146 772.425 39.7933 766.849 37.5629L760.328 53.8657C763.323 55.0638 765.919 56.8806 768.179 59.4151L781.283 47.7278ZM766.913 37.5886C761.592 35.412 755.93 34.3635 750.017 34.3635V51.9222C753.818 51.9222 757.204 52.5879 760.264 53.8399L766.913 37.5886ZM750.017 41.9222C757.813 41.9222 764.63 42.9617 770.561 44.9116L776.045 28.2313C768.071 25.6097 759.364 24.3635 750.017 24.3635V41.9222ZM770.594 44.9225C776.595 46.8686 781.478 49.6681 785.416 53.2274L797.19 40.2011C791.223 34.8081 784.106 30.8456 776.011 28.2203L770.594 44.9225ZM785.478 53.2829C789.486 56.8374 792.642 61.2579 794.923 66.6873L811.111 59.8841C807.869 52.1707 803.215 45.5435 797.128 40.1457L785.478 53.2829ZM794.923 66.6873C797.151 71.9872 798.381 78.3653 798.381 86H815.939C815.939 76.4918 814.407 67.7271 811.111 59.8841L794.923 66.6873ZM798.381 86C798.381 93.6346 797.151 100.013 794.923 105.313L811.111 112.116C814.407 104.273 815.939 95.5082 815.939 86H798.381ZM794.923 105.313C792.642 110.742 789.486 115.163 785.478 118.717L797.128 131.854C803.215 126.456 807.869 119.829 811.111 112.116L794.923 105.313ZM785.416 118.773C781.478 122.332 776.595 125.131 770.594 127.077L776.011 143.78C784.106 141.154 791.223 137.192 797.19 131.799L785.416 118.773ZM770.561 127.088C764.63 129.038 757.813 130.078 750.017 130.078V147.636C759.364 147.636 768.071 146.39 776.045 143.769L770.561 127.088ZM750.017 130.078C742.224 130.078 735.345 129.039 729.297 127.077L723.88 143.78C731.927 146.39 740.667 147.636 750.017 147.636V130.078ZM729.297 127.077C723.286 125.128 718.328 122.315 714.271 118.717L702.621 131.854C708.659 137.209 715.796 141.158 723.88 143.78L729.297 127.077ZM714.332 118.773C710.399 115.217 707.265 110.78 704.968 105.313L688.781 112.116C692.007 119.792 696.588 126.402 702.559 131.799L714.332 118.773ZM705.009 105.413C702.847 100.084 701.653 93.67 701.653 86H684.095C684.095 95.4728 685.568 104.201 688.739 112.015L705.009 105.413ZM701.653 86C701.653 78.33 702.847 71.9156 705.009 66.5869L688.739 59.9845C685.568 67.7986 684.095 76.5271 684.095 86H701.653ZM704.968 66.6873C707.265 61.2202 710.399 56.783 714.332 53.2274L702.559 40.2011C696.588 45.598 692.007 52.2083 688.781 59.8841L704.968 66.6873ZM714.271 53.2828C718.328 49.6849 723.286 46.872 729.297 44.9225L723.88 28.2203C715.796 30.8423 708.659 34.7912 702.621 40.1457L714.271 53.2828ZM729.297 44.9225C735.345 42.961 742.224 41.9222 750.017 41.9222V24.3635C740.667 24.3635 731.927 25.6104 723.88 28.2203L729.297 44.9225ZM910.501 127L913.278 135.329L913.34 135.308L913.402 135.286L910.501 127ZM920.216 121L926.424 127.208L926.478 127.153L926.531 127.098L920.216 121ZM926.358 110.571L918.086 107.63L918.067 107.684L918.049 107.739L926.358 110.571ZM928.644 36V27.2207H919.865V36H928.644ZM949.358 36H958.138V27.2207H949.358V36ZM935.93 128.143L941.405 135.005L941.428 134.988L941.45 134.97L935.93 128.143ZM859.787 128.143L854.232 134.941L854.271 134.973L854.312 135.005L859.787 128.143ZM846.501 36V27.2207H837.722V36H846.501ZM867.216 36H875.995V27.2207H867.216V36ZM869.358 110.571L861.03 113.348L861.067 113.46L861.108 113.572L869.358 110.571ZM875.644 121L869.328 127.098L869.382 127.153L869.436 127.208L875.644 121ZM885.216 127L882.249 135.263L882.375 135.308L882.502 135.349L885.216 127ZM897.93 137.636C903.364 137.636 908.515 136.916 913.278 135.329L907.725 118.671C905.059 119.56 901.829 120.078 897.93 120.078V137.636ZM913.402 135.286C918.367 133.549 922.76 130.872 926.424 127.208L914.008 114.792C912.338 116.462 910.255 117.785 907.601 118.714L913.402 135.286ZM926.531 127.098C930.222 123.275 932.887 118.63 934.668 113.404L918.049 107.739C916.973 110.894 915.542 113.201 913.9 114.902L926.531 127.098ZM934.63 113.513C936.573 108.048 937.424 101.91 937.424 95.2857H919.865C919.865 100.471 919.191 104.523 918.086 107.63L934.63 113.513ZM937.424 95.2857V36H919.865V95.2857H937.424ZM928.644 44.7793H949.358V27.2207H928.644V44.7793ZM940.579 36V95.2857H958.138V36H940.579ZM940.579 95.2857C940.579 108.091 936.757 116.185 930.41 121.316L941.45 134.97C953.008 125.625 958.138 111.814 958.138 95.2857H940.579ZM930.454 121.28C923.604 126.746 913.156 130.078 897.93 130.078V147.636C915.465 147.636 930.351 143.825 941.405 135.005L930.454 121.28ZM897.93 130.078C882.594 130.078 872.105 126.74 865.263 121.28L854.312 135.005C865.374 143.832 880.313 147.636 897.93 147.636V130.078ZM865.342 121.345C859.077 116.224 855.281 108.123 855.281 95.2857H837.722C837.722 111.782 842.783 125.585 854.232 134.941L865.342 121.345ZM855.281 95.2857V36H837.722V95.2857H855.281ZM846.501 44.7793H867.216V27.2207H846.501V44.7793ZM858.436 36V95.2857H875.995V36H858.436ZM858.436 95.2857C858.436 101.861 859.227 107.94 861.03 113.348L877.687 107.795C876.633 104.631 875.995 100.52 875.995 95.2857H858.436ZM861.108 113.572C862.985 118.734 865.68 123.319 869.328 127.098L881.96 114.902C880.275 113.157 878.78 110.79 877.609 107.571L861.108 113.572ZM869.436 127.208C873.061 130.833 877.374 133.513 882.249 135.263L888.182 118.737C885.628 117.82 883.56 116.5 881.852 114.792L869.436 127.208ZM882.502 135.349C887.319 136.915 892.49 137.636 897.93 137.636V120.078C894.036 120.078 890.731 119.561 887.929 118.651L882.502 135.349Z" fill="#BBB7C5"/>
</g>
</svg>
