<svg width="80" height="81" viewBox="0 0 80 81" fill="none" xmlns="http://www.w3.org/2000/svg">
<circle cx="40" cy="40.908" r="38" stroke="#454056" stroke-width="4"/>
<path d="M31.2802 28.138V33.038C33.8002 31.113 36.6002 30.203 38.9802 30.203C41.3952 30.203 42.9352 31.113 42.9352 32.863C42.9352 35.138 40.8002 36.083 38.3152 37.518C34.8152 39.583 30.4752 41.823 30.4752 47.563V49.908H48.3252V45.393L36.4252 45.428C36.4602 43.888 38.8752 42.593 41.7102 40.913C44.8252 39.058 48.1502 36.678 48.1502 32.653C48.1502 27.788 44.2652 25.618 39.4702 25.618C36.5652 25.618 33.7302 26.388 31.2802 28.138Z" fill="#454056"/>
</svg>
