<svg width="80" height="81" viewBox="0 0 80 81" fill="none" xmlns="http://www.w3.org/2000/svg">
<circle cx="40" cy="40.908" r="38" stroke="#454056" stroke-width="4"/>
<path d="M47.5202 32.198C47.5202 27.858 43.8452 25.618 38.9102 25.618C35.9702 25.618 33.2752 26.318 31.1402 27.473V32.338C33.4852 30.903 36.0402 30.203 38.1752 30.203C41.0452 30.203 42.5502 31.218 42.5502 32.933C42.5502 34.578 41.1152 35.453 38.7702 35.453L35.4802 35.418L35.4452 39.898H39.3652C41.7452 39.898 43.4952 40.633 43.4952 42.663C43.4952 44.903 41.2552 45.778 38.5602 45.778C35.8302 45.813 33.4152 45.428 30.7202 43.923V48.788C33.4152 49.908 35.9002 50.398 38.9802 50.398C43.8802 50.398 48.5002 48.403 48.5002 43.398C48.5002 39.898 46.3302 38.043 43.9152 37.308C46.1552 36.538 47.5202 34.648 47.5202 32.198Z" fill="#454056"/>
</svg>
