<svg width="685" height="945" viewBox="0 0 685 945" fill="none" xmlns="http://www.w3.org/2000/svg">
<g opacity="0.5">
<path opacity="0.35" d="M12.4574 155.627C12.4574 208.725 37.1665 247.891 90.5276 247.891C143.889 247.891 168.598 208.725 168.598 155.627C168.598 102.266 143.889 63.3621 90.5276 63.3621C37.1665 63.3621 12.4574 102.266 12.4574 155.627ZM152.826 155.627C152.826 202.942 133.111 233.171 90.5276 233.171C47.9439 233.171 28.2292 202.942 28.2292 155.627C28.2292 108.312 47.9439 78.0824 90.5276 78.0824C133.111 78.0824 152.826 108.312 152.826 155.627ZM212.2 236.851C212.2 230.28 207.468 226.6 201.685 226.6C196.165 226.6 191.171 230.28 191.171 236.851C191.171 243.423 196.165 247.103 201.685 247.103C207.468 247.103 212.2 243.423 212.2 236.851ZM234.681 120.666C234.681 157.993 264.91 176.13 294.876 176.13C316.957 176.13 336.671 168.77 354.809 153.787C354.02 211.879 325.894 233.171 290.145 233.171C276.476 233.171 262.019 229.754 249.664 223.182V237.903C261.493 244.474 275.95 247.891 290.671 247.891C336.934 247.891 370.581 218.977 370.581 151.684C370.581 97.5342 346.66 63.3621 296.979 63.3621C262.807 63.3621 234.681 83.6025 234.681 120.666ZM250.453 120.14C250.453 90.9626 271.744 77.8195 298.031 77.8195C330.889 77.8195 350.866 98.5857 354.283 138.015C339.037 153.524 318.534 161.673 298.556 161.673C273.322 161.673 250.453 150.632 250.453 120.14ZM414.349 251.572L459.145 161.76H452.902L408.106 251.572H414.349ZM423.221 183.665C423.221 172.932 415.116 167.127 406.135 167.127C397.044 167.127 388.83 172.932 388.83 183.665C388.83 194.399 397.044 200.204 406.135 200.204C415.116 200.204 423.221 194.399 423.221 183.665ZM394.744 183.665C394.744 177.094 399.235 172.603 406.135 172.603C412.816 172.603 417.307 177.094 417.307 183.665C417.307 190.237 412.816 194.728 406.135 194.728C399.235 194.728 394.744 190.237 394.744 183.665ZM478.313 229.666C478.313 218.933 470.208 213.128 461.226 213.128C452.136 213.128 443.921 218.933 443.921 229.666C443.921 240.4 452.136 246.205 461.226 246.205C470.208 246.205 478.313 240.4 478.313 229.666ZM449.836 229.666C449.836 223.095 454.326 218.604 461.226 218.604C467.908 218.604 472.398 223.095 472.398 229.666C472.398 236.238 467.908 240.728 461.226 240.728C454.326 240.728 449.836 236.238 449.836 229.666Z" fill="#D5D2DC"/>
<path opacity="0.35" d="M39.2839 787.063C39.2839 832.179 60.2781 865.457 105.617 865.457C150.955 865.457 171.95 832.179 171.95 787.063C171.95 741.725 150.955 708.67 105.617 708.67C60.2781 708.67 39.2839 741.725 39.2839 787.063ZM158.549 787.063C158.549 827.265 141.798 852.95 105.617 852.95C69.4352 852.95 52.6844 827.265 52.6844 787.063C52.6844 746.862 69.4352 721.177 105.617 721.177C141.798 721.177 158.549 746.862 158.549 787.063ZM208.997 856.076C208.997 850.493 204.976 847.366 200.063 847.366C195.373 847.366 191.129 850.493 191.129 856.076C191.129 861.66 195.373 864.787 200.063 864.787C204.976 864.787 208.997 861.66 208.997 856.076ZM236.351 746.638C236.351 762.496 245.955 772.546 258.909 779.246C240.148 789.297 230.991 805.824 230.991 821.682C230.991 845.133 251.092 865.457 291.74 865.457C333.058 865.457 351.373 845.803 351.373 825.255C351.373 806.718 338.642 796.22 323.008 789.297C338.195 779.693 346.236 764.952 346.012 749.095C345.566 728.547 325.688 708.67 290.847 708.67C252.655 708.67 236.351 727.877 236.351 746.638ZM292.187 791.754C315.638 798.454 338.195 803.814 338.195 825.925C338.195 841.112 320.328 853.173 291.963 853.173C260.249 853.173 244.168 839.772 244.168 820.341C244.168 806.494 253.102 792.424 270.299 784.83C277.446 787.51 285.04 789.743 292.187 791.754ZM332.835 751.328C332.835 764.729 325.241 777.013 311.394 784.83C304.694 782.82 297.77 781.033 291.74 779.246C273.203 773.886 249.751 768.526 249.751 746.638C249.751 732.791 263.599 720.954 290.623 720.954C318.318 720.954 332.835 735.694 332.835 751.328ZM387.952 868.584L426.013 792.275H420.709L382.648 868.584H387.952ZM395.49 810.887C395.49 801.767 388.603 796.835 380.972 796.835C373.249 796.835 366.269 801.767 366.269 810.887C366.269 820.006 373.249 824.939 380.972 824.939C388.603 824.939 395.49 820.006 395.49 810.887ZM371.294 810.887C371.294 805.303 375.11 801.488 380.972 801.488C386.649 801.488 390.465 805.303 390.465 810.887C390.465 816.47 386.649 820.286 380.972 820.286C375.11 820.286 371.294 816.47 371.294 810.887ZM442.299 849.972C442.299 840.852 435.412 835.92 427.781 835.92C420.058 835.92 413.078 840.852 413.078 849.972C413.078 859.091 420.058 864.024 427.781 864.024C435.412 864.024 442.299 859.091 442.299 849.972ZM418.103 849.972C418.103 844.388 421.919 840.573 427.781 840.573C433.458 840.573 437.274 844.388 437.274 849.972C437.274 855.555 433.458 859.371 427.781 859.371C421.919 859.371 418.103 855.555 418.103 849.972Z" fill="#BBB7C5"/>
<path opacity="0.35" d="M-182.615 481.527C-182.615 585.779 -134.102 662.677 -29.3342 662.677C75.4333 662.677 123.946 585.779 123.946 481.527C123.946 376.76 75.4333 300.378 -29.3342 300.378C-134.102 300.378 -182.615 376.76 -182.615 481.527ZM92.9806 481.527C92.9806 574.425 54.2733 633.776 -29.3342 633.776C-112.942 633.776 -151.649 574.425 -151.649 481.527C-151.649 388.63 -112.942 329.279 -29.3342 329.279C54.2733 329.279 92.9806 388.63 92.9806 481.527ZM209.554 641.001C209.554 628.099 200.264 620.873 188.91 620.873C178.072 620.873 168.266 628.099 168.266 641.001C168.266 653.903 178.072 661.129 188.91 661.129C200.264 661.129 209.554 653.903 209.554 641.001ZM237.935 306.055V335.472H450.05L296.254 657H329.284L484.113 333.408V306.055H237.935ZM552.016 669.902L639.967 493.57H627.71L539.758 669.902H552.016ZM569.434 536.578C569.434 515.504 553.521 504.107 535.888 504.107C518.039 504.107 501.911 515.504 501.911 536.578C501.911 557.652 518.039 569.049 535.888 569.049C553.521 569.049 569.434 557.652 569.434 536.578ZM513.524 536.578C513.524 523.675 522.34 514.859 535.888 514.859C549.005 514.859 557.822 523.675 557.822 536.578C557.822 549.48 549.005 558.297 535.888 558.297C522.34 558.297 513.524 549.48 513.524 536.578ZM677.599 626.894C677.599 605.82 661.686 594.423 644.053 594.423C626.205 594.423 610.077 605.82 610.077 626.894C610.077 647.968 626.205 659.365 644.053 659.365C661.686 659.365 677.599 647.968 677.599 626.894ZM621.689 626.894C621.689 613.992 630.505 605.175 644.053 605.175C657.17 605.175 665.987 613.992 665.987 626.894C665.987 639.797 657.17 648.613 644.053 648.613C630.505 648.613 621.689 639.797 621.689 626.894Z" fill="#4370B8"/>
</g>
</svg>
