<svg width="11" height="14" viewBox="0 0 11 14" fill="none" xmlns="http://www.w3.org/2000/svg">
<path d="M0.65 10.4235V10.4234C0.649998 10.3166 0.697627 10.1677 0.910093 9.97433C1.12795 9.7761 1.47505 9.57568 1.94906 9.39605C2.89314 9.03829 4.19157 8.81851 5.51725 8.78326C6.84561 8.74795 8.13223 8.89978 9.06041 9.23507C10.0312 9.58574 10.35 10.0234 10.35 10.4235V13.1193H0.65V10.4235Z" stroke="#454056" stroke-width="1.3"/>
<path d="M8.1502 3.61558C8.1502 5.14148 6.94833 6.3502 5.5002 6.3502C4.05206 6.3502 2.8502 5.14148 2.8502 3.61558C2.8502 2.08968 4.05206 0.880957 5.5002 0.880957C6.94833 0.880957 8.1502 2.08968 8.1502 3.61558Z" stroke="#454056" stroke-width="1.3"/>
</svg>
