<svg width="244" height="286" viewBox="0 0 244 286" fill="none" xmlns="http://www.w3.org/2000/svg">
<g clip-path="url(#clip0_1_1637)">
<path d="M61.7132 163.429C66.9644 163.429 71.2377 159.15 71.2377 153.889C71.2377 148.634 66.9644 144.349 61.7132 144.349C56.462 144.349 52.1887 148.628 52.1887 153.889C52.1855 159.15 56.462 163.429 61.7132 163.429Z" fill="#BBB7C5"/>
<path d="M10.4905 150.774C3.80112 151.899 0.4104 155.917 0.4104 162.708V199.527C0.4104 206.324 3.80112 210.333 10.4905 211.462L21.9421 213.394C26.6789 224.146 34.0445 234.058 43.3944 242.263L50.8298 276.142C52.2807 282.748 56.2683 285.962 63.0275 285.962H82.0987C88.7595 285.962 92.8232 282.828 94.5186 276.374L97.2267 266.1C107.32 267.448 117.536 267.406 127.521 266.014L129.746 276.145C131.197 282.755 135.185 285.969 141.947 285.969H161.015C167.686 285.969 171.746 282.831 173.435 276.384L182.988 240.133C199.386 224.705 208.406 204.735 208.406 183.759C208.406 181.719 208.295 179.706 208.123 177.7C214.318 176.139 219.432 174.308 223.531 172.309C227.747 174.229 232.963 175.411 239.234 175.491C239.256 175.491 239.275 175.491 239.294 175.491C241.65 175.491 243.577 173.59 243.599 171.228C243.634 168.847 241.723 166.891 239.341 166.86C236.989 166.828 234.84 166.615 232.906 166.252C240.926 159.233 241.18 151.979 240.862 148.99C240.027 141.192 233.652 135.311 226.036 135.311C216.797 135.311 209.784 142.664 209.72 152.411C209.689 157.272 211.495 162.326 215.308 166.462C212.829 167.419 210.012 168.306 206.888 169.133C198.862 130.132 159.39 100.424 112.025 100.424C99.3412 100.424 87.0387 102.522 75.4093 106.658C60.8083 93.5892 41.9181 91.5769 31.6729 91.5769L30.584 91.5864C25.6598 91.6564 24.0057 94.4603 23.5231 95.6588C23.0279 96.8891 22.2754 100.141 25.9519 103.788C30.6855 108.477 38.5591 117.655 40.2227 128.193C33.927 134.271 28.7394 141.043 24.7581 148.37L10.4905 150.774ZM226.026 143.936C229.176 143.936 231.925 146.549 232.284 149.896C232.674 153.552 230.287 158.184 223.591 162.396C219.997 159.681 218.318 156.045 218.34 152.452C218.362 148.348 220.778 143.936 226.026 143.936ZM31.4158 154.22C35.3621 146.441 40.8291 139.307 47.6645 133.022L49.2138 131.598L49.0487 129.503C48.0772 117.225 40.3846 106.649 34.5271 100.265C44.3373 100.656 59.9003 103.273 71.3519 114.695L73.333 116.669L75.9427 115.664C87.3276 111.281 99.4682 109.058 112.021 109.058C160.415 109.058 199.777 142.569 199.777 183.759C199.777 202.681 191.411 220.754 176.229 234.637L175.293 235.495L165.092 274.193C164.393 276.873 163.784 277.341 161.012 277.341H141.944C139.236 277.341 138.741 276.943 138.169 274.302L134.179 256.143L130.102 256.871C118.549 258.928 106.494 258.988 94.7694 257.008L90.8866 256.34L86.1879 274.181C85.4831 276.861 84.8703 277.331 82.105 277.331H63.0339C60.3289 277.331 59.8368 276.934 59.2558 274.292L51.1981 237.584L50.0869 236.636C40.6101 228.6 33.3143 218.668 28.9934 207.92L28.0917 205.682L11.9223 202.948C9.33166 202.513 9.03323 202.166 9.03323 199.527V162.708C9.03323 160.076 9.33167 159.726 11.9255 159.287L30.4379 156.159L31.4158 154.22Z" fill="#BBB7C5"/>
<path d="M88.0899 132.914C92.3981 131.096 100.342 128.667 112.019 128.667C123.68 128.667 131.633 131.102 135.954 132.92C138.147 133.845 140.865 133.254 142.179 131.267C143.494 129.28 142.941 126.61 140.786 125.599C135.83 123.281 126.337 120.029 112.025 120.029C97.6938 120.029 88.2074 123.281 83.2578 125.602C81.1021 126.613 80.5465 129.287 81.8672 131.27C83.1784 133.257 85.8961 133.842 88.0899 132.914Z" fill="#BBB7C5"/>
<path d="M112.015 87.7492C136.22 87.7492 155.914 68.036 155.914 43.7991C155.92 19.5653 136.22 -0.151123 112.015 -0.151123C87.8136 -0.151123 68.1233 19.5653 68.1233 43.7991C68.1265 68.036 87.8136 87.7492 112.015 87.7492ZM112.015 8.48314C131.467 8.48314 147.288 24.3275 147.288 43.7991C147.288 63.2738 131.471 79.1118 112.015 79.1118C92.5695 79.1118 76.7429 63.2738 76.7429 43.7991C76.7461 24.3275 92.5695 8.48314 112.015 8.48314Z" fill="#BBB7C5"/>
<path d="M111.205 57.2942C106.084 57.2942 100.738 54.5825 100.684 54.5603L96.7283 62.2313C97.0077 62.3743 103.392 65.6106 110.31 65.8776V71.2375H115.558V65.4389C122.762 63.8717 126.086 58.4832 126.086 53.0884C126.086 46.6286 121.774 42.0349 113.269 39.4439C106.564 37.3966 106.564 35.0473 106.564 34.0459C106.564 30.3964 110.488 29.8496 112.825 29.8496C117.942 29.8496 123.298 32.555 123.343 32.5772L127.295 24.9062C127.041 24.7727 121.724 22.0578 115.555 21.3743V16.361H110.307V21.4188C101.83 22.4075 97.9442 28.2251 97.9442 34.0491C97.9442 40.5153 102.252 45.109 110.758 47.7031C117.463 49.7567 117.463 52.0933 117.463 53.0915C117.466 56.7506 113.542 57.2942 111.205 57.2942Z" fill="#BBB7C5"/>
</g>
<defs>
<clipPath id="clip0_1_1637">
<rect width="244" height="286" fill="white"/>
</clipPath>
</defs>
</svg>
