<svg width="140" height="34" viewBox="0 0 140 34" fill="none" xmlns="http://www.w3.org/2000/svg">
<path d="M45.3729 4.15259C45.3729 5.15531 45.1321 6.0327 44.5299 6.6594C43.8074 7.41144 42.9644 7.78746 41.8806 7.78746C40.7967 7.78746 39.9537 7.41144 39.2312 6.6594C38.5086 5.90736 38.1473 5.02997 38.1473 3.90191C38.1473 2.77385 38.5086 1.89646 39.2312 1.14442C39.9537 0.392379 40.7967 0.0163574 41.8806 0.0163574C42.3623 0.0163574 42.844 0.141697 43.3257 0.392378C43.8074 0.643059 44.1687 0.89374 44.4095 1.26976L43.8074 1.89646C43.3257 1.26976 42.7235 1.01908 41.8806 1.01908C41.158 1.01908 40.4354 1.26976 39.9537 1.89646C39.3516 2.39782 39.1107 3.14987 39.1107 4.02725C39.1107 4.90463 39.3516 5.65668 39.9537 6.15804C40.5559 6.6594 41.158 7.03542 41.8806 7.03542C42.7235 7.03542 43.3257 6.78474 43.9278 6.15804C44.2891 5.78202 44.5299 5.28065 44.5299 4.65395H41.8806V3.65123H45.3729V4.15259ZM50.9125 1.01908H47.661V3.40055H50.6717V4.27793H47.661V6.6594H50.9125V7.66212H46.6976V0.141698H50.9125V1.01908ZM54.8866 7.66212H53.9232V1.01908H51.876V0.141698H56.9339V1.01908H54.8866V7.66212ZM60.4262 7.66212V0.141698H61.3896V7.66212H60.4262ZM65.4841 7.66212H64.5207V1.01908H62.4735V0.141698H67.411V1.01908H65.3637V7.66212H65.4841ZM76.9247 6.6594C76.2021 7.41144 75.3591 7.78746 74.2753 7.78746C73.1914 7.78746 72.3484 7.41144 71.6259 6.6594C70.9033 5.90736 70.5421 5.02997 70.5421 3.90191C70.5421 2.77385 70.9033 1.89646 71.6259 1.14442C72.3484 0.392379 73.1914 0.0163574 74.2753 0.0163574C75.3591 0.0163574 76.2021 0.392379 76.9247 1.14442C77.6472 1.89646 78.0085 2.77385 78.0085 3.90191C78.0085 5.02997 77.6472 5.90736 76.9247 6.6594ZM72.3485 6.0327C72.8302 6.53406 73.5527 6.91008 74.2753 6.91008C74.9978 6.91008 75.7204 6.6594 76.2021 6.0327C76.6838 5.53133 77.0451 4.77929 77.0451 3.90191C77.0451 3.02453 76.8042 2.27248 76.2021 1.77112C75.7204 1.26976 74.9978 0.89374 74.2753 0.89374C73.5527 0.89374 72.8302 1.14442 72.3485 1.77112C71.8667 2.27248 71.5055 3.02453 71.5055 3.90191C71.5055 4.77929 71.7463 5.53133 72.3485 6.0327ZM79.3332 7.66212V0.141698H80.417L83.9094 6.0327V0.141698H84.8728V7.66212H83.9094L80.1762 1.52044V7.66212H79.3332Z" fill="white"/>
<path d="M70.301 18.6923C67.4108 18.6923 65.1227 20.9484 65.1227 24.0819C65.1227 27.0901 67.4108 29.4715 70.301 29.4715C73.1913 29.4715 75.4794 27.2154 75.4794 24.0819C75.4794 20.8231 73.1913 18.6923 70.301 18.6923ZM70.301 27.2154C68.7355 27.2154 67.4108 25.8367 67.4108 23.9566C67.4108 22.0765 68.7355 20.6977 70.301 20.6977C71.8666 20.6977 73.1913 21.9511 73.1913 23.9566C73.1913 25.8367 71.8666 27.2154 70.301 27.2154ZM59.1014 18.6923C56.2111 18.6923 53.923 20.9484 53.923 24.0819C53.923 27.0901 56.2111 29.4715 59.1014 29.4715C61.9916 29.4715 64.2797 27.2154 64.2797 24.0819C64.2797 20.8231 61.9916 18.6923 59.1014 18.6923ZM59.1014 27.2154C57.5358 27.2154 56.2111 25.8367 56.2111 23.9566C56.2111 22.0765 57.5358 20.6977 59.1014 20.6977C60.6669 20.6977 61.9916 21.9511 61.9916 23.9566C61.9916 25.8367 60.6669 27.2154 59.1014 27.2154ZM45.734 20.3217V22.5778H50.9124C50.792 23.8312 50.3102 24.834 49.7081 25.4607C48.9856 26.2127 47.7813 27.0901 45.734 27.0901C42.4825 27.0901 40.074 24.4579 40.074 21.0737C40.074 17.6895 42.603 15.0574 45.734 15.0574C47.42 15.0574 48.7447 15.8094 49.7081 16.6868L51.2737 15.0574C49.949 13.804 48.263 12.8013 45.8545 12.8013C41.5191 12.8013 37.7859 16.5615 37.7859 21.0737C37.7859 25.586 41.5191 29.3462 45.8545 29.3462C48.263 29.3462 49.949 28.5942 51.3941 26.9647C52.8392 25.4607 53.3209 23.3299 53.3209 21.7004C53.3209 21.1991 53.3209 20.6977 53.2005 20.3217H45.734ZM100.408 22.0765C99.926 20.8231 98.7217 18.6923 96.0723 18.6923C93.4229 18.6923 91.2552 20.8231 91.2552 24.0819C91.2552 27.0901 93.4229 29.4715 96.3132 29.4715C98.6013 29.4715 100.046 27.9675 100.528 27.0901L98.8421 25.8367C98.24 26.7141 97.5174 27.3408 96.3132 27.3408C95.1089 27.3408 94.3863 26.8394 93.7842 25.7113L100.649 22.7032L100.408 22.0765ZM93.4229 23.8312C93.4229 21.8258 94.9885 20.6977 96.0723 20.6977C96.9153 20.6977 97.7583 21.1991 97.9991 21.8258L93.4229 23.8312ZM87.7629 28.9702H90.051V13.3026H87.7629V28.9702ZM84.1501 19.8203C83.548 19.1936 82.5845 18.5669 81.3803 18.5669C78.8513 18.5669 76.4428 20.9484 76.4428 23.9566C76.4428 26.9647 78.7309 29.2209 81.3803 29.2209C82.5845 29.2209 83.548 28.5942 84.0297 27.9675H84.1501V28.7195C84.1501 30.725 83.0662 31.853 81.3803 31.853C80.0556 31.853 79.0922 30.8503 78.8513 29.9729L76.9245 30.8503C77.5266 32.229 78.9717 33.9838 81.5007 33.9838C84.1501 33.9838 86.3178 32.3544 86.3178 28.4688V18.943H84.1501V19.8203ZM81.5007 27.2154C79.9352 27.2154 78.6105 25.8367 78.6105 23.9566C78.6105 22.0765 79.9352 20.6977 81.5007 20.6977C83.0662 20.6977 84.2705 22.0765 84.2705 23.9566C84.2705 25.8367 83.0662 27.2154 81.5007 27.2154ZM110.885 13.3026H105.466V28.9702H107.754V23.0792H110.885C113.414 23.0792 115.822 21.1991 115.822 18.1909C115.822 15.1827 113.414 13.3026 110.885 13.3026ZM111.005 20.8231H107.754V15.4334H111.005C112.691 15.4334 113.655 16.9375 113.655 18.0656C113.534 19.4443 112.571 20.8231 111.005 20.8231ZM124.854 18.5669C123.168 18.5669 121.482 19.319 120.88 20.9484L122.927 21.8258C123.409 20.9484 124.132 20.6977 124.975 20.6977C126.179 20.6977 127.263 21.4498 127.383 22.7032V22.8285C127.022 22.5778 126.058 22.2018 125.095 22.2018C122.927 22.2018 120.76 23.4552 120.76 25.7113C120.76 27.8421 122.566 29.2209 124.493 29.2209C126.058 29.2209 126.781 28.4688 127.383 27.7168H127.504V28.9702H129.671V22.9538C129.43 20.1964 127.383 18.5669 124.854 18.5669ZM124.613 27.2154C123.891 27.2154 122.807 26.8394 122.807 25.8367C122.807 24.5833 124.132 24.2073 125.216 24.2073C126.179 24.2073 126.661 24.4579 127.263 24.7086C127.022 26.2127 125.818 27.2154 124.613 27.2154ZM137.258 18.943L134.729 25.7113H134.609L131.959 18.943H129.551L133.525 28.4688L131.237 33.7331H133.525L139.667 18.943H137.258ZM117.027 28.9702H119.315V13.3026H117.027V28.9702Z" fill="white"/>
<path d="M0.583252 3.63715C0.583252 3.09536 0.655486 2.67592 0.816768 2.38842L14.9373 16.5415V16.5686L1.02118 30.7418C0.765906 30.4413 0.583252 29.9562 0.583252 29.3554V3.63715Z" fill="white" stroke="#454056" stroke-width="0.5"/>
<path d="M19.7688 12.0128L25.3451 15.2581C26.0987 15.6967 26.4206 16.2381 26.4206 16.7294C26.4206 17.2202 26.0995 17.7609 25.3477 18.1993L19.8033 21.2485L15.323 16.6854V16.5407L19.7688 12.0128Z" fill="white" stroke="#454056" stroke-width="0.5"/>
<path d="M1.15651 31.0853L15.0737 16.9112L19.4697 21.3884L3.07546 30.9948C2.58536 31.2153 2.17229 31.3145 1.82834 31.302C1.5747 31.2928 1.35276 31.2228 1.15651 31.0853Z" fill="white" stroke="#454056" stroke-width="0.5"/>
<path d="M3.06622 2.22587C3.06658 2.22607 3.06693 2.22627 3.06729 2.22647L19.4685 11.7226L15.0729 16.1993L1.15477 2.13751C1.35809 1.98564 1.58487 1.89839 1.83739 1.88002C2.17399 1.85553 2.58145 1.95178 3.06622 2.22587Z" fill="white" stroke="#454056" stroke-width="0.5"/>
<g opacity="0.2">
<mask id="path-7-inside-1_543_11260" fill="white">
<path d="M19.7584 21.3258L3.1904 30.8683C2.2763 31.4502 1.47647 31.3338 0.905156 30.8683L0.790894 30.9847L0.905156 31.1011C1.47647 31.5666 2.2763 31.6829 3.1904 31.1011L19.7584 21.3258Z"/>
</mask>
<path d="M19.7584 21.3258L3.1904 30.8683C2.2763 31.4502 1.47647 31.3338 0.905156 30.8683L0.790894 30.9847L0.905156 31.1011C1.47647 31.5666 2.2763 31.6829 3.1904 31.1011L19.7584 21.3258Z" fill="white"/>
<path d="M19.7584 21.3258L20.0125 21.7564L19.5088 20.8925L19.7584 21.3258ZM3.1904 30.8683L2.94085 30.4351L2.93125 30.4406L2.92191 30.4465L3.1904 30.8683ZM0.905156 30.8683L1.22098 30.4807L0.867671 30.1928L0.54838 30.518L0.905156 30.8683ZM0.790894 30.9847L0.434117 30.6344L0.0901682 30.9847L0.434124 31.335L0.790894 30.9847ZM0.905156 31.1011L0.548386 31.4514L0.567822 31.4712L0.589329 31.4887L0.905156 31.1011ZM3.1904 31.1011L2.93632 30.6704L2.92904 30.6747L2.92191 30.6793L3.1904 31.1011ZM19.5088 20.8925L2.94085 30.4351L3.43995 31.3016L20.0079 21.7591L19.5088 20.8925ZM2.92191 30.4465C2.53426 30.6933 2.20457 30.7715 1.93808 30.7614C1.67257 30.7514 1.4319 30.6525 1.22098 30.4807L0.589329 31.2559C0.949721 31.5496 1.39462 31.7416 1.90038 31.7607C2.40516 31.7798 2.93244 31.6252 3.45889 31.2901L2.92191 30.4465ZM0.54838 30.518L0.434117 30.6344L1.14767 31.335L1.26193 31.2186L0.54838 30.518ZM0.434124 31.335L0.548386 31.4514L1.26193 30.7508L1.14766 30.6344L0.434124 31.335ZM0.589329 31.4887C0.949721 31.7823 1.39462 31.9744 1.90038 31.9935C2.40516 32.0125 2.93244 31.858 3.45889 31.5229L2.92191 30.6793C2.53426 30.926 2.20457 31.0042 1.93808 30.9942C1.67257 30.9842 1.4319 30.8853 1.22098 30.7134L0.589329 31.4887ZM3.44447 31.5317L20.0125 21.7564L19.5043 20.8952L2.93632 30.6704L3.44447 31.5317Z" fill="#454056" mask="url(#path-7-inside-1_543_11260)"/>
</g>
<g opacity="0.2">
<mask id="path-9-inside-2_543_11260" fill="white">
<path d="M0.7903 30.8681C0.447514 30.519 0.333252 29.9371 0.333252 29.2389V29.3553C0.333252 30.0535 0.561776 30.6354 0.904562 30.9845V30.8681H0.7903ZM25.4709 18.0672L19.7578 21.3256L19.8721 21.442L25.4709 18.1835C26.2707 17.718 26.6135 17.1362 26.6135 16.5543C26.6135 17.1362 26.1565 17.6017 25.4709 18.0672Z"/>
</mask>
<path d="M0.7903 30.8681C0.447514 30.519 0.333252 29.9371 0.333252 29.2389V29.3553C0.333252 30.0535 0.561776 30.6354 0.904562 30.9845V30.8681H0.7903ZM25.4709 18.0672L19.7578 21.3256L19.8721 21.442L25.4709 18.1835C26.2707 17.718 26.6135 17.1362 26.6135 16.5543C26.6135 17.1362 26.1565 17.6017 25.4709 18.0672Z" fill="white"/>
<path d="M0.7903 30.8681L0.433526 31.2184L0.580508 31.3681H0.7903V30.8681ZM0.904562 30.9845L0.547789 31.3348L1.40456 32.2074V30.9845H0.904562ZM0.904562 30.8681H1.40456V30.3681H0.904562V30.8681ZM19.7578 21.3256L19.5101 20.8913L18.9463 21.2128L19.401 21.6759L19.7578 21.3256ZM19.8721 21.442L19.5153 21.7923L19.7876 22.0696L20.1236 21.8741L19.8721 21.442ZM25.4709 18.1835L25.2194 17.7514V17.7514L25.4709 18.1835ZM1.14707 30.5178C0.952859 30.32 0.833252 29.9193 0.833252 29.2389H-0.166748C-0.166748 29.9549 -0.0578314 30.718 0.433526 31.2184L1.14707 30.5178ZM-0.166748 29.2389V29.3553H0.833252V29.2389H-0.166748ZM-0.166748 29.3553C-0.166748 30.1535 0.0935473 30.8722 0.547789 31.3348L1.26134 30.6342C1.03 30.3986 0.833252 29.9535 0.833252 29.3553H-0.166748ZM1.40456 30.9845V30.8681H0.404562V30.9845H1.40456ZM0.904562 30.3681H0.7903V31.3681H0.904562V30.3681ZM25.2232 17.6328L19.5101 20.8913L20.0055 21.7599L25.7186 18.5015L25.2232 17.6328ZM19.401 21.6759L19.5153 21.7923L20.2288 21.0917L20.1146 20.9753L19.401 21.6759ZM20.1236 21.8741L25.7224 18.6157L25.2194 17.7514L19.6206 21.0098L20.1236 21.8741ZM25.7224 18.6157C26.627 18.0892 27.1135 17.3645 27.1135 16.5543H26.1135C26.1135 16.9079 25.9145 17.3469 25.2194 17.7514L25.7224 18.6157ZM26.1135 16.5543C26.1135 16.8523 25.88 17.1851 25.19 17.6535L25.7518 18.4808C26.433 18.0183 27.1135 17.42 27.1135 16.5543H26.1135Z" fill="#454056" mask="url(#path-9-inside-2_543_11260)"/>
</g>
<g opacity="0.2">
<mask id="path-11-inside-3_543_11260" fill="white">
<path d="M3.1898 2.12448L25.4709 15.0418C26.1565 15.5073 26.6135 15.9728 26.6135 16.5546C26.6135 15.9728 26.2707 15.3909 25.4709 14.9254L3.1898 2.00811C1.59013 1.07713 0.333252 1.77536 0.333252 3.63732V3.75369C0.333252 2.00811 1.59013 1.1935 3.1898 2.12448Z"/>
</mask>
<path d="M3.1898 2.12448L25.4709 15.0418C26.1565 15.5073 26.6135 15.9728 26.6135 16.5546C26.6135 15.9728 26.2707 15.3909 25.4709 14.9254L3.1898 2.00811C1.59013 1.07713 0.333252 1.77536 0.333252 3.63732V3.75369C0.333252 2.00811 1.59013 1.1935 3.1898 2.12448Z" fill="white"/>
<path d="M3.1898 2.12448L2.9383 2.55662L2.93903 2.55704L3.1898 2.12448ZM25.4709 15.0418L25.7518 14.6281L25.7371 14.6182L25.7217 14.6092L25.4709 15.0418ZM25.4709 14.9254L25.7224 14.4933L25.7217 14.4929L25.4709 14.9254ZM3.1898 2.00811L2.9383 2.44025L2.93903 2.44067L3.1898 2.00811ZM2.93903 2.55704L25.2201 15.4744L25.7217 14.6092L3.44058 1.69192L2.93903 2.55704ZM25.19 15.4555C25.88 15.9239 26.1135 16.2566 26.1135 16.5546H27.1135C27.1135 15.6889 26.433 15.0907 25.7518 14.6281L25.19 15.4555ZM27.1135 16.5546C27.1135 15.7445 26.627 15.0198 25.7224 14.4933L25.2194 15.3576C25.9145 15.7621 26.1135 16.2011 26.1135 16.5546H27.1135ZM25.7217 14.4929L3.44058 1.57554L2.93903 2.44067L25.2201 15.358L25.7217 14.4929ZM3.4413 1.57596C2.55969 1.06288 1.64502 0.927379 0.915426 1.34019C0.183371 1.7544 -0.166748 2.60941 -0.166748 3.63732H0.833252C0.833252 2.80328 1.11157 2.37818 1.40788 2.21053C1.70665 2.04148 2.22025 2.02235 2.9383 2.44025L3.4413 1.57596ZM-0.166748 3.63732V3.75369H0.833252V3.63732H-0.166748ZM0.833252 3.75369C0.833252 2.98971 1.10479 2.55074 1.41703 2.36523C1.72344 2.18319 2.23531 2.14749 2.9383 2.55662L3.4413 1.69234C2.54463 1.17049 1.62822 1.0766 0.906269 1.50551C0.190154 1.93096 -0.166748 2.77209 -0.166748 3.75369H0.833252Z" fill="#454056" mask="url(#path-11-inside-3_543_11260)"/>
</g>
</svg>
