<svg width="36" height="24" viewBox="0 0 36 24" fill="none" xmlns="http://www.w3.org/2000/svg">
<g clip-path="url(#clip0_1_1526)">
<path d="M26.5259 16.557C25.9664 18.4492 24.7674 19.9473 23.8881 20.7357C23.4085 21.2088 23.3286 21.9972 23.8082 22.5491L23.968 22.7068C24.3677 23.101 25.0072 23.2587 25.4868 23.0222C35.9579 17.582 35.7981 10.3284 35.7181 9.14571C35.7181 8.98802 35.7181 8.90918 35.7181 8.75149C35.7181 4.4151 32.1212 0.867142 27.7249 0.867142C23.3286 0.867142 19.7316 4.4151 19.7316 8.75149C19.6517 12.6937 22.6891 16.0051 26.5259 16.557Z" fill="#F9D72A"/>
<path d="M7.73875 16.5727C7.25916 18.4668 6.06018 19.8874 5.18092 20.7555C4.70133 21.2291 4.6214 22.0183 5.10099 22.5708L5.26085 22.7286C5.66052 23.1232 6.29997 23.2811 6.77957 22.9654C17.1707 17.5987 17.0109 10.3378 16.9309 9.15397C16.9309 8.99613 16.9309 8.91721 16.9309 8.75936C16.9309 4.41864 13.334 0.867142 8.93773 0.867142C4.54146 0.867142 0.944517 4.41864 0.944517 8.75936C0.864586 12.7055 3.90201 16.0202 7.73875 16.5727Z" fill="#F9D72A"/>
</g>
<defs>
<clipPath id="clip0_1_1526">
<rect width="34.7909" height="22.2662" fill="white" transform="translate(35.7339 23.1333) rotate(-180)"/>
</clipPath>
</defs>
</svg>
