<svg width="33" height="32" viewBox="0 0 33 32" fill="none" xmlns="http://www.w3.org/2000/svg">
<path d="M16.6205 2C11.4955 4.31625 8.20673 5.40375 2.62048 6C2.62048 10.8494 2.94986 14.335 4.20111 17.5319C5.22425 20.1387 6.73999 22.5241 8.66548 24.5575C11.7655 27.8488 15.1761 29.5825 16.6205 30C18.0649 29.5825 21.4755 27.8488 24.5755 24.5575C26.501 22.5241 28.0167 20.1387 29.0399 17.5319C30.2911 14.335 30.6205 10.8494 30.6205 6C25.0342 5.40375 21.7455 4.31625 16.6205 2ZM26.7124 16.6206C25.8051 18.9296 24.4616 21.0422 22.7555 22.8431C20.3705 25.375 17.9111 26.7694 16.6205 27.335V4.7375C19.0424 5.8 20.9161 6.50625 22.7411 7.04313C24.4946 7.556 26.2825 7.94282 28.0911 8.20063C27.9836 11.9644 27.5686 14.4312 26.7124 16.6206Z" fill="#9691A4"/>
</svg>
