<svg width="71" height="24" viewBox="0 0 71 24" fill="none" xmlns="http://www.w3.org/2000/svg">
<path d="M58.65 12.946V12.9459C58.65 12.7763 58.7289 12.5708 58.996 12.3278C59.2686 12.0798 59.6938 11.8364 60.2616 11.6212C61.3931 11.1924 62.9416 10.9313 64.5172 10.8894C66.0956 10.8474 67.6322 11.0273 68.7479 11.4304C69.9062 11.8488 70.35 12.3939 70.35 12.946V16.2501H58.65V12.946Z" stroke="#4370B8" stroke-width="1.3"/>
<path d="M67.7501 4.90003C67.7501 6.7658 66.2796 8.25004 64.5001 8.25004C62.7206 8.25004 61.2501 6.7658 61.2501 4.90003C61.2501 3.03426 62.7206 1.55002 64.5001 1.55002C66.2796 1.55002 67.7501 3.03426 67.7501 4.90003Z" stroke="#4370B8" stroke-width="1.3"/>
<path d="M1.36781 4.8V16H6.13581C7.91181 16 10.3918 15.44 10.3918 12.896C10.3918 11.152 9.19181 10.384 8.18381 10.096C9.12781 9.792 9.94381 8.992 9.94381 7.632C9.94381 5.728 8.43981 4.8 6.10381 4.8H1.36781ZM8.53581 12.704C8.53581 14.256 7.20781 14.4 5.95981 14.4H3.19181V10.992H6.21581C7.22381 10.992 8.53581 11.216 8.53581 12.704ZM8.08781 7.92C8.08781 9.008 7.22381 9.456 6.16781 9.456L3.19181 9.44V6.384H5.91181C7.25581 6.384 8.08781 6.8 8.08781 7.92ZM11.6623 12.16C11.6623 14.816 13.6783 16.208 15.8223 16.208C17.9823 16.208 19.9823 14.816 19.9823 12.16C19.9823 9.504 17.9823 8.112 15.8223 8.112C13.6783 8.112 11.6623 9.504 11.6623 12.16ZM18.2383 12.16C18.2383 13.664 17.2463 14.64 15.8223 14.64C14.3823 14.64 13.3903 13.664 13.3903 12.16C13.3903 10.656 14.3823 9.68 15.8223 9.68C17.2463 9.68 18.2383 10.656 18.2383 12.16ZM27.6263 6.592V5.2C26.8103 5.712 26.0903 5.872 25.2903 5.872C24.4903 5.872 23.7703 5.712 22.9543 5.2V6.592C23.6583 7.072 24.4263 7.248 25.2903 7.248C26.1543 7.248 26.9223 7.072 27.6263 6.592ZM23.1143 16L27.2263 10.976V16H28.9383V8.32H27.4663L23.3543 13.344V8.32H21.6423V16H23.1143ZM34.6478 16V9.824H37.2878V8.32H30.2798V9.824H32.9358V16H34.6478ZM40.0987 16L44.2107 10.976V16H45.9227V8.32H44.4507L40.3387 13.344V8.32H38.6267V16H40.0987Z" fill="#4370B8"/>
</svg>
