<svg width="110" height="208" viewBox="0 0 110 208" fill="none" xmlns="http://www.w3.org/2000/svg">
<g filter="url(#filter0_dd_534_3387)">
<path d="M88.4294 150.387L87.7526 147.762C87.7526 147.724 87.7127 147.647 87.7526 147.608C87.7526 147.57 87.7922 147.492 87.7922 147.454C87.832 147.415 87.872 147.377 87.9118 147.338C87.9516 147.299 87.9914 147.299 88.0312 147.261C88.071 147.261 88.1506 147.261 88.1904 147.261C88.2303 147.261 88.3101 147.299 88.3499 147.299C88.3897 147.338 88.4294 147.377 88.4693 147.415C88.5091 147.454 88.5092 147.492 88.549 147.569L89.0267 149.422L90.9383 148.959C91.0577 148.92 91.1373 148.959 91.2568 148.997C91.3364 149.036 91.416 149.152 91.416 149.229C91.4558 149.345 91.416 149.422 91.3762 149.538C91.3363 149.615 91.2568 149.692 91.1374 149.731L88.4294 150.387Z" fill="#5D3CF2"/>
<path d="M86.9576 143.634C86.8779 143.634 86.7983 143.595 86.7584 143.518C86.6788 143.48 86.6389 143.402 86.6389 143.325L85.524 138.926C85.524 138.887 85.4841 138.81 85.524 138.772C85.524 138.733 85.5638 138.656 85.5638 138.617C85.6036 138.579 85.6434 138.54 85.6832 138.502C85.723 138.463 85.7628 138.463 85.8026 138.424C85.8424 138.424 85.9222 138.424 85.962 138.424C86.0018 138.424 86.0814 138.463 86.1213 138.463C86.1611 138.502 86.2008 138.54 86.2407 138.579C86.2805 138.617 86.2806 138.656 86.3204 138.733L87.4353 143.171C87.4353 143.21 87.4751 143.287 87.4353 143.325C87.4353 143.364 87.3954 143.441 87.3954 143.48C87.3556 143.518 87.3159 143.557 87.276 143.595C87.2362 143.634 87.1965 143.634 87.1567 143.673C87.0372 143.634 86.9974 143.634 86.9576 143.634ZM84.6877 134.797C84.608 134.797 84.5284 134.758 84.4886 134.72C84.4089 134.681 84.3692 134.604 84.3692 134.527L83.2541 130.089C83.2541 130.05 83.2142 129.973 83.2541 129.935C83.2541 129.896 83.2541 129.819 83.2939 129.78C83.3337 129.742 83.3735 129.703 83.4133 129.664C83.4531 129.626 83.5329 129.587 83.5728 129.587C83.6524 129.587 83.6922 129.587 83.732 129.587C83.7718 129.587 83.8514 129.626 83.8912 129.664C83.9311 129.703 83.9708 129.742 84.0106 129.78C84.0505 129.819 84.0505 129.896 84.0505 129.935L85.1656 134.334C85.2054 134.45 85.1656 134.527 85.1257 134.642C85.0859 134.72 85.0062 134.797 84.8868 134.835C84.8071 134.797 84.7673 134.797 84.6877 134.797ZM82.4178 125.96C82.3381 125.96 82.2585 125.921 82.2187 125.844C82.139 125.805 82.0993 125.728 82.0993 125.651L80.9844 121.252C80.9844 121.213 80.9844 121.136 80.9844 121.097C80.9844 121.059 81.024 120.982 81.024 120.943C81.0639 120.904 81.1038 120.866 81.1436 120.827C81.1834 120.789 81.2232 120.789 81.263 120.75C81.3028 120.75 81.3824 120.75 81.4223 120.75C81.4621 120.75 81.5419 120.789 81.5817 120.789C81.6215 120.827 81.6613 120.866 81.7011 120.904C81.7409 120.943 81.741 120.982 81.7808 121.059L82.8957 125.497C82.9355 125.612 82.8957 125.69 82.8559 125.805C82.816 125.883 82.7364 125.96 82.6169 125.998C82.5372 125.96 82.4974 125.96 82.4178 125.96Z" fill="#5D3CF2"/>
<path d="M80.1879 117.121C80.1083 117.121 80.0286 117.083 79.9888 117.005C79.9092 116.967 79.8692 116.89 79.8692 116.812L79.1924 114.188L81.9001 113.532C82.0196 113.532 82.0993 113.532 82.179 113.609C82.2586 113.648 82.2984 113.764 82.3382 113.841C82.378 113.918 82.3382 114.034 82.2984 114.111C82.2585 114.188 82.1788 114.265 82.0594 114.304L80.1481 114.767L80.6258 116.619C80.6258 116.658 80.6258 116.735 80.6258 116.774C80.6258 116.812 80.5861 116.89 80.5463 116.928C80.5064 116.967 80.4665 117.005 80.4267 117.044C80.3869 117.083 80.3073 117.083 80.2674 117.121C80.3073 117.121 80.2676 117.121 80.1879 117.121Z" fill="#5D3CF2"/>
<path d="M29.8133 98.2496C29.7337 98.211 29.6937 98.1338 29.6539 98.0567C29.6141 97.9795 29.6141 97.8637 29.6539 97.7865C29.6937 97.7094 29.7734 97.6322 29.853 97.5936C29.9326 97.555 30.0124 97.5551 30.1318 97.5551L32.083 97.9023L32.4414 96.0114C32.4414 95.8957 32.5212 95.8184 32.6008 95.7412C32.6805 95.664 32.7998 95.6641 32.9193 95.6641C33.0388 95.7027 33.1185 95.7413 33.1981 95.8185C33.2778 95.8957 33.2777 96.0114 33.2777 96.1271L32.7999 98.7513L30.0521 98.2882C29.8928 98.2882 29.8532 98.2496 29.8133 98.2496Z" fill="#5D3CF2"/>
<path d="M38.3349 64.9872C38.2552 64.9486 38.2155 64.8715 38.1756 64.8329C38.1358 64.7557 38.1358 64.6785 38.1358 64.6013L38.4941 62.7104L36.5429 62.3631C36.4633 62.3631 36.4235 62.3245 36.3837 62.3245C36.3439 62.286 36.3039 62.2473 36.2641 62.2088C36.2243 62.1702 36.1846 62.1316 36.1846 62.0544C36.1846 62.0158 36.1846 61.9386 36.1846 61.9C36.1846 61.8614 36.2243 61.7843 36.2641 61.7457C36.3039 61.7071 36.3439 61.6685 36.3837 61.6299C36.4235 61.5913 36.4632 61.5913 36.5031 61.5527C36.5429 61.5527 36.6225 61.5527 36.6623 61.5527L39.3703 62.0158L38.8923 64.64C38.8923 64.7557 38.8127 64.8329 38.7331 64.9101C38.6534 64.9873 38.5339 64.9872 38.4144 64.9872C38.4144 65.0258 38.3747 65.0258 38.3349 64.9872Z" fill="#5D3CF2"/>
<path d="M33.3959 91.8827C33.3162 91.8441 33.2763 91.7669 33.2364 91.7284C33.1966 91.6512 33.1968 91.574 33.1968 91.4968L34.0329 87.0204C34.0329 86.9818 34.0728 86.9045 34.1126 86.8659C34.1524 86.8274 34.1922 86.7888 34.232 86.7503C34.2718 86.7117 34.3516 86.7116 34.3914 86.673C34.4312 86.673 34.5108 86.673 34.5507 86.673C34.6701 86.7116 34.7498 86.7502 34.7896 86.8274C34.8693 86.9046 34.8692 87.0204 34.8692 87.1362L34.0329 91.6126C34.0329 91.6512 33.9932 91.7284 33.9932 91.767C33.9534 91.8056 33.9134 91.8441 33.8736 91.8827C33.8338 91.9213 33.7542 91.9213 33.7144 91.9599C33.6746 91.9599 33.595 91.9599 33.5551 91.9599C33.4755 91.9599 33.4357 91.9213 33.3959 91.8827ZM35.0284 82.9298C34.9488 82.8912 34.909 82.814 34.8692 82.7754C34.8293 82.6983 34.8293 82.621 34.8293 82.5439L35.6656 78.0674C35.6656 78.0289 35.7054 77.9516 35.7054 77.913C35.7453 77.8744 35.785 77.8358 35.8248 77.7972C35.8646 77.7586 35.9046 77.7587 35.9444 77.7201C36.024 77.7201 36.0638 77.7201 36.1036 77.7201C36.1435 77.7201 36.2231 77.7587 36.2629 77.7587C36.3027 77.7973 36.3427 77.8359 36.3825 77.8745C36.4223 77.9131 36.4222 77.9516 36.462 78.0288C36.5018 78.106 36.462 78.1445 36.462 78.1831L35.6656 82.6596C35.6258 82.7754 35.586 82.8526 35.5063 82.9298C35.4267 83.0069 35.3073 83.0069 35.1878 83.0069C35.1082 82.9683 35.0682 82.9683 35.0284 82.9298ZM36.6611 73.9768C36.5815 73.9382 36.5417 73.8611 36.5019 73.8225C36.462 73.7453 36.462 73.6681 36.462 73.5909L37.2983 69.1144C37.2983 69.0758 37.3382 68.9987 37.378 68.9601C37.4178 68.9215 37.4576 68.8829 37.4974 68.8443C37.5372 68.8057 37.6168 68.8057 37.6566 68.7672C37.6965 68.7286 37.7761 68.7672 37.8159 68.7672C37.8955 68.7672 37.9355 68.8058 37.9753 68.8058C38.0151 68.8444 38.0549 68.8829 38.0947 68.9215C38.1345 68.9601 38.1346 68.9987 38.1744 69.0759C38.1744 69.1145 38.1744 69.1916 38.1744 69.2302L37.3381 73.7067C37.2983 73.8225 37.2585 73.8997 37.1789 73.9768C37.0993 74.054 36.9797 74.054 36.8602 74.054C36.7407 74.0154 36.7009 73.9768 36.6611 73.9768Z" fill="#5D3CF2"/>
<path d="M90.8207 3.28125H19.1824C14.0853 3.28125 9.94385 7.29462 9.94385 12.2342V183.382C9.94385 188.322 14.0853 192.335 19.1824 192.335H90.8207C95.9577 192.335 100.059 188.322 100.059 183.382V12.2342C100.059 7.29462 95.9178 3.28125 90.8207 3.28125Z" fill="white"/>
<path d="M91.6554 0H18.3047C15.0394 0 11.8936 1.27348 9.62377 3.47313C7.31414 5.71136 6 8.72142 6 11.8858V184.114C6 187.279 7.31414 190.289 9.62377 192.527C11.9334 194.765 15.0394 196 18.3047 196H91.6554C94.9208 196 98.0666 194.765 100.376 192.527C102.686 190.289 104 187.279 104 184.114V11.8858C104 8.72142 102.686 5.71136 100.376 3.47313C98.0666 1.23489 94.9208 0 91.6554 0ZM100.058 183.574C100.058 185.928 99.1019 188.205 97.3498 189.903C95.5976 191.562 93.2482 192.527 90.8191 192.527H19.1809C16.7119 192.527 14.3625 191.601 12.6502 189.903C10.8981 188.243 9.94226 185.967 9.94226 183.574V12.4261C9.94226 10.072 10.9379 7.79526 12.6502 6.09728C14.3625 4.4379 16.7119 3.47313 19.1809 3.47313H28.2203C28.6982 3.47313 29.1759 3.6661 29.4945 3.97482C29.8131 4.28354 30.0123 4.7466 30.0123 5.20969V5.98149C30.0123 7.21638 30.53 8.37405 31.406 9.22304C32.2821 10.072 33.5166 10.5737 34.7908 10.5737H75.1695C75.8066 10.5737 76.404 10.458 77.0013 10.2264C77.5588 9.99488 78.1163 9.64753 78.5543 9.22304C78.9923 8.79855 79.3508 8.29691 79.5897 7.71806C79.8286 7.17779 79.948 6.56031 79.948 5.94287V5.20969C79.948 4.7466 80.1471 4.32213 80.4656 3.97482C80.7842 3.6661 81.2621 3.47313 81.74 3.47313H90.7793C93.2482 3.47313 95.5978 4.39931 97.3101 6.09728C99.0622 7.75667 100.018 10.0335 100.018 12.4261V183.574H100.058Z" fill="#454056"/>
<path d="M9.94385 12.4266V34.1914H100.059V12.4266C100.059 10.0726 99.1035 7.79576 97.3514 6.09779C95.5992 4.43841 93.2498 3.47363 90.8207 3.47363H81.7814C81.3036 3.47363 80.8655 3.6666 80.5071 3.97533C80.1885 4.28405 79.9895 4.74711 79.9895 5.2102V5.982C79.9895 6.59945 79.8699 7.17824 79.6309 7.7571C79.392 8.29736 79.0338 8.83768 78.5957 9.26217C78.1577 9.68667 77.6399 10.0339 77.0426 10.2655C76.4851 10.497 75.8481 10.6128 75.2109 10.6128H34.8321C33.5578 10.6128 32.3632 10.1112 31.4473 9.26217C30.5314 8.41319 30.0536 7.21683 30.0536 6.02053V5.28736C30.0536 4.82427 29.8545 4.3998 29.536 4.05249C29.2174 3.74376 28.7395 3.55079 28.2616 3.55079H19.1824C16.7135 3.55079 14.4039 4.47698 12.6518 6.17495C10.9395 7.79574 9.94385 10.0726 9.94385 12.4266Z" fill="#EFECF3"/>
<path d="M68.3198 20.376H39.569C38.2549 20.376 37.1797 21.4179 37.1797 22.6914C37.1797 23.9649 38.2549 25.0068 39.569 25.0068H68.3198C69.6339 25.0068 70.709 23.9649 70.709 22.6914C70.709 21.4179 69.6339 20.376 68.3198 20.376Z" fill="#D5D2DC"/>
<path d="M83.6664 32.3403C86.6774 32.3403 89.1324 29.909 89.1324 26.973C89.1324 23.9911 86.7237 21.6055 83.6664 21.6055C80.6554 21.6055 78.2002 24.0369 78.2002 26.973C78.2465 29.9548 80.6554 32.3403 83.6664 32.3403Z" fill="white"/>
<path d="M83.0146 25.1406L84.8675 26.9756L83.0146 28.8106" stroke="#5D3CF2" stroke-width="0.917" stroke-linecap="round" stroke-linejoin="round"/>
<path d="M23.2777 32.3403C26.2887 32.3403 28.7437 29.909 28.7437 26.973C28.7437 23.9911 26.2887 21.6055 23.2777 21.6055C20.2668 21.6055 17.8115 24.0369 17.8115 26.973C17.8115 29.9548 20.2668 32.3403 23.2777 32.3403Z" fill="white"/>
<path d="M23.9271 25.1406L22.0742 26.9756L23.9271 28.8106" stroke="#5D3CF2" stroke-width="0.917" stroke-linecap="round" stroke-linejoin="round"/>
<path d="M90.1213 81.3486H30.4954C29.5818 81.3486 28.8667 82.0432 28.8667 82.9308V93.0029C28.8667 93.8904 29.6215 94.585 30.4954 94.585H90.1213C91.035 94.585 91.75 93.8904 91.75 93.0029V82.9308C91.75 82.0818 91.035 81.3486 90.1213 81.3486Z" fill="#FFCBCE"/>
<path d="M25.4558 77.3906H17.651C16.8148 77.3906 16.1377 78.0467 16.1377 78.8571C16.1377 79.6675 16.8148 80.3235 17.651 80.3235H25.4558C26.2921 80.3235 26.9691 79.6675 26.9691 78.8571C26.9691 78.0467 26.2921 77.3906 25.4558 77.3906Z" fill="#EFECF3"/>
<path d="M30.1822 94.6242H32.039V81.3877H30.1822C29.7738 81.3877 29.4024 81.542 29.1054 81.8508C28.8083 82.1595 28.6597 82.5454 28.6597 82.9699V93.0034C28.6597 93.1963 28.6969 93.4278 28.7712 93.6208C28.8455 93.8137 28.9568 94.0067 29.1054 94.1611C29.2539 94.3155 29.4024 94.4312 29.6252 94.5084C29.7738 94.547 29.9966 94.6242 30.1822 94.6242Z" fill="#F23C49"/>
<path d="M90.1213 135.684H30.4954C29.5818 135.684 28.8667 136.378 28.8667 137.266V147.338C28.8667 148.226 29.6215 148.92 30.4954 148.92H90.1213C91.035 148.92 91.75 148.226 91.75 147.338V137.266C91.75 136.417 91.035 135.684 90.1213 135.684Z" fill="#FDBC31" fill-opacity="0.2"/>
<path d="M25.4714 131.748H17.6666C16.8304 131.748 16.1533 132.404 16.1533 133.214C16.1533 134.025 16.8304 134.681 17.6666 134.681H25.4714C26.3077 134.681 26.9848 134.025 26.9848 133.214C26.9848 132.404 26.3077 131.748 25.4714 131.748Z" fill="#EFECF3"/>
<path d="M30.1817 148.921H32.0385V135.646H30.1817C29.7733 135.646 29.402 135.8 29.1049 136.109C28.8078 136.417 28.6592 136.803 28.6592 137.228V147.3C28.6592 147.531 28.6964 147.724 28.7707 147.917C28.845 148.11 28.9563 148.303 29.1049 148.457C29.2534 148.612 29.4019 148.728 29.6247 148.805C29.7733 148.882 29.9589 148.921 30.1817 148.921Z" fill="#FDBC31"/>
<path d="M25.4714 156.135H17.6666C16.8304 156.135 16.1533 156.791 16.1533 157.601C16.1533 158.412 16.8304 159.068 17.6666 159.068H25.4714C26.3077 159.068 26.9848 158.412 26.9848 157.601C26.9848 156.791 26.3077 156.135 25.4714 156.135Z" fill="#EFECF3"/>
<path d="M90.1213 160.073H30.4954C29.5818 160.073 28.8667 160.806 28.8667 161.655V177.246C28.8667 178.133 29.6215 178.828 30.4954 178.828H90.1213C91.035 178.828 91.75 178.133 91.75 177.246V161.655C91.75 160.806 91.035 160.073 90.1213 160.073Z" fill="#EFECF3"/>
<path d="M30.1817 178.867H32.0385V160.073H30.1817C29.7733 160.073 29.402 160.228 29.1049 160.536C28.8078 160.845 28.6592 161.231 28.6592 161.655V177.246C28.6592 177.439 28.6964 177.67 28.7707 177.863C28.845 178.056 28.9563 178.249 29.1049 178.404C29.2534 178.558 29.4019 178.674 29.5876 178.751C29.7732 178.828 29.9961 178.867 30.1817 178.867Z" fill="#FD5631"/>
<path d="M90.1213 48.6631H30.4954C29.5818 48.6631 28.8667 49.3577 28.8667 50.2453V71.3928C28.8667 72.2804 29.6215 72.975 30.4954 72.975H90.1213C91.035 72.975 91.75 72.2804 91.75 71.3928V50.2453C91.75 49.3577 91.035 48.6631 90.1213 48.6631Z" fill="#F5F4F8"/>
<path d="M25.4714 44.7256H17.6666C16.8304 44.7256 16.1533 45.3816 16.1533 46.192C16.1533 47.0024 16.8304 47.6585 17.6666 47.6585H25.4714C26.3077 47.6585 26.9848 47.0024 26.9848 46.192C26.9848 45.3816 26.3077 44.7256 25.4714 44.7256Z" fill="#EFECF3"/>
<path d="M30.1817 72.975H32.0385V48.6631H30.1817C29.7733 48.6631 29.402 48.8175 29.1049 49.1262C28.8078 49.435 28.6592 49.8208 28.6592 50.2453V71.3928C28.6592 71.5858 28.6964 71.8173 28.7707 72.0102C28.845 72.2032 28.9563 72.3962 29.1049 72.5505C29.2534 72.7049 29.4019 72.8206 29.5876 72.8978C29.7732 72.9364 29.9961 72.975 30.1817 72.975Z" fill="#FD5631"/>
<path d="M25.4714 100.565H17.6666C16.8304 100.565 16.1533 101.221 16.1533 102.032C16.1533 102.842 16.8304 103.498 17.6666 103.498H25.4714C26.3077 103.498 26.9848 102.842 26.9848 102.032C26.9848 101.26 26.3077 100.565 25.4714 100.565Z" fill="#EFECF3"/>
<path d="M90.1213 104.542H30.4954C29.5818 104.542 28.8667 105.237 28.8667 106.124V124.184C28.8667 125.072 29.6215 125.767 30.4954 125.767H90.1213C91.035 125.767 91.75 125.072 91.75 124.184V106.124C91.75 105.237 91.035 104.542 90.1213 104.542Z" fill="#F5F4F8"/>
<path d="M30.1822 125.766H32.039V104.503H30.1822C29.7738 104.503 29.4024 104.657 29.1054 104.966C28.8083 105.275 28.6597 105.661 28.6597 106.085V124.145C28.6597 124.338 28.6969 124.57 28.7712 124.763C28.8455 124.956 28.9568 125.149 29.1054 125.303C29.2539 125.457 29.4024 125.573 29.6252 125.65C29.7738 125.728 29.9966 125.766 30.1822 125.766Z" fill="#FD5631"/>
<path d="M34.5114 56.2639C34.4716 56.2639 34.4317 56.2639 34.4317 56.2639C34.3919 56.2639 34.3522 56.2253 34.3522 56.2253C34.3124 56.1867 34.3123 56.1867 34.3123 56.1481C34.3123 56.1095 34.2725 56.0709 34.2725 56.0709C34.2725 56.0324 34.2725 55.9937 34.3123 55.9937C34.4716 55.5692 34.7106 55.1448 34.9894 54.7203C35.0292 54.6817 35.069 54.6431 35.1486 54.6045C35.2282 54.6045 35.2681 54.6044 35.3477 54.643C35.3875 54.6816 35.4273 54.7203 35.4671 54.7974C35.4671 54.8746 35.4671 54.9132 35.4272 54.9904C35.1883 55.3377 34.9495 55.7622 34.7903 56.1481C34.7903 56.1867 34.7504 56.2253 34.7105 56.2253C34.6309 56.2639 34.5911 56.2639 34.5114 56.2639Z" fill="#5D3CF2"/>
<path d="M73.2568 68.8054C73.217 68.8054 73.1773 68.8054 73.1773 68.8054L72.8586 68.6897C72.0621 68.4195 71.2659 68.1494 70.4296 67.8792C70.3898 67.8406 70.31 67.802 70.31 67.7634C70.2702 67.7248 70.2702 67.6477 70.31 67.5705C70.31 67.4933 70.3898 67.4548 70.4296 67.4548C70.4694 67.4162 70.5491 67.4162 70.5889 67.4548C71.4251 67.7635 72.2216 67.995 73.018 68.2651L73.3365 68.3809C73.3763 68.3809 73.3764 68.4195 73.4162 68.4195C73.456 68.4581 73.4559 68.4581 73.4957 68.4967C73.4957 68.5353 73.5356 68.5739 73.5356 68.5739C73.5356 68.6125 73.5356 68.651 73.5356 68.651C73.5356 68.6896 73.4957 68.7282 73.4559 68.7668C73.3364 68.8054 73.2966 68.8054 73.2568 68.8054ZM67.8412 66.8373C67.8014 66.8373 67.7615 66.8373 67.7217 66.8373C66.8456 66.4514 65.9695 65.9883 65.1333 65.4866C65.0935 65.4866 65.0936 65.4481 65.0538 65.4095C65.0538 65.3709 65.0139 65.3709 65.0139 65.3323C65.0139 65.2937 65.0139 65.2551 65.0139 65.2551C65.0139 65.2165 65.0538 65.1779 65.0538 65.1779C65.0936 65.1393 65.1334 65.1007 65.213 65.0621C65.2927 65.0621 65.3325 65.0622 65.4121 65.1007C66.2085 65.6024 67.0447 66.0655 67.9208 66.4514C68.0004 66.49 68.0404 66.5286 68.0404 66.5672C68.0802 66.6058 68.0802 66.683 68.0404 66.7601C68.0005 66.7987 68.0005 66.8373 67.9606 66.8373C67.9208 66.8373 67.8412 66.8373 67.8412 66.8373ZM62.9431 63.7887C62.9033 63.7887 62.8636 63.7887 62.8237 63.7887C62.7839 63.7887 62.7838 63.7501 62.744 63.7501C61.9874 63.0941 61.3503 62.3994 60.7928 61.589C60.753 61.5504 60.753 61.5504 60.753 61.5118C60.753 61.4732 60.753 61.4346 60.753 61.396C60.753 61.3575 60.753 61.3189 60.7928 61.3189C60.7928 61.2803 60.8327 61.2803 60.8725 61.2417C60.9124 61.2031 60.9521 61.2031 60.9919 61.2031C61.0317 61.2031 61.0715 61.2031 61.1113 61.2031C61.1511 61.2031 61.1911 61.2417 61.2309 61.2417C61.2707 61.2803 61.2706 61.2803 61.3104 61.3189C61.8679 62.0907 62.5051 62.7853 63.1821 63.4413C63.2219 63.4799 63.2618 63.5185 63.2618 63.5571C63.2618 63.5957 63.2618 63.6343 63.2618 63.6729C63.222 63.7115 63.2219 63.7501 63.1821 63.7887C63.0228 63.7887 62.9829 63.7887 62.9431 63.7887ZM59.5982 59.1964C59.5584 59.1964 59.5186 59.1965 59.4788 59.1579C59.439 59.1193 59.3991 59.0807 59.3991 59.0421C59.0009 58.1545 58.7221 57.2283 58.5628 56.3021C58.5628 56.225 58.5628 56.1864 58.6026 56.1092C58.6425 56.0706 58.6823 56.032 58.7619 55.9934C58.8017 55.9934 58.8417 55.9934 58.8815 55.9934C58.9213 55.9934 58.961 56.032 58.961 56.032C59.0008 56.032 59.0009 56.0706 59.0407 56.1092C59.0407 56.1478 59.0806 56.1478 59.0806 56.1864C59.2399 57.0739 59.5186 57.9615 59.877 58.8105C59.877 58.8491 59.9167 58.8877 59.9167 58.8877C59.9167 58.8877 59.9168 58.9649 59.877 58.9649C59.877 59.0035 59.8371 59.0035 59.8371 59.0421C59.8371 59.0807 59.7972 59.0806 59.7574 59.0806L59.5982 59.1964ZM61.0716 56.1478C60.5141 56.1864 59.9964 56.1478 59.4389 56.1092C59.3991 56.1092 59.3592 56.1093 59.3592 56.0707C59.3194 56.0707 59.3195 56.032 59.2797 55.9934C59.2399 55.9548 59.2398 55.8777 59.2398 55.8391C59.2398 55.7619 59.2795 55.7234 59.3194 55.6848C59.3592 55.6462 59.439 55.6461 59.4788 55.6461C59.9965 55.6847 60.5141 55.7234 61.0318 55.6848C61.4698 55.6462 61.8679 55.6076 62.3059 55.569C62.3458 55.569 62.3857 55.569 62.3857 55.569C62.4255 55.569 62.4654 55.5689 62.4654 55.6075C62.5052 55.6075 62.5051 55.6462 62.5449 55.6848C62.5449 55.7234 62.5848 55.7233 62.5848 55.7619C62.5848 55.8005 62.5848 55.8391 62.5848 55.8391C62.5848 55.8777 62.5449 55.9162 62.5449 55.9162C62.5051 55.9548 62.5052 55.9548 62.4654 55.9934C62.4256 55.9934 62.4255 56.032 62.3857 56.032C61.9476 56.0706 61.5097 56.1092 61.0716 56.1478ZM56.6116 55.4918C56.5718 55.4918 56.5319 55.4918 56.5319 55.4918C55.5762 55.2217 54.6603 54.8743 53.7842 54.4884C53.7444 54.4884 53.7047 54.4498 53.7047 54.4498C53.6649 54.4112 53.6648 54.4112 53.625 54.3726C53.625 54.334 53.625 54.2955 53.625 54.2955C53.625 54.2569 53.625 54.2183 53.625 54.2183C53.625 54.1797 53.6649 54.1797 53.7047 54.1412C53.7047 54.1026 53.7444 54.1025 53.7842 54.1025C53.8241 54.1025 53.864 54.1025 53.864 54.1025C53.9038 54.1025 53.9435 54.1025 53.9833 54.1025C55.0585 54.527 55.8949 54.8357 56.6913 55.0673C56.7311 55.0673 56.7708 55.1059 56.7708 55.1059C56.8107 55.1059 56.8107 55.1445 56.8107 55.1831C56.8505 55.2217 56.8506 55.2216 56.8506 55.2602C56.8506 55.2988 56.8505 55.3374 56.8107 55.3374C56.8107 55.376 56.7708 55.4146 56.731 55.4532C56.6912 55.4918 56.6514 55.4918 56.6116 55.4918ZM65.0934 55.0287C65.0536 55.0287 65.0139 55.0287 64.974 54.9901C64.9342 54.9515 64.8945 54.9515 64.8547 54.913C64.8148 54.8744 64.8148 54.7972 64.8148 54.72C64.8148 54.6428 64.8545 54.6042 64.9342 54.5656C65.3722 54.334 65.7306 54.0253 66.1288 53.678C66.4474 53.3693 66.6863 53.022 66.8854 52.6747C66.9252 52.6361 66.9651 52.5975 67.005 52.5589C67.0846 52.5589 67.1244 52.5589 67.2041 52.5589C67.2439 52.5975 67.3235 52.6361 67.3235 52.7132C67.3633 52.7904 67.3235 52.829 67.3235 52.9062C67.0845 53.3307 66.8059 53.678 66.4475 54.0254C66.0891 54.4113 65.651 54.72 65.1731 54.9901C65.1731 55.0287 65.1332 55.0287 65.0934 55.0287ZM58.5628 53.678C58.523 53.678 58.4833 53.678 58.4833 53.6395C58.4434 53.6395 58.4035 53.6008 58.4035 53.6008C58.3637 53.5622 58.3637 53.5623 58.3637 53.5237C58.3637 53.4851 58.3637 53.4465 58.3637 53.4465C58.4433 52.4818 58.6824 51.517 59.0806 50.6294C59.1204 50.5908 59.1601 50.5136 59.2 50.5136C59.2398 50.5136 59.3194 50.475 59.3991 50.5136C59.4389 50.5522 59.5185 50.5908 59.5185 50.6294C59.5583 50.7066 59.5185 50.7452 59.5185 50.8224C59.1601 51.6713 58.9213 52.5589 58.8416 53.4465C58.8416 53.5237 58.8415 53.5622 58.7619 53.6008C58.7221 53.6394 58.6424 53.678 58.5628 53.678ZM51.156 53.4079H51.0366L50.0809 53.022C49.4836 52.7904 48.8863 52.5589 48.3288 52.4046C48.289 52.4046 48.289 52.366 48.2491 52.366C48.2093 52.3274 48.2092 52.3274 48.1694 52.2888C48.1694 52.2502 48.1297 52.2502 48.1297 52.2116C48.1297 52.173 48.1297 52.1344 48.1297 52.1344C48.1297 52.0958 48.1694 52.0958 48.1694 52.0572C48.1694 52.0186 48.2093 52.0187 48.2491 52.0187C48.289 52.0187 48.289 51.9801 48.3288 51.9801C48.3687 51.9801 48.4084 51.9801 48.4084 51.9801C49.0057 52.173 49.5632 52.3659 50.2003 52.6361L51.156 53.022C51.1958 53.022 51.1959 53.0606 51.2357 53.0606C51.2357 53.0992 51.2756 53.0992 51.2756 53.1378C51.2756 53.1764 51.2756 53.2149 51.2756 53.2149V53.2921C51.2358 53.3307 51.2357 53.3693 51.1959 53.3693C51.2755 53.3693 51.2356 53.4079 51.156 53.4079ZM37.1789 53.0606C37.1391 53.0606 37.0593 53.0606 37.0593 53.022C37.0195 52.9834 36.9798 52.9448 36.9399 52.9062C36.9399 52.8676 36.9399 52.7905 36.9399 52.7519C36.9798 52.7133 36.9797 52.6747 37.0593 52.6361C37.8956 52.0958 38.8116 51.6713 39.7673 51.4012C39.8071 51.4012 39.8468 51.4012 39.8468 51.4012C39.8866 51.4012 39.9266 51.4012 39.9664 51.4398C40.0062 51.4398 40.0061 51.4784 40.0459 51.4784C40.0459 51.517 40.0858 51.5169 40.0858 51.5555C40.0858 51.5941 40.1256 51.6328 40.0858 51.6328C40.0858 51.6714 40.0857 51.7099 40.0459 51.7099C40.0459 51.7485 40.0062 51.7485 39.9664 51.7871C39.9266 51.8257 39.9265 51.8257 39.8867 51.8257C38.9708 52.0959 38.0948 52.4817 37.3382 53.022C37.3382 53.0606 37.2586 53.0606 37.1789 53.0606ZM45.6209 51.6713H45.5414C44.5857 51.517 43.6299 51.4012 42.6742 51.4398C42.6343 51.4398 42.5946 51.4398 42.5548 51.4398C42.515 51.4398 42.5149 51.4012 42.4751 51.4012C42.4352 51.3626 42.4352 51.3626 42.4352 51.324C42.4352 51.2855 42.3953 51.2855 42.3953 51.2469C42.3953 51.1697 42.4352 51.1311 42.4751 51.0925C42.5149 51.0539 42.5945 51.0153 42.6343 51.0153C43.6298 51.0153 44.6253 51.0925 45.581 51.2469C45.6209 51.2469 45.6608 51.2468 45.6608 51.2854C45.7006 51.2854 45.7006 51.324 45.7405 51.3626C45.7803 51.4012 45.7801 51.4012 45.7801 51.4398C45.7801 51.4784 45.7801 51.517 45.7801 51.517C45.7801 51.5556 45.7404 51.5942 45.7006 51.6328C45.7404 51.6328 45.7005 51.6713 45.6209 51.6713ZM67.7615 50.3593C67.6819 50.3593 67.6421 50.3593 67.6023 50.2821C67.5625 50.2435 67.5226 50.1663 67.5226 50.1277C67.4827 49.3945 67.1642 48.6999 66.6068 48.1982C66.4873 48.0824 66.3679 48.0053 66.2484 47.9281C66.2086 47.8895 66.1687 47.8509 66.1687 47.7738C66.1687 47.7352 66.1687 47.6579 66.2085 47.6193C66.2484 47.5808 66.2881 47.5422 66.3678 47.5422C66.4076 47.5422 66.4872 47.5422 66.527 47.5422C66.6863 47.6579 66.8058 47.7351 66.9252 47.8509C67.5624 48.4298 67.9209 49.2402 68.0005 50.0892C68.0005 50.1664 67.9606 50.2049 67.9208 50.2435C67.9208 50.3207 67.8412 50.3593 67.7615 50.3593ZM60.9919 48.6999C60.9521 48.6999 60.9124 48.6998 60.8725 48.6613C60.8327 48.6613 60.7928 48.6227 60.7928 48.5841C60.753 48.5455 60.753 48.5455 60.753 48.5069C60.753 48.4683 60.753 48.4298 60.753 48.4298C60.753 48.3912 60.753 48.3526 60.7928 48.3526C60.7928 48.314 60.8327 48.3139 60.8725 48.2754C61.6291 47.6579 62.5848 47.1949 63.5803 47.002C63.6599 47.002 63.6997 47.0019 63.7395 47.0405C63.8192 47.0791 63.8193 47.1177 63.8591 47.1949C63.8591 47.2721 63.8591 47.3107 63.8193 47.3879C63.7794 47.465 63.7397 47.465 63.66 47.465C62.7441 47.658 61.8679 48.0439 61.1512 48.6227C61.0715 48.6613 61.0317 48.6613 60.9919 48.6999Z" fill="#5D3CF2"/>
<path d="M77.2788 70.5054C77.1992 70.5054 77.1594 70.5054 77.1196 70.4668C76.7612 70.1967 76.363 69.9652 75.9648 69.8108C75.925 69.7722 75.8452 69.7336 75.8452 69.695C75.8452 69.6564 75.8452 69.5792 75.8452 69.5021C75.885 69.4635 75.925 69.3864 75.9648 69.3864C76.0046 69.3478 76.0842 69.3478 76.124 69.3864C76.6019 69.5793 77.0002 69.8108 77.3984 70.1195C77.3984 70.1581 77.4381 70.1581 77.4381 70.1967C77.4381 70.2353 77.4381 70.2739 77.4381 70.2739C77.4381 70.3125 77.4381 70.3511 77.4381 70.3511C77.4381 70.3897 77.3984 70.3897 77.3984 70.4283C77.3586 70.4669 77.3186 70.4668 77.2788 70.5054Z" fill="#5D3CF2"/>
<path d="M75.727 64.8707C75.5677 64.8321 75.4083 64.8321 75.2491 64.8707C75.0898 64.9479 74.9704 65.0251 74.9306 65.1795L69.2759 75.5603C69.3953 75.5989 69.515 75.6375 69.6344 75.6375C69.7539 75.6375 69.8733 75.6375 69.9928 75.5603L86.7972 68.8842C86.9167 68.8456 87.0363 68.7684 87.1159 68.6912C87.1955 68.6141 87.2752 68.4983 87.315 68.3825L75.727 64.8707Z" fill="#5D3CF2" fill-opacity="0.5"/>
<path d="M75.9249 67.532C76.0842 67.5706 76.2435 67.5705 76.363 67.4934C76.4824 67.4548 76.6416 67.339 76.6815 67.2232L82.4954 57.3441H82.4157H82.376C82.3362 57.3441 82.2564 57.3441 82.2166 57.3441H82.2963C82.137 57.3055 81.9777 57.3441 81.8582 57.3827L65.0538 64.0589C64.8547 64.136 64.6954 64.2903 64.6157 64.4833L75.9249 67.532Z" fill="white"/>
<path d="M73.9761 66.9922L64.6181 64.4453C64.5783 64.4839 64.5783 64.5225 64.5783 64.5225C64.4986 64.7154 64.4986 64.947 64.5783 65.14L68.7994 75.0962C68.879 75.2891 69.0383 75.4821 69.2374 75.5593L73.9761 66.9922Z" fill="#EFECF3"/>
<path d="M87.197 68.5752C87.157 68.6139 87.1171 68.6527 87.0771 68.6914C87.1571 68.6914 87.197 68.6139 87.197 68.5752Z" fill="#EFECF3"/>
<path d="M82.4976 57.3066L77.6792 65.4878L87.2761 68.382C87.2761 68.4206 87.2362 68.4978 87.1964 68.5364C87.2761 68.4206 87.316 68.2662 87.316 68.1505C87.316 67.9961 87.3159 67.8803 87.2363 67.7646L83.0152 57.8469C82.9754 57.7311 82.8957 57.6153 82.8161 57.5381C82.7763 57.4224 82.6171 57.3452 82.4976 57.3066Z" fill="#EFECF3"/>
<path d="M82.5744 57.346L82.4951 57.3066L82.5744 57.346Z" fill="#EFECF3"/>
<path d="M59.1196 135.683C59.3187 137.689 60.2746 139.542 61.8276 140.892C63.3806 142.243 65.3717 142.976 67.4424 142.976C69.5131 142.976 71.504 142.243 73.0571 140.892C74.6101 139.542 75.5659 137.689 75.765 135.683H59.1196Z" fill="#FDBC31"/>
<path d="M68.6801 110.715H39.8894C39.0532 110.715 38.3364 111.371 38.3364 112.181C38.3364 112.992 39.0133 113.648 39.8894 113.648H68.6801C69.5163 113.648 70.2332 112.992 70.2332 112.181C70.1934 111.371 69.5163 110.715 68.6801 110.715Z" fill="#D5D2DC"/>
<path d="M56.5744 116.657H39.8894C39.0532 116.657 38.3364 117.313 38.3364 118.124C38.3364 118.934 39.0133 119.59 39.8894 119.59H56.5744C57.4107 119.59 58.1274 118.934 58.1274 118.124C58.0876 117.313 57.4107 116.657 56.5744 116.657Z" fill="#D5D2DC"/>
<path d="M73.1401 165.051H39.8894C39.0532 165.051 38.3364 165.707 38.3364 166.517C38.3364 167.328 39.0133 167.984 39.8894 167.984H73.1401C73.9764 167.984 74.6931 167.328 74.6931 166.517C74.6533 165.707 73.9764 165.051 73.1401 165.051Z" fill="#D5D2DC"/>
<path d="M62.9458 170.995H39.8894C39.0532 170.995 38.3364 171.651 38.3364 172.462C38.3364 173.272 39.0133 173.928 39.8894 173.928H62.9458C63.7821 173.928 64.4592 173.272 64.4592 172.462C64.4592 171.651 63.7821 170.995 62.9458 170.995Z" fill="#D5D2DC"/>
<path d="M50.321 91.1506H47.374C46.4183 91.1506 45.5024 90.8033 44.7857 90.1473C44.0689 89.4912 43.6707 88.6423 43.591 87.7161L43.1133 79.3035C43.1133 79.2263 43.1133 79.1491 43.1531 79.0719C43.193 78.9947 43.2327 78.9561 43.2725 78.8789C43.3522 78.8403 43.392 78.7631 43.4716 78.7631C43.5513 78.7246 43.631 78.7246 43.7106 78.7246H54.0243C54.1039 78.7246 54.1835 78.7246 54.2234 78.7631C54.303 78.8017 54.3428 78.8403 54.4225 78.8789C54.4623 78.9175 54.502 78.9947 54.5419 79.0719C54.5817 79.1491 54.5817 79.2263 54.5817 79.3035L54.104 87.7161C54.0642 88.6423 53.626 89.5298 52.949 90.1473C52.1924 90.7647 51.2368 91.1506 50.321 91.1506Z" fill="#F23C49"/>
<path d="M54.4223 80.6152L54.3425 81.8887C54.9797 82.0045 55.5373 82.3518 55.8957 82.8535C56.2939 83.3552 56.4532 83.9726 56.4532 84.5901C56.4134 85.2075 56.1347 85.7864 55.6966 86.2495C55.2586 86.7126 54.6612 86.9827 54.0241 87.0213L53.9443 88.2948C54.9399 88.2562 55.8956 87.8703 56.5726 87.2142C57.2894 86.5582 57.7274 85.632 57.7672 84.6672C57.807 83.7025 57.4886 82.7763 56.8913 82.0045C56.2939 81.2713 55.4178 80.7696 54.4223 80.6152Z" fill="#F23C49"/>
<path d="M49.6041 76.7565C49.6041 76.7565 47.0953 74.5184 47.175 72.859C47.2944 70.312 49.6439 69.3472 48.7678 66.9932C48.3298 65.8741 46.5776 62.208 46.5776 62.208C46.5776 62.208 49.4847 64.9865 50.5201 66.7231C51.436 68.3053 51.3165 70.7365 50.321 71.9328C48.091 74.4797 49.6041 76.7565 49.6041 76.7565Z" fill="#D5D2DC"/>
<path d="M57.0496 137.69C56.054 137.69 55.1381 137.961 54.2621 138.462C53.4258 138.925 52.709 139.62 52.2312 140.43C51.8728 141.125 51.7532 141.935 51.9523 142.707C52.032 142.977 52.3905 144.212 52.9082 143.749C54.1825 142.591 55.6557 141.627 57.3282 141.009C58.1246 140.7 58.0451 137.729 57.0496 137.69Z" fill="#FDBC31"/>
<path d="M61.549 143.017C60.5136 144.561 59.7173 146.259 59.2394 148.034C59.0403 148.844 59.1199 149.732 59.4385 150.504C59.6376 150.928 60.1154 151.353 60.5136 150.812C60.9914 150.041 61.3101 149.192 61.5888 148.304C61.9074 147.455 62.2657 146.645 62.5445 145.757C62.8232 144.985 62.8232 144.175 62.5445 143.442C62.3852 143.094 61.9472 142.4 61.549 143.017Z" fill="#FDBC31"/>
<path d="M76.3242 142.669C77.7179 143.942 78.9921 145.255 80.4257 146.451C81.0629 146.991 81.3815 146.181 81.4611 145.64C81.5806 144.907 81.5009 143.518 80.8638 143.016C79.5497 141.82 78.1162 140.701 76.7224 139.543C76.1251 139.041 75.8464 139.775 75.8066 140.276C75.727 140.932 75.7667 142.167 76.3242 142.669Z" fill="#FDBC31"/>
<path d="M68.7977 145.253C68.7181 147.105 69.3153 149.151 69.8728 150.964C70.0719 151.543 70.6294 152.624 71.2665 151.775C71.9037 150.926 71.7843 149.537 71.5453 148.572C71.3462 147.8 71.0676 147.028 70.8286 146.295C70.5897 145.523 70.4303 144.52 69.7534 143.941C69.1162 143.362 68.8375 145.06 68.7977 145.253Z" fill="#FDBC31"/>
</g>
<defs>
<filter id="filter0_dd_534_3387" x="0.679918" y="0" width="108.64" height="207.97" filterUnits="userSpaceOnUse" color-interpolation-filters="sRGB">
<feFlood flood-opacity="0" result="BackgroundImageFix"/>
<feColorMatrix in="SourceAlpha" type="matrix" values="0 0 0 0 0 0 0 0 0 0 0 0 0 0 0 0 0 0 127 0" result="hardAlpha"/>
<feOffset dy="2.76726"/>
<feGaussianBlur stdDeviation="1.1069"/>
<feColorMatrix type="matrix" values="0 0 0 0 0 0 0 0 0 0 0 0 0 0 0 0 0 0 0.0674749 0"/>
<feBlend mode="normal" in2="BackgroundImageFix" result="effect1_dropShadow_534_3387"/>
<feColorMatrix in="SourceAlpha" type="matrix" values="0 0 0 0 0 0 0 0 0 0 0 0 0 0 0 0 0 0 127 0" result="hardAlpha"/>
<feOffset dy="6.6501"/>
<feGaussianBlur stdDeviation="2.66004"/>
<feColorMatrix type="matrix" values="0 0 0 0 0 0 0 0 0 0 0 0 0 0 0 0 0 0 0.0969343 0"/>
<feBlend mode="normal" in2="effect1_dropShadow_534_3387" result="effect2_dropShadow_534_3387"/>
<feBlend mode="normal" in="SourceGraphic" in2="effect2_dropShadow_534_3387" result="shape"/>
</filter>
</defs>
</svg>
